v -0.173746 0.865996 0.091628
v -0.116849 0.856623 0.091556
v -0.116676 0.793026 0.091071
v -0.228870 0.863776 0.091612
v 0.221207 0.903682 0.091911
v 0.110240 0.770525 0.090896
v 0.110183 0.856970 0.091556
v -0.117371 0.923421 0.092066
v -0.028074 0.856760 0.091556
v -0.108104 1.000000 0.092650
v 0.094250 0.898566 0.091873
v 0.007178 0.856814 0.091556
v -0.116852 0.857981 -0.086335
v -0.116844 0.853510 -0.045318
v 0.110188 0.853857 -0.045318
v 0.110540 0.624954 0.089657
v 0.110183 0.856970 0.091556
v 0.110538 0.625766 -0.088237
v 0.110182 0.858328 -0.086335
v 0.110463 0.625488 -0.036086
v -0.116365 0.540904 0.089275
v -0.113072 0.383871 0.092533
v -0.116064 0.305447 0.092496
v 0.250226 0.000206 0.097875
v 0.183073 0.005177 0.097875
v 0.183073 0.005177 -0.097875
v 0.115897 0.000000 0.097875
v 0.111321 0.152643 0.095510
v 0.115897 0.000000 -0.097875
v 0.110969 0.305447 -0.092496
v 0.111321 0.152643 -0.095510
v -0.116378 0.152643 -0.095472
v 0.180330 0.301107 -0.092496
v 0.249766 0.300222 -0.092496
v -0.116378 0.152643 0.095548
v 0.180330 0.301107 0.092496
v 0.249766 0.300222 0.092496
v 0.245761 0.150246 0.095510
v 0.110969 0.305447 0.092496
v 0.113922 0.384219 0.092533
v 0.113922 0.384212 -0.088911
v 0.110666 0.542064 -0.088619
v 0.110667 0.541251 0.089275
v 0.110667 0.541488 0.037429
v 0.110540 0.625190 0.037811
v 0.110180 0.859026 0.032246
v 0.110591 0.541747 -0.036468
v 0.237444 0.767850 0.038194
v 0.238256 0.625019 0.037504
v 0.249025 0.762982 0.038171
v 0.238179 0.541354 0.037237
v 0.337714 0.541652 -0.036508
v 0.238179 0.541652 -0.036508
v 0.238179 0.625316 -0.036126
v 0.237366 0.768148 -0.035436
v 0.337790 0.541354 0.037122
v 0.333703 0.758565 0.038151
v 0.326470 0.763635 -0.035457
v 0.326470 0.763337 0.038173
v -0.331796 0.762059 -0.035460
v -0.293454 0.760827 0.038165
v -0.293415 0.761128 -0.035465
v -0.336275 0.545810 0.037185
v -0.334017 0.617858 0.037513
v -0.333941 0.618155 -0.036117
v -0.116289 0.541400 -0.036468
v -0.116365 0.541141 0.037429
v -0.249610 0.540218 0.037273
v -0.249880 0.624179 -0.036090
v -0.249995 0.623882 0.037540
v -0.116494 0.624843 0.037811
v -0.250050 0.768365 -0.035432
v -0.250163 0.768068 0.038198
v -0.116419 0.625141 -0.036086
v -0.116366 0.541713 -0.088619
v -0.113072 0.383864 -0.088911
v -0.116494 0.624607 0.089657
v -0.116849 0.856623 0.091556
v -0.186984 0.308398 0.092496
v -0.257868 0.306261 0.092496
v -0.120641 0.000103 0.097875
v -0.189235 0.005177 0.097875
v -0.257868 0.153201 -0.095510
v -0.257868 0.000103 -0.097875
v -0.257868 0.000103 0.097875
v -0.116064 0.305447 -0.092496
v -0.186984 0.308398 -0.092496
v -0.257868 0.306261 -0.092496
v -0.120641 0.000103 -0.097875
v -0.189235 0.005177 -0.097875
v -0.116495 0.625415 -0.088237
v -0.257868 0.153201 0.095510
v 0.245761 0.150246 -0.095510
v -0.336161 0.546108 -0.036445
v -0.249610 0.540515 -0.036471
v -0.337714 0.690100 -0.035788
v 0.249025 0.763280 -0.035459
v 0.337023 0.749805 0.038111
v 0.336948 0.750141 -0.035519
v -0.337790 0.689802 0.037842
v -0.331872 0.761762 0.038170
v 0.333589 0.758862 -0.035479
v 0.113803 0.463050 -0.087633
v 0.113803 0.462787 0.087821
v -0.113193 0.462703 -0.087633
v -0.113192 0.462440 0.087821
v -0.116852 0.858679 0.032246
v 0.250226 0.000206 -0.097875
v 0.083594 0.981184 0.092504
v -0.250163 0.768365 -0.035432
v 0.215399 0.909587 0.091956
vn 0.787672 0.616062 -0.006376
vn 0.281630 -0.959435 -0.012982
vn 0.787672 0.616062 -0.006376
vn 0.000017 -0.007620 0.999971
vn -0.387751 0.921760 0.002615
vn -0.000015 0.007635 -0.999971
vn 0.000003 -0.007595 0.999971
vn -0.598214 -0.801305 -0.007102
vn -0.598214 -0.801305 -0.007102
vn -0.000017 0.007628 -0.999971
vn 0.000016 -0.007626 0.999971
vn 0.000016 -0.007626 0.999971
vn -0.683215 0.679785 -0.266663
vn -0.557365 0.830239 -0.006844
vn 0.554824 0.830918 0.041773
vn 0.554706 -0.003954 0.832037
vn 0.571453 0.568173 0.592132
vn 0.555063 0.005647 -0.831789
vn 0.681744 0.345635 -0.644795
vn 0.973189 0.164285 -0.160978
vn -0.554481 -0.019304 0.831973
vn -0.554536 0.043226 0.831036
vn -0.426204 0.242802 0.871434
vn 0.650326 -0.673711 0.350983
vn 0.019060 -0.700323 0.713572
vn -0.016781 -0.700379 -0.713574
vn -0.799761 -0.433057 0.415744
vn -0.162335 -0.149359 0.975366
vn -0.353197 -0.837516 -0.416916
vn 0.248780 0.249284 -0.935930
vn -0.302022 -0.294506 -0.906669
vn 0.272707 -0.126305 -0.953770
vn 0.038245 0.834517 -0.549653
vn 0.583524 0.572379 -0.576092
vn 0.136709 -0.259299 0.956073
vn 0.024582 0.835031 0.549653
vn 0.411786 0.411982 0.812836
vn 0.707223 0.006696 0.706959
vn 0.429897 0.400605 0.809138
vn 0.554766 0.006376 0.831982
vn 0.800084 0.007093 -0.599846
vn 0.707566 0.005272 -0.706628
vn 0.707039 0.000318 0.707175
vn 0.806451 -0.249101 0.536271
vn 0.912626 0.365235 0.183623
vn 0.706463 0.707362 -0.023433
vn 0.824529 -0.385861 -0.413840
vn -0.411616 0.612420 0.674918
vn -0.271394 0.130464 0.953585
vn 0.173585 0.871790 0.458094
vn 0.000190 -0.896105 0.443842
vn 0.333660 -0.662890 -0.670259
vn -0.000373 -0.704057 -0.710143
vn -0.135777 0.275917 -0.951543
vn -0.506649 0.758905 -0.409109
vn 0.667708 -0.333879 0.665350
vn 0.671818 0.662744 0.330804
vn 0.225845 0.756413 -0.613867
vn 0.153464 0.511732 0.845328
vn -0.632008 0.704538 -0.322788
vn -0.027487 0.702091 0.711556
vn -0.061231 0.598818 -0.798541
vn -0.683404 -0.312314 0.659863
vn -0.707118 -0.010674 0.707015
vn -0.893807 -0.007486 -0.448389
vn -0.807195 -0.428071 -0.406438
vn -0.868999 -0.237615 0.434029
vn -0.026333 -0.895614 0.444053
vn 0.134153 0.276739 -0.951535
vn 0.270595 0.132421 0.953543
vn -0.874320 0.433025 0.219211
vn 0.666872 0.337253 -0.664486
vn 0.208845 0.925517 0.315914
vn -0.973716 0.161216 -0.160893
vn -0.707469 -0.010985 -0.706659
vn -0.799663 0.030253 -0.599686
vn -0.707101 -0.006021 0.707087
vn -0.813536 0.401645 0.420525
vn 0.014646 0.835136 0.549848
vn -0.348339 0.669107 0.656472
vn 0.632733 -0.695021 0.341460
vn 0.017473 -0.700506 0.713433
vn -0.707162 0.012082 -0.706948
vn -0.359294 -0.832956 -0.420823
vn -0.808819 -0.412016 0.419589
vn -0.197362 0.467106 -0.861893
vn -0.005075 0.835166 -0.549975
vn -0.669444 0.342273 -0.659313
vn 0.546416 -0.595039 -0.589371
vn -0.017474 -0.700416 -0.713521
vn -0.555080 0.004947 -0.831782
vn -0.707289 0.012021 0.706823
vn 0.707087 0.019995 -0.706844
vn -0.373301 -0.647057 -0.664804
vn -0.020469 -0.703545 -0.710356
vn -0.553514 0.012010 -0.832754
vn 0.135917 0.689797 -0.711131
vn 0.681346 0.167127 0.712626
vn 0.696118 0.090373 -0.712216
vn -0.799656 0.009120 0.600389
vn -0.551137 0.610554 0.568746
vn 0.796333 0.508636 -0.327326
vn 0.706954 0.024022 -0.706852
vn 0.857076 0.038442 0.513754
vn -0.706935 -0.021141 -0.706963
vn -0.857524 -0.017324 0.514153
vn -0.708631 0.705579 0.000423
vn 0.557457 -0.572388 -0.601343
vn 0.000020 -0.007635 0.999971
vn -0.073991 0.892591 -0.444754
vn 0.000006 -0.007614 0.999971

g 1101_t.obj/AnonymousMesh0
f 3//3 2//2 1//1
f 3//3 4//4 1//1
f 5//5 6//6 7//7
f 9//9 2//2 8//8
f 8//8 10//10 9//9
f 11//11 12//12 7//7
f 13//13 14//14 15//15
f 16//16 17//17 77//77
f 18//18 19//19 20//20
f 43//43 16//16 21//21
f 22//22 23//23 40//40
f 24//24 25//25 26//26
f 27//27 28//28 31//31
f 29//29 31//31 26//26
f 30//30 31//31 32//32
f 33//33 34//34 31//31
f 31//31 28//28 35//35
f 36//36 37//37 34//34
f 37//37 38//38 34//34
f 27//27 25//25 28//28
f 39//39 28//28 36//36
f 28//28 39//39 35//35
f 39//39 41//41 40//40
f 41//41 30//30 86//86
f 18//18 42//42 75//75
f 19//19 18//18 91//91
f 43//43 44//44 45//45
f 16//16 45//45 17//17
f 17//17 45//45 46//46
f 42//42 20//20 47//47
f 48//48 49//49 50//50
f 44//44 51//51 49//49
f 52//52 53//53 54//54
f 55//55 49//49 48//48
f 54//54 45//45 49//49
f 52//52 56//56 51//51
f 57//57 58//58 59//59
f 60//60 61//61 62//62
f 63//63 64//64 65//65
f 66//66 67//67 68//68
f 69//69 70//70 71//71
f 72//72 73//73 70//70
f 66//66 69//69 74//74
f 70//70 67//67 71//71
f 64//64 63//63 70//70
f 75//75 66//66 74//74
f 23//23 22//22 76//76
f 14//14 13//13 74//74
f 77//77 78//78 71//71
f 77//77 71//71 67//67
f 79//79 80//80 35//35
f 81//81 35//35 82//82
f 83//83 84//84 85//85
f 86//86 87//87 79//79
f 87//87 32//32 88//88
f 89//89 90//90 32//32
f 89//89 32//32 81//81
f 84//84 90//90 82//82
f 91//91 74//74 13//13
f 81//81 82//82 90//90
f 29//29 26//26 25//25
f 80//80 79//79 87//87
f 39//39 36//36 33//33
f 92//92 82//82 35//35
f 38//38 28//28 25//25
f 37//37 36//36 28//28
f 23//23 79//79 35//35
f 30//30 33//33 31//31
f 34//34 93//93 31//31
f 83//83 32//32 90//90
f 86//86 32//32 87//87
f 63//63 68//68 70//70
f 94//94 95//95 68//68
f 60//60 62//62 96//96
f 94//94 69//69 95//95
f 73//73 62//62 61//61
f 73//73 61//61 70//70
f 72//72 69//69 62//62
f 55//55 50//50 97//97
f 57//57 59//59 98//98
f 55//55 97//97 54//54
f 99//99 52//52 54//54
f 20//20 54//54 47//47
f 47//47 53//53 51//51
f 60//60 96//96 100//100
f 100//100 65//65 64//64
f 100//100 64//64 70//70
f 101//101 100//100 61//61
f 94//94 65//65 69//69
f 62//62 69//69 96//96
f 50//50 59//59 58//58
f 56//56 99//99 98//98
f 56//56 49//49 51//51
f 50//50 49//49 59//59
f 97//97 58//58 54//54
f 54//54 58//58 99//99
f 59//59 49//49 98//98
f 102//102 99//99 58//58
f 61//61 100//100 70//70
f 65//65 96//96 69//69
f 42//42 103//103 105//105
f 47//47 104//104 103//103
f 104//104 40//40 41//41
f 103//103 41//41 76//76
f 75//75 105//105 66//66
f 106//106 76//76 22//22
f 21//21 106//106 43//43
f 106//106 22//22 104//104
f 43//43 104//104 44//44
f 42//42 47//47 103//103
f 21//21 67//67 106//106
f 106//106 66//66 105//105
f 17//17 46//46 107//107
f 46//46 15//15 14//14
f 19//19 15//15 20//20
f 20//20 46//46 45//45
f 107//107 14//14 74//74
f 78//78 107//107 71//71
f 88//88 83//83 92//92
f 80//80 92//92 35//35
f 88//88 32//32 83//83
f 26//26 31//31 93//93
f 108//108 93//93 24//24
f 37//37 28//28 38//38
f 11//11 12//12 109//109
f 38//38 24//24 93//93
f 108//108 26//26 93//93
f 80//80 88//88 92//92
f 71//71 107//107 74//74
f 15//15 46//46 20//20
f 107//107 46//46 14//14
f 78//78 17//17 107//107
f 67//67 66//66 106//106
f 40//40 104//104 22//22
f 104//104 43//43 106//106
f 105//105 76//76 106//106
f 105//105 103//103 76//76
f 103//103 104//104 41//41
f 44//44 104//104 47//47
f 75//75 42//42 105//105
f 56//56 98//98 49//49
f 52//52 99//99 56//56
f 97//97 50//50 58//58
f 96//96 65//65 100//100
f 101//101 60//60 100//100
f 44//44 47//47 51//51
f 53//53 47//47 54//54
f 48//48 50//50 55//55
f 110//110 72//72 62//62
f 72//72 110//110 73//73
f 110//110 62//62 73//73
f 63//63 94//94 68//68
f 84//84 83//83 90//90
f 24//24 38//38 25//25
f 85//85 82//82 92//92
f 30//30 39//39 33//33
f 88//88 80//80 87//87
f 27//27 29//29 25//25
f 89//89 81//81 90//90
f 85//85 84//84 82//82
f 35//35 81//81 32//32
f 23//23 86//86 79//79
f 92//92 83//83 85//85
f 21//21 77//77 67//67
f 86//86 23//23 76//76
f 91//91 75//75 74//74
f 68//68 67//67 70//70
f 95//95 69//69 66//66
f 69//69 72//72 70//70
f 74//74 69//69 71//71
f 95//95 66//66 68//68
f 94//94 63//63 65//65
f 101//101 61//61 60//60
f 102//102 58//58 57//57
f 102//102 98//98 99//99
f 57//57 98//98 102//102
f 53//53 52//52 51//51
f 20//20 45//45 54//54
f 54//54 49//49 55//55
f 45//45 44//44 49//49
f 18//18 20//20 42//42
f 16//16 43//43 45//45
f 13//13 19//19 91//91
f 91//91 18//18 75//75
f 76//76 41//41 86//86
f 30//30 41//41 39//39
f 23//23 35//35 39//39
f 93//93 34//34 38//38
f 33//33 36//36 34//34
f 32//32 31//31 35//35
f 86//86 30//30 32//32
f 29//29 27//27 31//31
f 108//108 24//24 26//26
f 39//39 40//40 23//23
f 77//77 21//21 16//16
f 78//78 77//77 17//17
f 19//19 13//13 15//15
f 5//5 7//7 111//111
