v -0.270164 0.387513 -0.106856
v -0.279840 0.329376 -0.100933
v -0.313217 0.331454 -0.094897
v -0.290972 0.387607 -0.100084
v -0.079135 0.203624 -0.094520
v 0.000000 0.263762 -0.105325
v -0.120479 0.281357 -0.105129
v 0.000000 0.418757 -0.121670
v -0.156717 0.399010 -0.116819
v -0.239496 0.316118 -0.103430
v -0.154661 0.495977 -0.122109
v -0.263478 0.553413 -0.105246
v -0.350359 0.451591 -0.099803
v 0.000000 0.575716 -0.116538
v -0.257998 0.666306 -0.089564
v -0.125641 0.575063 0.054695
v 0.000114 0.645877 0.056988
v 0.000000 0.571562 0.076579
v 0.125641 0.575063 0.054695
v 0.165809 0.643698 0.030031
v 0.066547 0.492480 0.078764
v -0.066547 0.492480 0.078764
v 0.000000 0.490770 0.091078
v 0.000000 0.418754 0.102153
v -0.171497 0.324244 0.059649
v -0.173599 0.227756 0.057313
v -0.128917 0.273165 0.077450
v -0.133047 0.289356 0.078512
v -0.133047 0.299515 0.090284
v -0.181681 0.395169 0.057709
v -0.090841 0.406962 0.079941
v -0.070414 0.331847 0.100280
v -0.070414 0.321688 0.092541
v 0.000000 0.291160 0.066086
v 0.000000 0.281001 0.057742
v -0.270164 0.387513 0.036094
v 0.000000 0.250512 0.045562
v -0.101848 0.175897 0.019435
v 0.101848 0.175897 0.019435
v 0.128917 0.273165 0.077450
v 0.070414 0.331847 0.100280
v 0.070414 0.321688 0.092541
v 0.133047 0.289356 0.078512
v 0.090841 0.406962 0.079941
v 0.133047 0.299515 0.090284
v 0.182385 0.350669 0.065697
v 0.175855 0.361293 0.065035
v 0.199354 0.345058 0.052804
v 0.188983 0.364217 0.052825
v 0.181681 0.395169 0.057709
v 0.234002 0.309400 0.041738
v 0.270164 0.387513 0.036094
v 0.173599 0.227756 0.057313
v 0.290972 0.387607 0.020396
v 0.313219 0.331456 0.015596
v -0.290972 0.387607 0.020396
v -0.313217 0.331454 0.015596
v -0.234002 0.309400 0.041738
v 0.079135 0.203624 -0.094520
v 0.120479 0.281357 -0.105129
v 0.239497 0.316118 -0.103430
v 0.203888 0.188921 -0.092439
v 0.156717 0.399010 -0.116819
v 0.065348 0.133686 -0.072276
v 0.270164 0.387513 -0.106856
v 0.290972 0.387607 -0.100084
v 0.313219 0.331456 -0.094897
v 0.350359 0.451591 -0.099803
v 0.263478 0.553413 -0.105246
v 0.154661 0.495977 -0.122109
v 0.165809 0.643698 -0.109516
v 0.257998 0.666306 -0.089564
v -0.231726 0.531988 0.055033
v -0.350359 0.451591 0.010394
v -0.173476 0.495690 0.073915
v -0.104425 0.460832 0.090319
v 0.104425 0.460832 0.090319
v 0.173476 0.495690 0.073915
v 0.231726 0.531988 0.055033
v 0.257998 0.666306 -0.005434
v 0.350359 0.451591 0.010394
v 0.000000 0.170069 -0.014303
v -0.065348 0.133686 -0.020192
v -0.065348 0.133686 -0.072276
v 0.000000 0.170069 -0.077672
v -0.165809 0.643698 0.030031
v -0.138210 0.731153 0.014666
v -0.138210 0.731153 -0.100042
v -0.165809 0.643698 -0.109516
v -0.342871 0.237501 -0.085433
v -0.386145 0.000000 -0.049491
v -0.329959 0.125603 -0.079589
v -0.288684 0.098912 -0.075276
v -0.166173 0.128407 -0.079589
v -0.258998 0.069558 -0.069323
v -0.236001 0.050862 -0.058757
v -0.203888 0.188921 -0.092439
v -0.297326 0.226159 -0.088565
v 0.000000 0.644476 -0.112042
v 0.000000 0.729617 -0.103073
v 0.000000 0.817348 -0.090605
v -0.100977 0.820041 -0.086923
v 0.000000 0.895311 -0.074879
v 0.000000 1.000000 -0.049491
v -0.499124 0.703056 -0.049491
v -0.418506 0.692818 -0.061802
v -0.426893 0.656997 -0.070207
v -0.454375 0.601503 -0.078164
v 0.138210 0.731153 0.014666
v 0.000000 0.731423 0.035863
v 0.000000 0.816711 0.013129
v -0.100977 0.820041 -0.003135
v 0.000000 0.892355 -0.011852
v -0.062962 0.895237 -0.022347
v 0.062962 0.895237 -0.022347
v 0.100977 0.820041 -0.003135
v 0.178808 0.120714 0.002961
v 0.233354 0.162949 0.031280
v 0.277059 0.328331 0.029485
v 0.259894 0.069527 -0.019147
v 0.236001 0.050862 -0.039291
v 0.331265 0.124847 -0.009341
v 0.294410 0.098912 0.000701
v 0.065348 0.133686 -0.020192
v 0.342871 0.237501 -0.001381
v -0.178808 0.120714 0.002961
v -0.236001 0.050862 -0.039291
v -0.259894 0.069527 -0.019147
v -0.294410 0.098912 0.000701
v -0.331265 0.124847 -0.009341
v -0.362824 0.144270 -0.018298
v -0.277058 0.328330 0.029485
v -0.290988 0.206238 0.014088
v -0.233353 0.162949 0.031280
v 0.166173 0.128407 -0.079589
v 0.236001 0.050862 -0.058757
v 0.258998 0.069558 -0.069323
v 0.386145 0.000000 -0.049491
v 0.288684 0.098912 -0.075276
v 0.329959 0.125603 -0.079589
v 0.362824 0.144270 -0.074248
v 0.279841 0.329377 -0.100933
v 0.297326 0.226159 -0.088565
v 0.138210 0.731153 -0.100042
v 0.100977 0.820041 -0.086923
v 0.062962 0.895237 -0.072446
v 0.408114 0.524949 -0.091173
v 0.499124 0.703056 -0.049491
v 0.454375 0.601503 -0.078164
v 0.426893 0.656997 -0.070207
v 0.418506 0.692818 -0.061802
v -0.454375 0.601503 -0.021866
v -0.423675 0.653821 -0.018980
v -0.289977 0.568285 0.034694
v -0.408114 0.524949 -0.002981
v 0.418506 0.692818 -0.035695
v 0.423675 0.653821 -0.018980
v 0.454375 0.601503 -0.021866
v -0.418506 0.692818 -0.035695
v -0.362824 0.144270 -0.074248
v -0.408114 0.524949 -0.091173
v -0.149891 0.090056 -0.029302
v -0.149891 0.090056 -0.065427
v 0.149891 0.090056 -0.029302
v 0.149891 0.090056 -0.065427
v -0.062962 0.895237 -0.072446
v 0.342871 0.237501 -0.085433
v -0.354663 0.610933 -0.088523
v -0.335517 0.680963 -0.074470
v 0.290988 0.206238 0.014088
v 0.362824 0.144270 -0.018298
v -0.342871 0.237501 -0.001381
v 0.335517 0.680963 -0.074470
v 0.354663 0.610933 -0.088523
v -0.357419 0.612388 0.008145
v 0.289977 0.568285 0.034694
v 0.408114 0.524949 -0.002981
v 0.357419 0.612394 0.008145
v 0.335517 0.680963 -0.021360
v -0.335517 0.680963 -0.021360
v -0.257998 0.666306 -0.005434
v 0.271631 0.567647 0.049714
v 0.211626 0.493562 0.064953
v 0.196765 0.573964 0.070317
v 0.086170 0.515479 0.095962
v 0.148668 0.421410 0.079613
v 0.089740 0.365673 0.093433
v 0.041930 0.394016 0.101817
v 0.000000 0.477890 0.104710
v 0.000000 0.416258 0.105955
v 0.329429 0.648270 0.031774
v 0.148668 0.421410 0.095767
v 0.089740 0.365673 0.109588
v 0.211626 0.493562 0.081107
v 0.271631 0.567647 0.065869
v 0.329429 0.648270 0.047929
v 0.196765 0.573964 0.086472
v 0.086170 0.515479 0.112116
v 0.000000 0.477890 0.120864
v -0.086168 0.515479 0.095962
v -0.086168 0.515479 0.112116
v -0.196763 0.573964 0.086472
v -0.196763 0.573964 0.070317
v -0.329432 0.648270 0.031774
v -0.329432 0.648270 0.047929
v 0.041930 0.394016 0.117971
v 0.000000 0.416258 0.122109
v -0.041928 0.394016 0.117971
v -0.089737 0.365673 0.109588
v -0.148670 0.421410 0.095767
v -0.211627 0.493562 0.081107
v -0.271631 0.567647 0.065869
v -0.041928 0.394016 0.101817
v -0.089737 0.365673 0.093433
v -0.211627 0.493562 0.064953
v -0.271631 0.567647 0.049714
v -0.148670 0.421410 0.079613
vn -0.159276 -0.063102 -0.985215
vn -0.128248 -0.080749 -0.988449
vn -0.754903 0.192204 -0.627040
vn -0.862984 -0.049165 -0.502833
vn 0.039014 -0.224472 -0.973699
vn 0.000000 -0.178833 -0.983879
vn -0.024715 -0.117185 -0.992803
vn 0.000000 -0.057695 -0.998334
vn -0.050038 -0.081154 -0.995445
vn -0.073071 -0.098465 -0.992454
vn -0.073673 0.033817 -0.996709
vn -0.104825 0.094543 -0.989987
vn -0.599491 -0.483796 -0.637614
vn 0.000000 0.060781 -0.998151
vn 0.039251 0.744868 -0.666056
vn -0.104424 0.257810 0.960536
vn 0.000076 0.249429 0.968393
vn 0.000006 0.199973 0.979801
vn 0.104466 0.257712 0.960558
vn 0.202864 0.552027 0.808773
vn 0.092213 0.224265 0.970156
vn -0.092213 0.224265 0.970156
vn -0.000000 0.164333 0.986405
vn -0.000000 0.034325 0.999411
vn -0.465509 -0.134261 0.874800
vn -0.115423 -0.262793 0.957923
vn -0.087398 -0.321292 0.942938
vn -0.236961 -0.495331 0.835761
vn -0.380756 -0.228052 0.896112
vn -0.317555 -0.066359 0.945915
vn -0.238614 0.020480 0.970899
vn 0.044043 -0.339545 0.939558
vn 0.037359 -0.497090 0.866894
vn 0.008878 -0.497174 0.867605
vn -0.005268 -0.513330 0.858175
vn -0.362585 -0.071885 0.929174
vn -0.000000 -0.486608 0.873620
vn 0.176964 -0.519929 0.835678
vn -0.176964 -0.519929 0.835678
vn -0.018028 -0.350903 0.936238
vn -0.004572 -0.315722 0.948841
vn -0.095850 -0.522925 0.846972
vn 0.343796 -0.282614 0.895508
vn 0.250740 0.073133 0.965288
vn 0.204460 -0.353818 0.912693
vn 0.547276 0.021474 0.836676
vn 0.507716 0.247347 0.825254
vn 0.444919 0.101239 0.889830
vn 0.440164 0.095204 0.892856
vn 0.320667 -0.067436 0.944788
vn 0.318296 -0.056307 0.946318
vn 0.343012 -0.064233 0.937132
vn 0.109894 -0.293786 0.949533
vn 0.925641 -0.043362 0.375911
vn 0.825706 0.203211 0.526227
vn -0.876004 -0.302667 0.375512
vn -0.821863 0.216825 0.526809
vn -0.302040 -0.060469 0.951376
vn -0.039014 -0.224472 -0.973699
vn 0.024715 -0.117185 -0.992803
vn 0.073072 -0.098465 -0.992454
vn 0.031949 -0.142695 -0.989251
vn 0.050038 -0.081154 -0.995445
vn -0.341912 -0.731424 -0.590012
vn 0.159276 -0.063100 -0.985215
vn 0.802344 -0.328804 -0.498128
vn 0.750489 0.206906 -0.627659
vn 0.610735 -0.469998 -0.637264
vn 0.104825 0.094543 -0.989987
vn 0.073673 0.033817 -0.996709
vn 0.338179 0.353472 -0.872177
vn -0.051186 0.743319 -0.666976
vn -0.249122 0.161981 0.954830
vn -0.662357 -0.420661 0.619942
vn -0.196316 0.094795 0.975948
vn -0.125226 0.053571 0.990681
vn 0.125226 0.053571 0.990681
vn 0.196316 0.094795 0.975948
vn 0.249122 0.161981 0.954830
vn -0.034544 0.832469 0.552994
vn 0.654154 -0.432003 0.620851
vn 0.083275 -0.836214 0.542044
vn 0.388435 -0.809214 0.440785
vn 0.347761 -0.728534 -0.590171
vn -0.090378 -0.698636 -0.709746
vn -0.372276 0.456231 0.808248
vn -0.690617 0.383169 0.613376
vn -0.662167 0.319884 -0.677650
vn -0.128655 0.471474 -0.872445
vn -0.737319 0.107055 -0.667008
vn -0.389987 -0.915502 -0.098826
vn -0.102467 -0.120126 -0.987457
vn -0.014737 -0.173859 -0.984660
vn 0.057525 -0.268480 -0.961566
vn 0.048846 -0.299157 -0.952953
vn 0.288512 -0.777374 -0.558973
vn -0.031949 -0.142695 -0.989251
vn -0.084362 -0.093670 -0.992023
vn 0.000000 0.085022 -0.996379
vn -0.000000 0.119868 -0.992790
vn 0.000000 0.165862 -0.986149
vn -0.635810 0.400632 -0.659728
vn 0.000000 0.213684 -0.976903
vn 0.000000 0.999424 -0.033936
vn -0.676722 0.735442 -0.034239
vn -0.012617 0.683134 -0.730184
vn -0.116411 0.227058 -0.966899
vn -0.698943 -0.216216 -0.681710
vn 0.698813 0.365762 0.614718
vn 0.000034 0.238732 0.971085
vn -0.000000 0.275611 0.961269
vn -0.660318 0.455522 0.597058
vn 0.000000 0.319611 0.947549
vn -0.635850 0.502069 0.586192
vn 0.724612 0.509358 0.464212
vn 0.667916 0.442738 0.598223
vn -0.163195 -0.542694 0.823924
vn 0.132994 -0.292415 0.946998
vn 0.332676 -0.070450 0.940406
vn -0.111517 -0.545297 0.830792
vn -0.308957 -0.851399 0.423869
vn 0.340409 -0.118757 0.932748
vn 0.185137 -0.280425 0.941853
vn -0.393696 -0.806615 0.440881
vn 0.749948 0.067345 0.658059
vn 0.163195 -0.542694 0.823924
vn 0.277789 -0.816451 0.506202
vn 0.111517 -0.545297 0.830792
vn -0.185136 -0.280425 0.941853
vn -0.340409 -0.118757 0.932748
vn -0.886114 0.081856 0.456181
vn -0.332680 -0.070449 0.940405
vn -0.332425 -0.091063 0.938723
vn -0.132993 -0.292416 0.946998
vn -0.057525 -0.268480 -0.961566
vn -0.243833 -0.706323 -0.664570
vn -0.048846 -0.299157 -0.952953
vn 0.389987 -0.915502 -0.098826
vn 0.014737 -0.173859 -0.984660
vn 0.102467 -0.120126 -0.987457
vn 0.758613 0.070599 -0.647706
vn 0.128248 -0.080749 -0.988449
vn 0.084363 -0.093670 -0.992023
vn 0.653903 0.338787 -0.676486
vn 0.628049 0.414458 -0.658619
vn 0.604604 0.466762 -0.645436
vn 0.652054 -0.325996 -0.684509
vn 0.676722 0.735442 -0.034239
vn 0.587436 -0.112641 -0.801393
vn 0.116411 0.227058 -0.966899
vn -0.019471 0.787342 -0.616209
vn -0.677718 -0.155578 0.718675
vn -0.210593 0.268939 0.939852
vn -0.208989 0.209277 0.955263
vn -0.722763 -0.335213 0.604355
vn 0.012223 0.762930 0.646366
vn 0.210603 0.268941 0.939850
vn 0.756255 -0.242220 0.607789
vn 0.017995 0.839271 0.543415
vn -0.642266 0.028951 -0.765935
vn -0.637496 -0.350246 -0.686241
vn 0.375289 -0.863545 0.336822
vn 0.363010 -0.809606 -0.461260
vn -0.385184 -0.859128 0.336946
vn -0.352058 -0.814532 -0.461078
vn -0.710196 0.486139 -0.509205
vn 0.733030 0.127886 -0.668066
vn -0.099941 0.180923 -0.978406
vn 0.031126 0.771079 -0.635978
vn 0.332426 -0.091064 0.938723
vn 0.816619 0.038700 0.575878
vn -0.747164 0.083629 0.659358
vn -0.040825 0.770160 -0.636543
vn 0.099941 0.180923 -0.978406
vn -0.209449 0.253367 0.944424
vn 0.208980 0.209280 0.955264
vn 0.710173 -0.357850 0.606299
vn 0.209447 0.253375 0.944422
vn -0.035765 0.839569 0.542075
vn 0.044652 0.838831 0.542558
vn 0.045263 0.831403 0.553824
vn 0.566404 -0.570439 -0.594799
vn 0.243054 -0.380515 -0.892263
vn -0.452512 0.464711 -0.761102
vn -0.405611 0.545689 -0.733282
vn 0.581596 -0.664181 -0.469690
vn -0.229947 -0.757103 -0.611489
vn -0.363085 -0.475227 -0.801454
vn 0.000004 0.405801 -0.913961
vn 0.000010 -0.873917 -0.486075
vn 0.323984 0.473356 -0.819127
vn 0.554074 -0.366460 0.747468
vn 0.384003 -0.707804 0.592920
vn 0.740066 -0.540308 0.400462
vn 0.744742 -0.453720 0.489384
vn 0.504037 0.266674 0.821482
vn -0.170435 0.659715 0.731934
vn -0.031497 0.412080 0.910603
vn 0.000001 0.684259 0.729239
vn 0.405611 0.545687 -0.733284
vn 0.031502 0.412079 0.910603
vn 0.170433 0.659719 0.731932
vn 0.452506 0.464712 -0.761106
vn -0.323991 0.473342 -0.819132
vn -0.504033 0.266661 0.821488
vn -0.328291 -0.716763 0.615204
vn 0.000005 -0.655786 0.754947
vn 0.328300 -0.716758 0.615205
vn -0.383977 -0.707819 0.592920
vn -0.554064 -0.366464 0.747474
vn -0.740070 -0.540301 0.400463
vn -0.744735 -0.453729 0.489386
vn 0.363094 -0.475222 -0.801453
vn 0.229955 -0.757103 -0.611486
vn -0.243060 -0.380517 -0.892260
vn -0.566404 -0.570440 -0.594798
vn -0.581586 -0.664190 -0.469689

g 14924_t.obj/AnonymousMesh0
f 1//1 2//2 3//3
f 1//1 3//3 4//4
f 85//85 5//5 6//6
f 6//6 7//7 8//8
f 8//8 7//7 9//9
f 9//9 10//10 1//1
f 1//1 11//11 9//9
f 8//8 9//9 11//11
f 11//11 1//1 12//12
f 1//1 4//4 13//13
f 8//8 11//11 14//14
f 89//89 14//14 11//11
f 89//89 11//11 15//15
f 16//16 17//17 86//86
f 18//18 17//17 16//16
f 18//18 19//19 17//17
f 20//20 17//17 19//19
f 19//19 18//18 21//21
f 16//16 22//22 18//18
f 23//23 21//21 18//18
f 18//18 22//22 23//23
f 24//24 21//21 23//23
f 24//24 23//23 22//22
f 25//25 26//26 27//27
f 28//28 25//25 27//27
f 25//25 28//28 29//29
f 25//25 29//29 30//30
f 30//30 29//29 31//31
f 29//29 32//32 31//31
f 28//28 32//32 29//29
f 33//33 28//28 27//27
f 28//28 33//33 32//32
f 33//33 34//34 32//32
f 33//33 35//35 34//34
f 27//27 35//35 33//33
f 36//36 25//25 30//30
f 37//37 35//35 27//27
f 27//27 38//38 37//37
f 37//37 38//38 82//82
f 82//82 39//39 37//37
f 37//37 39//39 40//40
f 37//37 40//40 35//35
f 24//24 32//32 34//34
f 31//31 32//32 24//24
f 35//35 41//41 34//34
f 24//24 34//34 41//41
f 40//40 42//42 35//35
f 35//35 42//42 41//41
f 40//40 43//43 42//42
f 41//41 44//44 24//24
f 45//45 44//44 41//41
f 43//43 46//46 45//45
f 46//46 44//44 45//45
f 47//47 44//44 46//46
f 46//46 48//48 47//47
f 46//46 43//43 48//48
f 47//47 48//48 49//49
f 49//49 50//50 47//47
f 44//44 47//47 50//50
f 43//43 51//51 48//48
f 52//52 50//50 49//49
f 52//52 49//49 48//48
f 48//48 51//51 52//52
f 42//42 43//43 45//45
f 42//42 45//45 41//41
f 40//40 53//53 43//43
f 54//54 52//52 55//55
f 36//36 56//56 57//57
f 36//36 58//58 25//25
f 6//6 59//59 85//85
f 60//60 59//59 6//6
f 60//60 6//6 8//8
f 60//60 61//61 62//62
f 8//8 63//63 60//60
f 60//60 63//63 61//61
f 85//85 59//59 64//64
f 63//63 65//65 61//61
f 66//66 67//67 65//65
f 66//66 65//65 68//68
f 65//65 69//69 68//68
f 8//8 70//70 63//63
f 63//63 70//70 65//65
f 8//8 14//14 70//70
f 70//70 69//69 65//65
f 71//71 70//70 14//14
f 71//71 72//72 70//70
f 36//36 73//73 74//74
f 36//36 74//74 56//56
f 36//36 30//30 75//75
f 30//30 76//76 75//75
f 31//31 76//76 30//30
f 24//24 76//76 31//31
f 21//21 77//77 19//19
f 24//24 77//77 21//21
f 19//19 78//78 20//20
f 77//77 50//50 78//78
f 52//52 78//78 50//50
f 20//20 79//79 80//80
f 54//54 81//81 52//52
f 44//44 50//50 77//77
f 24//24 44//44 77//77
f 86//86 75//75 16//16
f 16//16 76//76 22//22
f 24//24 22//22 76//76
f 56//56 74//74 13//13
f 56//56 13//13 4//4
f 82//82 83//83 84//84
f 82//82 84//84 85//85
f 86//86 87//87 88//88
f 86//86 88//88 89//89
f 20//20 80//80 72//72
f 20//20 72//72 71//71
f 54//54 55//55 67//67
f 54//54 67//67 66//66
f 3//3 2//2 90//90
f 91//91 92//92 93//93
f 5//5 84//84 94//94
f 91//91 95//95 96//96
f 96//96 95//95 94//94
f 84//84 5//5 85//85
f 7//7 6//6 5//5
f 7//7 5//5 97//97
f 10//10 2//2 1//1
f 10//10 98//98 2//2
f 10//10 9//9 7//7
f 13//13 12//12 1//1
f 12//12 15//15 11//11
f 99//99 14//14 89//89
f 99//99 89//89 100//100
f 88//88 100//100 89//89
f 88//88 101//101 100//100
f 102//102 101//101 88//88
f 101//101 102//102 103//103
f 104//104 103//103 166//166
f 105//105 106//106 107//107
f 105//105 107//107 108//108
f 109//109 110//110 20//20
f 110//110 109//109 111//111
f 110//110 111//111 87//87
f 87//87 86//86 110//110
f 112//112 87//87 111//111
f 111//111 113//113 112//112
f 112//112 113//113 114//114
f 104//104 114//114 113//113
f 104//104 113//113 115//115
f 111//111 116//116 113//113
f 116//116 111//111 109//109
f 17//17 20//20 110//110
f 17//17 110//110 86//86
f 26//26 38//38 27//27
f 53//53 51//51 43//43
f 53//53 40//40 39//39
f 39//39 117//117 53//53
f 53//53 117//117 118//118
f 51//51 119//119 52//52
f 138//138 120//120 121//121
f 138//138 122//122 123//123
f 39//39 124//124 117//117
f 124//124 39//39 82//82
f 55//55 119//119 125//125
f 55//55 52//52 119//119
f 83//83 82//82 38//38
f 38//38 26//26 126//126
f 38//38 126//126 83//83
f 127//127 128//128 91//91
f 91//91 128//128 129//129
f 91//91 130//130 131//131
f 57//57 132//132 36//36
f 58//58 26//26 25//25
f 58//58 36//36 132//132
f 58//58 132//132 133//133
f 26//26 58//58 134//134
f 59//59 135//135 64//64
f 136//136 135//135 137//137
f 136//136 137//137 138//138
f 138//138 137//137 139//139
f 138//138 140//140 141//141
f 61//61 65//65 142//142
f 61//61 142//142 143//143
f 67//67 142//142 65//65
f 69//69 70//70 72//72
f 99//99 100//100 71//71
f 99//99 71//71 14//14
f 144//144 71//71 100//100
f 100//100 101//101 144//144
f 101//101 103//103 145//145
f 145//145 144//144 101//101
f 104//104 146//146 103//103
f 68//68 69//69 147//147
f 148//148 149//149 150//150
f 148//148 150//150 151//151
f 105//105 152//152 153//153
f 74//74 154//154 155//155
f 74//74 73//73 154//154
f 75//75 73//73 36//36
f 78//78 19//19 77//77
f 78//78 52//52 79//79
f 81//81 79//79 52//52
f 148//148 156//156 157//157
f 148//148 157//157 158//158
f 105//105 153//153 159//159
f 75//75 76//76 16//16
f 91//91 131//131 160//160
f 57//57 4//4 3//3
f 57//57 56//56 4//4
f 74//74 161//161 13//13
f 74//74 155//155 161//161
f 127//127 91//91 96//96
f 83//83 162//162 163//163
f 83//83 163//163 84//84
f 124//124 82//82 85//85
f 124//124 85//85 64//64
f 121//121 164//164 165//165
f 121//121 165//165 136//136
f 138//138 121//121 136//136
f 105//105 159//159 106//106
f 87//87 102//102 88//88
f 87//87 112//112 102//102
f 112//112 166//166 102//102
f 112//112 114//114 166//166
f 104//104 115//115 146//146
f 116//116 144//144 145//145
f 116//116 109//109 144//144
f 109//109 71//71 144//144
f 109//109 20//20 71//71
f 148//148 158//158 149//149
f 81//81 66//66 68//68
f 81//81 54//54 66//66
f 55//55 167//167 67//67
f 55//55 125//125 167//167
f 90//90 2//2 98//98
f 90//90 98//98 160//160
f 160//160 98//98 92//92
f 93//93 92//92 98//98
f 160//160 92//92 91//91
f 97//97 93//93 98//98
f 97//97 94//94 93//93
f 97//97 5//5 94//94
f 163//163 94//94 84//84
f 163//163 96//96 94//94
f 93//93 94//94 95//95
f 93//93 95//95 91//91
f 98//98 10//10 97//97
f 97//97 10//10 7//7
f 161//161 12//12 13//13
f 166//166 103//103 102//102
f 168//168 12//12 161//161
f 169//169 12//12 168//168
f 15//15 12//12 169//169
f 169//169 168//168 106//106
f 161//161 108//108 168//168
f 107//107 106//106 168//168
f 168//168 108//108 107//107
f 113//113 116//116 115//115
f 118//118 51//51 53//53
f 117//117 120//120 118//118
f 118//118 120//120 123//123
f 170//170 51//51 118//118
f 118//118 123//123 170//170
f 170//170 119//119 51//51
f 123//123 120//120 138//138
f 120//120 117//117 121//121
f 122//122 170//170 123//123
f 171//171 122//122 138//138
f 125//125 122//122 171//171
f 170//170 122//122 125//125
f 125//125 119//119 170//170
f 164//164 121//121 117//117
f 164//164 117//117 124//124
f 162//162 83//83 126//126
f 162//162 126//126 127//127
f 126//126 26//26 134//134
f 134//134 128//128 126//126
f 128//128 127//127 126//126
f 129//129 128//128 134//134
f 134//134 133//133 129//129
f 129//129 130//130 91//91
f 130//130 129//129 133//133
f 131//131 130//130 172//172
f 172//172 130//130 133//133
f 133//133 132//132 172//172
f 172//172 132//132 57//57
f 134//134 58//58 133//133
f 62//62 59//59 60//60
f 62//62 61//61 143//143
f 62//62 143//143 139//139
f 62//62 139//139 135//135
f 135//135 59//59 62//62
f 165//165 64//64 135//135
f 165//165 135//135 136//136
f 139//139 137//137 135//135
f 139//139 140//140 138//138
f 139//139 143//143 140//140
f 141//141 140//140 143//143
f 167//167 141//141 143//143
f 143//143 142//142 167//167
f 167//167 142//142 67//67
f 173//173 69//69 72//72
f 146//146 145//145 103//103
f 174//174 69//69 173//173
f 147//147 69//69 174//174
f 147//147 174//174 149//149
f 150//150 149//149 174//174
f 174//174 151//151 150//150
f 173//173 151//151 174//174
f 153//153 152//152 175//175
f 155//155 175//175 152//152
f 155//155 154//154 175//175
f 79//79 20//20 78//78
f 176//176 80//80 79//79
f 176//176 79//79 81//81
f 177//177 176//176 81//81
f 178//178 176//176 177//177
f 80//80 176//176 179//179
f 178//178 179//179 176//176
f 179//179 178//178 156//156
f 177//177 158//158 178//178
f 178//178 158//158 157//157
f 157//157 156//156 178//178
f 175//175 159//159 153//153
f 180//180 159//159 175//175
f 175//175 154//154 180//180
f 180//180 154//154 181//181
f 154//154 73//73 181//181
f 181//181 73//73 86//86
f 73//73 75//75 86//86
f 131//131 90//90 160//160
f 131//131 172//172 90//90
f 172//172 3//3 90//90
f 172//172 57//57 3//3
f 155//155 108//108 161//161
f 155//155 152//152 108//108
f 152//152 105//105 108//108
f 162//162 127//127 96//96
f 162//162 96//96 163//163
f 164//164 124//124 64//64
f 164//164 64//64 165//165
f 159//159 169//169 106//106
f 159//159 180//180 169//169
f 180//180 15//15 169//169
f 180//180 181//181 15//15
f 181//181 89//89 15//15
f 181//181 86//86 89//89
f 114//114 104//104 166//166
f 115//115 145//145 146//146
f 115//115 116//116 145//145
f 80//80 173//173 72//72
f 80//80 179//179 173//173
f 179//179 151//151 173//173
f 179//179 156//156 151//151
f 156//156 148//148 151//151
f 158//158 147//147 149//149
f 158//158 177//177 147//147
f 177//177 68//68 147//147
f 177//177 81//81 68//68
f 125//125 141//141 167//167
f 125//125 171//171 141//141
f 171//171 138//138 141//141
f 182//182 183//183 184//184
f 185//185 184//184 183//183
f 185//185 183//183 186//186
f 186//186 187//187 185//185
f 187//187 188//188 185//185
f 185//185 188//188 189//189
f 189//189 188//188 190//190
f 184//184 191//191 182//182
f 186//186 192//192 193//193
f 187//187 186//186 193//193
f 186//186 194//194 192//192
f 183//183 194//194 186//186
f 183//183 182//182 194//194
f 182//182 195//195 194//194
f 182//182 191//191 195//195
f 191//191 196//196 195//195
f 191//191 197//197 196//196
f 184//184 197//197 191//191
f 184//184 185//185 197//197
f 185//185 198//198 197//197
f 185//185 199//199 198//198
f 189//189 199//199 185//185
f 200//200 199//199 189//189
f 201//201 199//199 200//200
f 202//202 201//201 200//200
f 202//202 200//200 203//203
f 204//204 202//202 203//203
f 205//205 202//202 204//204
f 194//194 195//195 197//197
f 194//194 197//197 192//192
f 198//198 192//192 197//197
f 195//195 196//196 197//197
f 192//192 198//198 193//193
f 206//206 193//193 198//198
f 198//198 199//199 206//206
f 207//207 206//206 199//199
f 199//199 208//208 207//207
f 208//208 199//199 201//201
f 201//201 209//209 208//208
f 209//209 201//201 210//210
f 202//202 210//210 201//201
f 210//210 202//202 211//211
f 202//202 212//212 211//211
f 202//202 205//205 212//212
f 190//190 206//206 207//207
f 188//188 206//206 190//190
f 188//188 187//187 206//206
f 187//187 193//193 206//206
f 207//207 208//208 190//190
f 190//190 208//208 213//213
f 208//208 214//214 213//213
f 208//208 209//209 214//214
f 203//203 215//215 216//216
f 215//215 203//203 200//200
f 217//217 215//215 200//200
f 200//200 214//214 217//217
f 189//189 213//213 200//200
f 190//190 213//213 189//189
f 200//200 213//213 214//214
f 216//216 204//204 203//203
f 209//209 210//210 217//217
f 209//209 217//217 214//214
f 210//210 211//211 217//217
f 217//217 211//211 215//215
f 211//211 216//216 215//215
f 211//211 212//212 216//216
f 212//212 204//204 216//216
f 212//212 205//205 204//204
