v -0.272410 0.334438 -0.001602
v -0.175790 0.361756 0.001923
v -0.172212 0.322041 -0.029549
v -0.173427 0.320668 0.024737
v 0.272410 0.334438 -0.001602
v 0.172212 0.322041 -0.029549
v 0.173968 0.363375 0.001585
v 0.170739 0.321416 0.024123
v -0.175539 0.255371 -0.083016
v 0.138692 0.356384 0.135607
v -0.170101 0.244017 0.120801
v -0.138692 0.356384 0.135607
v -0.004459 0.362500 0.189838
v 0.000000 0.673970 0.020004
v 0.062792 0.594660 0.012521
v 0.090091 0.563557 0.001138
v 0.000000 0.245603 0.190855
v 0.000000 0.120323 0.124104
v 0.178648 0.244385 0.121364
v -0.090091 0.563557 0.001138
v -0.062792 0.594660 0.012521
v 0.225978 0.715805 -0.102973
v 0.230861 0.653990 -0.143310
v 0.173895 0.255138 -0.083365
v -0.225978 0.715805 -0.102973
v -0.230861 0.653990 -0.143310
v 0.134738 0.121968 0.067284
v -0.101568 0.359096 -0.097966
v 0.000000 0.247212 -0.190855
v 0.000498 0.345110 -0.132899
v 0.000000 0.662133 -0.024732
v 0.101568 0.359096 -0.097966
v 0.000000 0.754551 0.004889
v -0.013800 0.664522 0.000853
v -0.005656 0.754551 -0.000708
v 0.000000 0.833157 0.005768
v -0.006493 0.833157 -0.001053
v 0.000000 0.858595 0.010309
v -0.006949 0.858595 -0.001256
v 0.013800 0.664522 0.000853
v 0.005656 0.754551 -0.000708
v 0.000000 0.754551 -0.007006
v 0.006493 0.833157 -0.001053
v 0.000000 0.833157 -0.007885
v 0.006949 0.858595 -0.001256
v 0.000000 0.858595 -0.012683
v 0.000000 0.085065 0.007577
v 0.126298 0.126029 -0.067834
v -0.126298 0.126029 -0.067834
v 0.063931 0.000000 -0.005486
v -0.134738 0.121968 0.067284
v -0.063931 0.000000 -0.005486
v -0.000910 1.000000 -0.062519
v -0.082124 0.915239 -0.003015
v -0.000910 0.939838 0.065064
v 0.088039 0.915239 -0.003015
vn -0.973068 0.193577 0.125165
vn -0.845535 0.520472 -0.119074
vn -0.812258 0.150052 -0.563668
vn -0.952576 -0.030355 0.302782
vn 0.978316 0.125786 0.164548
vn 0.885237 0.142627 -0.442733
vn 0.852060 0.508889 -0.122581
vn 0.923113 -0.006209 0.384479
vn -0.930420 -0.031914 -0.365103
vn 0.769020 0.341285 0.540493
vn -0.745910 -0.168745 0.644316
vn -0.770666 0.329539 0.545415
vn -0.010249 0.166231 0.986034
vn -0.003374 0.600346 0.799733
vn 0.791554 0.529371 0.305299
vn 0.915943 0.371830 0.150964
vn -0.009412 -0.240364 0.970637
vn -0.003738 -0.694113 0.719857
vn 0.816176 -0.112811 0.566684
vn -0.620415 0.602178 -0.502460
vn -0.781519 0.623559 -0.020038
vn 0.667553 -0.090435 0.739050
vn 0.770403 -0.304618 0.560078
vn 0.895241 -0.048031 -0.442987
vn 0.667553 0.090434 -0.739050
vn 0.770403 0.304618 -0.560078
vn 0.650025 -0.647285 0.398108
vn -0.567381 0.380005 -0.730531
vn 0.001280 -0.103689 -0.994609
vn 0.001264 0.418997 -0.907987
vn 0.000298 0.525923 -0.850532
vn 0.569116 0.378682 -0.729867
vn 0.000000 0.086355 0.996264
vn -0.940750 0.308529 0.140712
vn -0.996237 0.055569 0.066508
vn -0.000000 -0.064528 0.997916
vn -0.998633 -0.038921 -0.034886
vn -0.009878 -0.521709 0.853067
vn -0.895783 -0.409349 -0.173225
vn 0.940750 0.308529 0.140712
vn 0.996237 0.055569 0.066508
vn 0.000000 0.053671 -0.998559
vn 0.998633 -0.038921 -0.034886
vn -0.000000 -0.065160 -0.997875
vn 0.888741 -0.423983 -0.174294
vn -0.010842 -0.559712 -0.828617
vn -0.000000 -0.990137 -0.140101
vn 0.478502 -0.569699 -0.668191
vn -0.476231 -0.572421 -0.667487
vn 0.128293 -0.990526 -0.048972
vn -0.653048 -0.636007 0.411124
vn -0.128293 -0.990526 -0.048972
vn -0.039939 0.653069 -0.756245
vn -0.842884 -0.533540 0.069869
vn -0.027399 0.241038 0.970129
vn 0.823670 -0.561645 0.078249

g 18555_t.obj/AnonymousMesh0
f 1//1 2//2 3//3
f 4//4 2//2 1//1
f 3//3 4//4 1//1
f 5//5 6//6 7//7
f 8//8 6//6 5//5
f 7//7 8//8 5//5
f 4//4 3//3 9//9
f 10//10 8//8 7//7
f 11//11 4//4 9//9
f 12//12 4//4 11//11
f 13//13 12//12 11//11
f 14//14 12//12 13//13
f 10//10 14//14 13//13
f 15//15 14//14 10//10
f 16//16 15//15 10//10
f 17//17 11//11 18//18
f 13//13 11//11 17//17
f 19//19 13//13 17//17
f 10//10 13//13 19//19
f 8//8 10//10 19//19
f 12//12 2//2 4//4
f 20//20 2//2 12//12
f 21//21 20//20 12//12
f 22//22 16//16 23//23
f 15//15 16//16 22//22
f 19//19 6//6 8//8
f 24//24 6//6 19//19
f 21//21 25//25 20//20
f 20//20 25//25 26//26
f 27//27 24//24 19//19
f 19//19 18//18 27//27
f 17//17 18//18 19//19
f 21//21 12//12 14//14
f 10//10 7//7 16//16
f 28//28 29//29 9//9
f 30//30 29//29 28//28
f 31//31 30//30 28//28
f 32//32 30//30 31//31
f 16//16 32//32 31//31
f 7//7 32//32 16//16
f 33//33 34//34 14//14
f 35//35 34//34 33//33
f 36//36 35//35 33//33
f 37//37 35//35 36//36
f 38//38 37//37 36//36
f 39//39 37//37 38//38
f 40//40 33//33 14//14
f 41//41 33//33 40//40
f 31//31 41//41 40//40
f 42//42 41//41 31//31
f 35//35 42//42 31//31
f 37//37 42//42 35//35
f 41//41 36//36 33//33
f 43//43 36//36 41//41
f 42//42 43//43 41//41
f 44//44 43//43 42//42
f 37//37 44//44 42//42
f 39//39 44//44 37//37
f 43//43 38//38 36//36
f 45//45 38//38 43//43
f 44//44 45//45 43//43
f 2//2 28//28 3//3
f 20//20 28//28 2//2
f 32//32 29//29 30//30
f 24//24 29//29 32//32
f 6//6 32//32 7//7
f 24//24 32//32 6//6
f 31//31 15//15 16//16
f 40//40 15//15 31//31
f 20//20 31//31 28//28
f 21//21 31//31 20//20
f 34//34 21//21 14//14
f 31//31 21//21 34//34
f 46//46 44//44 39//39
f 45//45 44//44 46//46
f 9//9 3//3 28//28
f 14//14 15//15 40//40
f 35//35 31//31 34//34
f 47//47 29//29 48//48
f 49//49 29//29 47//47
f 27//27 47//47 50//50
f 47//47 27//27 18//18
f 48//48 24//24 27//27
f 48//48 27//27 50//50
f 50//50 47//47 48//48
f 24//24 48//48 29//29
f 51//51 52//52 47//47
f 51//51 47//47 18//18
f 51//51 18//18 11//11
f 49//49 52//52 51//51
f 52//52 49//49 47//47
f 9//9 29//29 49//49
f 51//51 11//11 9//9
f 49//49 51//51 9//9
f 53//53 54//54 55//55
f 54//54 46//46 39//39
f 53//53 46//46 54//54
f 38//38 54//54 39//39
f 55//55 54//54 38//38
f 53//53 55//55 56//56
f 56//56 45//45 46//46
f 53//53 56//56 46//46
f 38//38 45//45 56//56
f 55//55 38//38 56//56
