v 0.320186 0.363238 0.005648
v 0.367965 0.398240 0.044393
v 0.320186 0.398214 0.045051
v 0.367965 0.363870 0.005673
v 0.320187 0.401120 -0.030886
v 0.367964 0.401095 -0.030227
v 0.320186 0.436096 0.008516
v 0.367964 0.435465 0.008492
v 0.500000 0.427229 0.046857
v 0.499989 0.363737 0.005575
v 0.499997 0.430174 -0.032699
v -0.112253 0.044542 -0.005495
v -0.089600 0.000000 0.025460
v -0.089702 0.044547 0.018997
v -0.066000 0.044542 -0.005495
v -0.061017 0.000472 -0.012752
v -0.089702 0.044534 -0.031696
v -0.117321 0.000472 -0.012752
v -0.367972 0.401094 -0.030232
v -0.320196 0.436095 0.008512
v -0.320196 0.401119 -0.030889
v -0.367972 0.435464 0.008487
v -0.500000 0.430172 -0.032697
v -0.500000 0.427227 0.046852
v -0.500000 0.365212 0.005575
v -0.367972 0.398238 0.044386
v -0.367972 0.363869 0.005668
v -0.320196 0.363237 0.005642
v -0.320196 0.398213 0.045045
v 0.089588 0.000000 0.025460
v 0.112241 0.044542 -0.005495
v 0.089690 0.044547 0.018997
v 0.065988 0.044542 -0.005495
v 0.117309 0.000472 -0.012752
v 0.089690 0.044534 -0.031696
v 0.061005 0.000472 -0.012752
v 0.064284 0.064557 -0.005404
v 0.079238 0.132690 0.054035
v 0.052556 0.087698 -0.005441
v 0.089668 0.064535 0.023047
v 0.074868 0.132518 -0.054915
v 0.089668 0.064590 -0.035586
v 0.122139 0.133256 -0.003608
v 0.111966 0.064557 -0.005404
v -0.000006 0.432334 0.175370
v 0.110809 0.231954 0.083670
v 0.143994 0.432334 0.110767
v -0.000006 0.232947 0.142687
v -0.110821 0.231954 0.083670
v -0.144006 0.432334 0.110767
v -0.122151 0.133256 -0.003608
v -0.079250 0.132690 0.054035
v -0.140261 0.232314 0.002758
v -0.000006 0.132690 0.087233
v -0.000006 0.231523 -0.110137
v -0.074880 0.132518 -0.054915
v -0.000006 0.178927 -0.138939
v -0.000006 0.100417 -0.051969
v -0.000006 0.095612 -0.001164
v -0.052568 0.087698 -0.005441
v 0.185576 0.360267 0.040266
v 0.140249 0.232314 0.002758
v 0.174413 0.362948 -0.028793
v 0.136387 0.431903 -0.097070
v -0.185588 0.360267 0.040266
v -0.174424 0.362948 -0.028793
v -0.136399 0.431903 -0.097070
v -0.076316 0.689833 -0.047711
v -0.000006 0.631729 -0.134365
v -0.118981 0.631747 -0.086433
v 0.076304 0.689833 -0.047711
v -0.036465 0.720760 -0.008392
v 0.036453 0.720760 -0.008392
v -0.000006 0.755419 -0.001210
v -0.000006 0.720763 0.036835
v -0.000006 0.675827 0.114628
v -0.122751 0.675827 0.025193
v -0.139724 0.592251 0.101920
v -0.184855 0.534863 0.038052
v -0.193160 0.454287 0.048659
v 0.118969 0.631747 -0.086433
v 0.142073 0.534727 -0.096966
v 0.154160 0.631756 -0.028792
v 0.184843 0.534863 0.038052
v 0.123011 0.675508 0.025248
v 0.139712 0.592251 0.101920
v -0.000006 0.592251 0.163481
v 0.179325 0.456292 -0.035159
v -0.000006 0.534500 -0.170813
v -0.142085 0.534727 -0.096965
v -0.154172 0.631756 -0.028792
v 0.193148 0.454287 0.048659
v -0.179337 0.456292 -0.035159
v -0.000006 0.431383 -0.173748
v 0.169082 0.737962 -0.088715
v 0.116330 0.679368 -0.032975
v 0.187894 0.657220 -0.109807
v -0.116342 0.679368 -0.032975
v -0.169094 0.737962 -0.088715
v -0.187906 0.657220 -0.109807
v 0.237497 0.365817 0.006003
v 0.237496 0.398125 0.047369
v 0.237497 0.441092 0.008601
v 0.237498 0.401209 -0.033209
v -0.237508 0.401208 -0.033211
v -0.237508 0.365816 0.006001
v -0.237508 0.441092 0.008600
v -0.237508 0.398124 0.047366
v -0.064296 0.064557 -0.005404
v -0.089680 0.064590 -0.035586
v -0.089680 0.064535 0.023047
v -0.111978 0.064557 -0.005404
v 0.043193 0.480681 0.194808
v 0.073273 0.428143 0.140756
v 0.073274 0.481515 0.138768
v 0.043193 0.428977 0.194808
v 0.000946 0.429482 0.171726
v -0.015451 0.480176 0.171726
v 0.039102 0.496115 0.153049
v -0.073874 0.428143 0.140756
v -0.043205 0.480681 0.194808
v -0.073875 0.481514 0.138768
v -0.043205 0.428977 0.194808
v 0.015439 0.480176 0.171726
v -0.000957 0.429482 0.171726
v -0.039114 0.496115 0.153049
v -0.045174 0.176585 -0.154649
v -0.000006 0.166342 -0.107018
v -0.000006 0.199771 -0.162122
v -0.045174 0.130213 -0.139704
v -0.000006 0.163642 -0.194808
v -0.000006 0.117271 -0.179863
v 0.045162 0.176585 -0.154649
v 0.045162 0.130213 -0.139704
v -0.000006 0.107027 -0.132233
vn -0.004506 -0.988634 0.150275
vn -0.004424 -0.141783 0.989888
vn 0.010328 -0.255872 0.966656
vn 0.007397 -0.974009 -0.226387
vn 0.017725 -0.124083 -0.992114
vn -0.012492 0.080667 -0.996663
vn 0.028204 0.983407 0.179205
vn -0.069047 0.996869 0.038542
vn 0.453323 0.521502 0.722865
vn 0.433772 -0.900497 -0.030790
vn 0.449468 0.573052 -0.685266
vn -0.992290 0.008408 0.123649
vn -0.009772 -0.305017 0.952297
vn 0.204868 -0.039147 0.978006
vn 0.999971 0.006401 0.004147
vn 0.698638 -0.553995 -0.452763
vn -0.009236 -0.075630 -0.997093
vn -0.706102 -0.548877 -0.447386
vn 0.010246 0.078847 -0.996834
vn -0.028215 0.983404 0.179222
vn -0.017703 -0.124073 -0.992115
vn 0.069041 0.996868 0.038557
vn -0.451914 0.571197 -0.685206
vn -0.455903 0.519410 0.722748
vn -0.437267 -0.898802 -0.030869
vn 0.002359 -0.143676 0.989622
vn -0.011778 -0.973966 -0.226387
vn 0.004507 -0.988636 0.150265
vn -0.010360 -0.255877 0.966654
vn 0.009772 -0.305017 0.952297
vn 0.992290 0.008408 0.123649
vn -0.204868 -0.039147 0.978006
vn -0.999971 0.006401 0.004147
vn 0.706102 -0.548877 -0.447386
vn 0.009236 -0.075630 -0.997093
vn -0.698638 -0.553995 -0.452763
vn -0.940404 -0.315288 0.127410
vn 0.106930 -0.619845 0.777405
vn -0.377182 -0.925950 -0.018710
vn 0.394202 -0.219259 0.892486
vn 0.352083 -0.334152 -0.874288
vn 0.190225 -0.168016 -0.967257
vn 0.980578 -0.194558 0.024797
vn 0.997666 -0.066933 0.013529
vn -0.000000 -0.056075 0.998426
vn 0.648426 -0.308788 0.695840
vn 0.679185 -0.041167 0.732812
vn 0.000000 -0.329708 0.944083
vn -0.648426 -0.308789 0.695840
vn -0.679185 -0.041167 0.732812
vn -0.980578 -0.194558 0.024797
vn -0.106930 -0.619845 0.777405
vn -0.911193 -0.244695 -0.331440
vn 0.000000 -0.645798 0.763508
vn -0.092761 -0.139212 -0.985908
vn -0.352083 -0.334152 -0.874288
vn 0.000000 -0.332621 -0.943061
vn -0.000000 -0.885366 -0.464895
vn 0.000000 -0.946740 0.322000
vn 0.377182 -0.925950 -0.018710
vn 0.707863 -0.400137 0.582083
vn 0.879020 -0.266602 -0.395282
vn 0.584729 -0.506135 -0.633971
vn 0.635843 -0.159295 -0.755201
vn -0.685215 -0.507203 0.522710
vn -0.581608 -0.482783 -0.654716
vn -0.667161 -0.162252 -0.727028
vn -0.016658 0.866167 -0.499477
vn -0.000001 0.502539 -0.864554
vn -0.217003 0.125893 -0.968019
vn 0.013766 0.853428 -0.521028
vn -0.363372 0.911725 -0.191620
vn 0.383420 0.892433 -0.237806
vn 0.000000 0.999174 0.040637
vn 0.040545 0.849403 0.526185
vn -0.076414 0.746003 0.661544
vn -0.675923 0.692082 0.253279
vn -0.604104 0.311520 0.733494
vn -0.966006 0.220219 0.135409
vn -0.745719 0.333866 0.576574
vn 0.217002 0.125896 -0.968019
vn 0.736513 0.151322 -0.659281
vn 0.971430 0.221733 -0.084603
vn 0.966074 0.219981 0.135315
vn 0.639567 0.719530 0.270612
vn 0.604122 0.311422 0.733521
vn -0.000000 0.299323 0.954152
vn 0.778041 0.292302 -0.556068
vn 0.111171 0.149055 -0.982560
vn -0.708730 0.135298 -0.692384
vn -0.971416 0.221922 -0.084272
vn 0.858697 0.241891 0.451805
vn -0.778039 0.292302 -0.556071
vn -0.105680 -0.117010 -0.987492
vn -0.162731 0.927119 -0.337593
vn 0.596550 0.745586 0.297035
vn 0.985849 -0.163147 0.038527
vn -0.596521 0.745782 0.296600
vn 0.162731 0.927119 -0.337593
vn -0.985849 -0.163147 0.038526
vn 0.161473 -0.985975 -0.042198
vn 0.003301 0.134818 0.990865
vn 0.253458 0.966250 0.046046
vn 0.261456 -0.049864 -0.963927
vn -0.261436 -0.049866 -0.963932
vn -0.161471 -0.985975 -0.042204
vn -0.354056 0.924690 -0.139977
vn -0.253695 0.067020 0.964960
vn 0.940404 -0.315288 0.127410
vn -0.190225 -0.168016 -0.967257
vn -0.394202 -0.219259 0.892486
vn -0.997666 -0.066933 0.013529
vn 0.311305 0.419713 0.852602
vn 0.783826 -0.442728 0.435441
vn 0.766327 0.487357 0.418600
vn 0.217868 -0.575201 0.788465
vn -0.374230 -0.487329 0.788963
vn -0.319957 0.504614 0.801868
vn 0.169894 0.929645 0.326950
vn -0.780290 -0.442614 0.441860
vn -0.480916 0.505980 0.716034
vn -0.761711 0.489783 0.424156
vn -0.004969 -0.448780 0.893628
vn 0.397209 0.308825 0.864206
vn 0.321244 -0.755136 0.571465
vn -0.166504 0.930084 0.327444
vn -0.829956 0.553226 -0.071515
vn -0.000000 0.306744 0.951792
vn -0.000000 0.991748 -0.128206
vn -0.884504 -0.466497 -0.005753
vn -0.192858 0.153471 -0.969150
vn 0.192858 -0.690497 -0.697152
vn 0.884508 0.375343 -0.277063
vn 0.829952 -0.490881 0.264982
vn -0.000000 -0.879976 0.475018

g 18592_t.obj/AnonymousMesh0
f 1//1 2//2 3//3
f 4//4 2//2 1//1
f 5//5 4//4 1//1
f 6//6 4//4 5//5
f 7//7 6//6 5//5
f 8//8 6//6 7//7
f 2//2 8//8 7//7
f 9//9 8//8 2//2
f 10//10 9//9 2//2
f 11//11 9//9 10//10
f 6//6 11//11 10//10
f 8//8 11//11 6//6
f 4//4 10//10 2//2
f 6//6 10//10 4//4
f 11//11 8//8 9//9
f 3//3 2//2 7//7
f 12//12 13//13 14//14
f 13//13 15//15 14//14
f 13//13 16//16 15//15
f 15//15 16//16 17//17
f 18//18 13//13 12//12
f 18//18 12//12 17//17
f 16//16 18//18 17//17
f 16//16 13//13 18//18
f 19//19 20//20 21//21
f 22//22 20//20 19//19
f 23//23 22//22 19//19
f 24//24 22//22 23//23
f 25//25 24//24 23//23
f 26//26 24//24 25//25
f 27//27 26//26 25//25
f 28//28 26//26 27//27
f 21//21 28//28 27//27
f 19//19 25//25 23//23
f 27//27 25//25 19//19
f 21//21 27//27 19//19
f 26//26 22//22 24//24
f 20//20 22//22 26//26
f 29//29 20//20 26//26
f 29//29 26//26 28//28
f 30//30 31//31 32//32
f 30//30 32//32 33//33
f 34//34 31//31 30//30
f 34//34 35//35 31//31
f 30//30 33//33 36//36
f 36//36 33//33 35//35
f 35//35 34//34 36//36
f 36//36 34//34 30//30
f 37//37 38//38 39//39
f 40//40 38//38 37//37
f 37//37 41//41 42//42
f 39//39 41//41 37//37
f 43//43 40//40 44//44
f 38//38 40//40 43//43
f 33//33 42//42 35//35
f 37//37 42//42 33//33
f 32//32 37//37 33//33
f 40//40 37//37 32//32
f 31//31 40//40 32//32
f 44//44 40//40 31//31
f 42//42 31//31 35//35
f 44//44 31//31 42//42
f 42//42 43//43 44//44
f 42//42 41//41 43//43
f 45//45 46//46 47//47
f 48//48 46//46 45//45
f 45//45 49//49 48//48
f 50//50 49//49 45//45
f 49//49 51//51 52//52
f 53//53 51//51 49//49
f 54//54 46//46 48//48
f 38//38 46//46 54//54
f 49//49 54//54 48//48
f 52//52 54//54 49//49
f 53//53 55//55 56//56
f 53//53 56//56 51//51
f 56//56 55//55 57//57
f 55//55 41//41 57//57
f 41//41 39//39 58//58
f 38//38 54//54 59//59
f 39//39 38//38 59//59
f 58//58 39//39 59//59
f 57//57 41//41 58//58
f 60//60 59//59 52//52
f 59//59 60//60 58//58
f 52//52 59//59 54//54
f 58//58 60//60 56//56
f 57//57 58//58 56//56
f 61//61 62//62 63//63
f 46//46 62//62 61//61
f 47//47 46//46 61//61
f 55//55 62//62 41//41
f 64//64 62//62 55//55
f 53//53 65//65 66//66
f 49//49 65//65 53//53
f 43//43 46//46 38//38
f 62//62 46//46 43//43
f 55//55 66//66 67//67
f 53//53 66//66 55//55
f 62//62 43//43 41//41
f 49//49 50//50 65//65
f 64//64 63//63 62//62
f 68//68 69//69 70//70
f 71//71 69//69 68//68
f 72//72 71//71 68//68
f 73//73 71//71 72//72
f 74//74 73//73 72//72
f 75//75 73//73 74//74
f 72//72 75//75 74//74
f 76//76 75//75 72//72
f 77//77 76//76 72//72
f 78//78 76//76 77//77
f 79//79 78//78 77//77
f 50//50 78//78 79//79
f 80//80 50//50 79//79
f 81//81 69//69 71//71
f 82//82 69//69 81//81
f 83//83 82//82 81//81
f 84//84 82//82 83//83
f 85//85 84//84 83//83
f 86//86 84//84 85//85
f 76//76 86//86 85//85
f 87//87 86//86 76//76
f 78//78 87//87 76//76
f 45//45 87//87 78//78
f 50//50 45//45 78//78
f 64//64 88//88 63//63
f 82//82 88//88 64//64
f 89//89 82//82 64//64
f 69//69 82//82 89//89
f 90//90 69//69 89//89
f 70//70 69//69 90//90
f 91//91 70//70 90//90
f 84//84 88//88 82//82
f 92//92 88//88 84//84
f 47//47 92//92 84//84
f 61//61 92//92 47//47
f 90//90 67//67 93//93
f 94//94 67//67 90//90
f 89//89 94//94 90//90
f 64//64 94//94 89//89
f 95//95 71//71 96//96
f 81//81 71//71 95//95
f 97//97 81//81 95//95
f 86//86 47//47 84//84
f 45//45 47//47 86//86
f 87//87 45//45 86//86
f 96//96 97//97 95//95
f 83//83 97//97 96//96
f 72//72 98//98 77//77
f 68//68 98//98 72//72
f 96//96 73//73 85//85
f 71//71 73//73 96//96
f 68//68 99//99 98//98
f 70//70 99//99 68//68
f 98//98 100//100 91//91
f 99//99 100//100 98//98
f 91//91 79//79 77//77
f 90//90 79//79 91//91
f 79//79 93//93 80//80
f 90//90 93//93 79//79
f 55//55 94//94 64//64
f 67//67 94//94 55//55
f 85//85 75//75 76//76
f 73//73 75//75 85//85
f 81//81 97//97 83//83
f 96//96 85//85 83//83
f 98//98 91//91 77//77
f 70//70 91//91 100//100
f 70//70 100//100 99//99
f 3//3 101//101 1//1
f 102//102 101//101 3//3
f 7//7 102//102 3//3
f 103//103 102//102 7//7
f 5//5 103//103 7//7
f 104//104 103//103 5//5
f 101//101 104//104 5//5
f 101//101 63//63 104//104
f 61//61 63//63 101//101
f 102//102 61//61 101//101
f 103//103 61//61 102//102
f 88//88 104//104 63//63
f 103//103 104//104 88//88
f 92//92 103//103 88//88
f 61//61 103//103 92//92
f 5//5 1//1 101//101
f 21//21 105//105 106//106
f 107//107 105//105 21//21
f 20//20 107//107 21//21
f 108//108 107//107 20//20
f 29//29 108//108 20//20
f 106//106 108//108 29//29
f 28//28 106//106 29//29
f 21//21 106//106 28//28
f 80//80 107//107 108//108
f 93//93 107//107 80//80
f 105//105 107//107 93//93
f 66//66 105//105 93//93
f 106//106 105//105 66//66
f 65//65 106//106 66//66
f 108//108 106//106 65//65
f 80//80 108//108 65//65
f 50//50 80//80 65//65
f 93//93 67//67 66//66
f 56//56 109//109 110//110
f 60//60 109//109 56//56
f 52//52 109//109 60//60
f 111//111 109//109 52//52
f 111//111 51//51 112//112
f 52//52 51//51 111//111
f 15//15 110//110 109//109
f 17//17 110//110 15//15
f 109//109 14//14 15//15
f 111//111 14//14 109//109
f 12//12 110//110 17//17
f 112//112 110//110 12//12
f 111//111 12//12 14//14
f 112//112 12//12 111//111
f 110//110 51//51 56//56
f 110//110 112//112 51//51
f 113//113 114//114 115//115
f 116//116 114//114 113//113
f 117//117 113//113 118//118
f 116//116 113//113 117//117
f 118//118 113//113 119//119
f 115//115 119//119 113//113
f 117//117 114//114 116//116
f 120//120 121//121 122//122
f 123//123 121//121 120//120
f 123//123 124//124 121//121
f 125//125 124//124 123//123
f 122//122 121//121 126//126
f 121//121 124//124 126//126
f 120//120 125//125 123//123
f 127//127 128//128 129//129
f 130//130 128//128 127//127
f 131//131 130//130 127//127
f 132//132 130//130 131//131
f 133//133 131//131 129//129
f 132//132 131//131 133//133
f 134//134 132//132 133//133
f 135//135 132//132 134//134
f 128//128 133//133 129//129
f 134//134 133//133 128//128
f 135//135 134//134 128//128
f 131//131 127//127 129//129
f 130//130 132//132 135//135
f 128//128 130//130 135//135
