v -0.246585 0.444123 -0.138902
v -0.214177 0.414067 -0.090344
v -0.272631 0.465308 0.042233
v -0.098284 0.403459 -0.199275
v -0.120383 0.433425 -0.237236
v 0.117177 0.433422 -0.237236
v -0.142209 0.533342 -0.283826
v 0.138681 0.533337 -0.283826
v 0.121357 0.660935 -0.273422
v 0.243150 0.679326 -0.174402
v 0.154786 0.803110 -0.158529
v 0.183132 0.838659 -0.018801
v 0.000003 0.751705 -0.232337
v 0.000003 0.842809 0.080655
v -0.183124 0.838657 -0.018801
v -0.199535 0.398689 -0.076015
v -0.204056 0.378827 0.103075
v -0.171735 0.408661 0.146850
v -0.214233 0.364736 -0.065719
v -0.082678 0.392414 -0.165948
v -0.112354 0.214599 -0.108999
v 0.000003 0.221422 -0.150916
v 0.000784 0.150319 -0.213473
v 0.112358 0.214602 -0.108999
v 0.102414 0.137406 -0.113908
v 0.185942 0.203367 0.027970
v 0.140592 0.136160 0.016617
v -0.307913 0.577024 0.025103
v -0.262843 0.551336 -0.174501
v -0.243147 0.679330 -0.174402
v -0.123973 0.660939 -0.273422
v 0.000003 0.643134 -0.224827
v -0.098094 0.659865 -0.321486
v 0.000003 0.563205 -0.338217
v 0.000003 0.756524 -0.304756
v 0.098100 0.659865 -0.321486
v 0.000003 0.676595 -0.418146
v -0.139275 0.906243 -0.324166
v -0.100700 0.828411 -0.244549
v 0.000003 0.660060 -0.321858
v -0.201289 0.877253 -0.207839
v -0.268529 0.905811 -0.308501
v -0.306730 0.826922 -0.209965
v -0.341507 0.799083 -0.300131
v 0.289038 0.630804 -0.237342
v 0.241083 0.567950 -0.318338
v 0.341513 0.799083 -0.300131
v 0.156111 0.519453 -0.291249
v 0.184531 0.745778 -0.167202
v 0.100705 0.828411 -0.244549
v 0.080170 0.392419 -0.165948
v 0.234927 0.444114 -0.138902
v 0.272640 0.465312 0.042233
v 0.214181 0.414068 -0.090344
v 0.307912 0.577013 0.025103
v 0.262856 0.551338 -0.174501
v 0.095770 0.403456 -0.199275
v 0.306736 0.826922 -0.209965
v 0.201295 0.877253 -0.207839
v -0.289032 0.630804 -0.237342
v -0.184525 0.745778 -0.167202
v -0.156105 0.519453 -0.291249
v -0.102412 0.137414 -0.113909
v -0.185937 0.203374 0.027970
v -0.140586 0.136157 0.016617
v 0.147449 0.685106 -0.363921
v 0.139281 0.906243 -0.324166
v 0.268535 0.905811 -0.308501
v -0.147443 0.685106 -0.363921
v -0.241077 0.567950 -0.318338
v 0.209828 0.355558 -0.065719
v 0.199543 0.398684 -0.076015
v -0.154772 0.803114 -0.158529
v 0.000004 0.098154 0.010355
v 0.000003 0.114619 -0.097950
v -0.075169 0.128268 0.131231
v 0.075175 0.128269 0.131231
v 0.204056 0.378825 0.103081
v 0.168431 0.408672 0.146850
v -0.206288 0.294738 0.026605
v 0.206288 0.294741 0.026605
v -0.270584 0.708012 0.005239
v 0.270589 0.708012 0.005239
v -0.235790 0.595958 0.183592
v -0.187405 0.732314 0.156912
v -0.055901 0.656952 0.265986
v -0.112769 0.808414 0.148290
v 0.000003 0.812515 0.164555
v 0.112009 0.808410 0.148290
v 0.184726 0.732308 0.156912
v -0.219512 0.476216 0.185260
v -0.112600 0.559017 0.269519
v 0.219515 0.476207 0.185260
v 0.112602 0.559014 0.269519
v 0.071263 0.470499 0.266380
v 0.231132 0.595950 0.183592
v 0.055915 0.656950 0.265986
v -0.071258 0.470502 0.266380
v 0.037009 0.026235 -0.008324
v 0.037506 0.000108 -0.012069
v 0.090882 0.029926 0.035147
v 0.101885 0.000011 -0.041751
v 0.097850 0.026377 -0.036649
v 0.085946 0.047748 0.037751
v 0.032736 0.081411 0.047870
v 0.050833 0.065876 -0.027950
v 0.037699 0.103471 -0.024489
v 0.098417 0.081367 0.019792
v 0.034014 0.153056 -0.034588
v 0.098107 0.156947 0.024919
v -0.042682 0.026233 -0.008324
v -0.095374 0.029925 0.035147
v -0.043180 0.000107 -0.012070
v -0.090439 0.047747 0.037751
v -0.038410 0.081411 0.047870
v -0.102909 0.081363 0.019792
v -0.102602 0.156944 0.024919
v -0.039690 0.153056 -0.034588
v -0.102342 0.026375 -0.036649
v -0.056507 0.065875 -0.027950
v -0.043374 0.103470 -0.024489
v -0.025248 0.156998 0.053109
v -0.106377 0.000010 -0.041751
v 0.019572 0.156998 0.053109
v 0.000003 0.517831 0.350987
v 0.000003 0.563647 0.378472
v 0.000003 0.563528 0.418146
v 0.075444 0.433230 0.237938
v 0.197120 0.426090 0.151848
v 0.000003 0.412839 0.214129
v -0.075444 0.433233 0.237938
v -0.197109 0.426087 0.151848
v 0.090882 0.029926 0.035147
v 0.212916 0.000009 0.036446
v 0.142233 0.000006 0.041217
v 0.149019 0.000001 0.125165
v 0.079644 0.000055 0.068963
v 0.035863 0.000082 0.106979
v -0.217337 0.000007 0.036446
v -0.095374 0.029925 0.035147
v -0.146654 0.000005 0.041217
v -0.153440 0.000000 0.125165
v -0.077829 0.000053 0.068963
v -0.041598 0.000080 0.106979
v -0.143166 0.210481 0.163945
v 0.000003 0.211543 0.216126
v 0.143180 0.210484 0.163945
v -0.155757 0.307834 0.182010
v 0.000003 0.310919 0.236094
v 0.155762 0.307833 0.182010
v 0.000784 0.150319 -0.213473
v -0.078496 0.075141 -0.208523
v 0.000784 0.115196 -0.263657
v 0.078496 0.075143 -0.208524
v 0.069339 0.049510 -0.281344
v -0.297335 0.925986 0.033015
v -0.184720 0.732308 0.156912
v -0.112004 0.808410 0.148290
v -0.337595 0.834115 0.036023
v 0.184726 0.732308 0.156912
v 0.297341 0.925985 0.033015
v 0.112009 0.808410 0.148290
v 0.337600 0.834115 0.036023
v 0.001748 0.095110 -0.309100
v -0.069330 0.049504 -0.281338
v 0.275703 0.352979 -0.087762
v 0.326733 0.336800 -0.108484
v 0.325065 0.302836 -0.099232
v 0.282452 0.375894 0.108670
v 0.283259 0.323543 0.107679
v 0.278930 0.301593 -0.059693
v -0.400812 0.348025 0.012079
v -0.326733 0.336782 -0.108484
v -0.392860 0.313577 -0.125971
v -0.282455 0.375878 0.108670
v -0.392510 0.352967 0.134933
v -0.283260 0.323527 0.107679
v -0.325064 0.302818 -0.099232
v 0.392861 0.313600 -0.125971
v 0.400810 0.348048 0.012079
v 0.392508 0.352990 0.134933
v -0.275705 0.352963 -0.087762
v -0.278930 0.301576 -0.059693
v -0.500000 0.331470 0.014604
v -0.488302 0.291169 -0.136192
v 0.500000 0.331500 0.014604
v 0.488303 0.291198 -0.136192
v 0.496212 0.335803 0.163155
v -0.496213 0.335773 0.163155
vn -0.718116 -0.586703 -0.374286
vn -0.578832 -0.807561 -0.113130
vn -0.812102 -0.566988 0.137890
vn -0.183542 -0.892184 -0.412699
vn -0.258937 -0.661526 -0.703801
vn 0.180435 -0.653356 -0.735234
vn -0.346860 -0.165686 -0.923166
vn 0.457545 -0.168872 -0.873004
vn 0.231468 0.314938 -0.920455
vn 0.806529 0.335662 -0.486664
vn 0.351417 0.740071 -0.573412
vn 0.472678 0.881229 -0.003229
vn 0.000247 0.844751 -0.535159
vn 0.000182 0.994545 0.104311
vn -0.471538 0.881826 -0.005965
vn -0.869679 -0.434525 -0.234192
vn -0.677715 0.500415 0.538783
vn -0.704722 -0.345095 0.619901
vn -0.656096 -0.099410 -0.748102
vn -0.346722 -0.474384 -0.809162
vn -0.656243 -0.055563 -0.752501
vn -0.000069 0.161891 -0.986809
vn 0.001436 0.377971 -0.925816
vn 0.657408 -0.053036 -0.751666
vn 0.684813 -0.553822 -0.473617
vn 0.925454 -0.356888 -0.127146
vn 0.600299 -0.796154 0.076033
vn -0.997452 -0.026510 0.066234
vn -0.866359 -0.075724 -0.493647
vn -0.808677 0.336569 -0.482455
vn -0.280013 0.362673 -0.888854
vn 0.000000 -0.170549 0.985349
vn -1.000000 0.000002 0.000002
vn 0.000000 -0.985349 -0.170549
vn 0.000000 0.985349 0.170552
vn 1.000000 0.000002 0.000002
vn 0.000000 0.170553 -0.985349
vn 0.498209 0.789240 -0.359009
vn 0.688777 0.434457 0.580374
vn 0.000001 -0.323060 -0.946378
vn 0.108567 0.713603 0.692087
vn -0.482191 0.810975 -0.331378
vn -0.647801 0.321457 0.690666
vn -0.895230 0.021993 -0.445061
vn 0.692387 -0.476936 0.541417
vn 0.579553 -0.549658 -0.601660
vn 0.895230 0.021993 -0.445061
vn -0.057796 -0.996612 0.058516
vn -0.187861 -0.074033 0.979402
vn -0.688777 0.434458 0.580373
vn 0.321649 -0.621087 -0.714697
vn 0.719549 -0.577973 -0.384963
vn 0.828022 -0.549669 0.110652
vn 0.543515 -0.823906 -0.160530
vn 0.997115 -0.036344 0.066643
vn 0.861533 -0.118944 -0.493571
vn 0.221651 -0.894325 -0.388656
vn 0.647801 0.321457 0.690666
vn -0.108565 0.713604 0.692086
vn -0.692387 -0.476936 0.541417
vn 0.187862 -0.074032 0.979401
vn 0.057796 -0.996612 0.058516
vn -0.683489 -0.553347 -0.476077
vn -0.926103 -0.356739 -0.122761
vn -0.600315 -0.796142 0.076024
vn 0.032956 -0.079397 -0.996298
vn -0.498207 0.789240 -0.359013
vn 0.482191 0.810975 -0.331378
vn -0.032956 -0.079397 -0.996298
vn -0.579553 -0.549657 -0.601660
vn 0.642191 -0.161797 -0.749274
vn 0.916228 -0.325335 -0.233843
vn -0.352450 0.741452 -0.570988
vn -0.000002 -0.999953 -0.009659
vn 0.000081 -0.974685 -0.223584
vn -0.261588 -0.844748 0.466874
vn 0.261593 -0.844752 0.466866
vn 0.669401 0.500588 0.548921
vn 0.692385 -0.348052 0.632031
vn -0.671372 -0.697466 0.250601
vn 0.669440 -0.699876 0.249045
vn -0.894728 0.422142 0.145802
vn 0.893535 0.420970 0.156136
vn -0.738674 0.201252 0.643318
vn -0.649513 0.504670 0.568719
vn -0.335137 0.533267 0.776730
vn -0.300361 0.777727 0.552199
vn 0.000323 0.752331 0.658785
vn 0.304111 0.775642 0.553079
vn 0.651558 0.497797 0.572425
vn -0.683470 -0.361768 0.634029
vn -0.626014 -0.052060 0.778072
vn 0.685245 -0.353473 0.636786
vn 0.629897 -0.047180 0.775245
vn 0.327631 -0.550720 0.767702
vn 0.735457 0.208327 0.644750
vn 0.339670 0.533286 0.774745
vn -0.271984 -0.565187 0.778838
vn -0.950746 -0.243179 -0.192213
vn -0.983194 -0.026031 0.180697
vn 0.398394 -0.004811 0.917202
vn 0.309442 0.209031 -0.927659
vn 0.764571 0.190061 -0.615880
vn 0.461017 -0.206550 0.863018
vn -0.577467 -0.197471 0.792172
vn -0.413815 0.178207 -0.892748
vn -0.646652 -0.158375 -0.746163
vn 0.953109 0.212145 -0.215821
vn 0.143517 -0.102744 -0.984300
vn 0.781040 -0.008055 0.624429
vn 0.951601 -0.240027 -0.191942
vn -0.393618 -0.005114 0.919260
vn 0.984026 -0.028377 0.175751
vn -0.460081 -0.208346 0.863086
vn 0.576513 -0.198283 0.792664
vn -0.955020 0.209627 -0.209745
vn -0.784213 -0.007627 0.620444
vn -0.152715 -0.102594 -0.982931
vn -0.765160 0.190204 -0.615103
vn 0.412644 0.179923 -0.892946
vn 0.645687 -0.158196 -0.747036
vn 0.913847 -0.154030 0.375711
vn -0.305506 0.209280 -0.928907
vn -0.913876 -0.154135 0.375597
vn -0.000001 -0.580794 0.814050
vn 0.000016 0.152365 0.988324
vn 0.000023 0.409497 0.912312
vn 0.197690 -0.707993 0.677986
vn 0.586231 -0.745322 0.317535
vn 0.001235 -0.314191 0.949359
vn -0.233865 -0.715370 0.658447
vn -0.597588 -0.734559 0.321421
vn 0.158133 0.831546 0.532471
vn 0.208570 0.870160 0.446452
vn 0.360336 0.734974 0.574431
vn 0.051877 0.957210 0.284705
vn 0.081707 0.733336 0.674938
vn 0.050216 0.908093 0.415747
vn -0.208682 0.870096 0.446526
vn -0.205081 0.814454 0.542776
vn -0.360703 0.734756 0.574479
vn -0.079710 0.960178 0.267778
vn -0.190705 0.684509 0.703619
vn -0.138019 0.873762 0.466360
vn -0.719115 -0.439038 0.538627
vn -0.000002 -0.400438 0.916324
vn 0.719127 -0.439031 0.538617
vn -0.633907 -0.051254 0.771709
vn 0.000001 0.006761 0.999977
vn 0.631538 -0.043890 0.774102
vn 0.005648 0.215506 -0.976486
vn -0.611932 0.656065 -0.441722
vn 0.007069 0.885272 -0.465021
vn 0.619408 0.650531 -0.439480
vn 0.611431 0.724076 -0.319164
vn -0.400534 0.317051 0.859681
vn -0.400534 0.317051 0.859681
vn -0.299085 0.384712 0.873238
vn -0.495953 0.244618 0.833182
vn 0.400534 0.317052 0.859680
vn 0.400534 0.317052 0.859680
vn 0.299083 0.384714 0.873238
vn 0.495956 0.244616 0.833181
vn 0.011154 0.914669 -0.404051
vn -0.598508 0.728499 -0.333283
vn -0.291173 0.527128 -0.798345
vn -0.038498 0.721848 -0.690980
vn -0.149745 -0.872932 -0.464290
vn 0.073199 0.925805 0.370846
vn 0.031328 -0.824492 0.565006
vn -0.250348 -0.866546 -0.431767
vn -0.649850 0.753230 -0.101687
vn 0.038459 0.721848 -0.690982
vn -0.235478 0.728875 -0.642878
vn -0.073275 0.925799 0.370845
vn -0.247109 0.872026 0.422502
vn -0.031238 -0.824493 0.565009
vn 0.149790 -0.872927 -0.464286
vn 0.235429 0.728893 -0.642875
vn 0.649797 0.753275 -0.101687
vn 0.247049 0.872045 0.422499
vn 0.272998 0.543171 -0.794001
vn 0.286036 -0.851941 -0.438612
vn -0.174680 0.974197 -0.142924
vn -0.193030 0.944086 -0.267286
vn 0.174614 0.974209 -0.142926
vn 0.192973 0.944096 -0.267289
vn 0.169861 0.985171 -0.024206
vn -0.169927 0.985159 -0.024205

g 18845_t.obj/AnonymousMesh0
f 1//1 2//2 3//3
f 4//4 2//2 1//1
f 5//5 4//4 1//1
f 6//6 4//4 5//5
f 7//7 6//6 5//5
f 8//8 6//6 7//7
f 9//9 8//8 7//7
f 10//10 8//8 9//9
f 11//11 10//10 9//9
f 12//12 10//10 11//11
f 13//13 12//12 11//11
f 14//14 12//12 13//13
f 15//15 14//14 13//13
f 16//16 17//17 18//18
f 19//19 17//17 16//16
f 20//20 19//19 16//16
f 21//21 19//19 20//20
f 22//22 21//21 20//20
f 23//23 21//21 22//22
f 24//24 23//23 22//22
f 25//25 23//23 24//24
f 26//26 25//25 24//24
f 27//27 25//25 26//26
f 28//28 1//1 3//3
f 29//29 1//1 28//28
f 30//30 29//29 28//28
f 7//7 29//29 30//30
f 31//31 7//7 30//30
f 9//9 7//7 31//31
f 13//13 9//9 31//31
f 11//11 9//9 13//13
f 32//32 33//33 34//34
f 35//35 33//33 32//32
f 36//36 35//35 32//32
f 37//37 35//35 36//36
f 34//34 37//37 36//36
f 33//33 37//37 34//34
f 38//38 39//39 40//40
f 41//41 39//39 38//38
f 42//42 41//41 38//38
f 43//43 41//41 42//42
f 44//44 43//43 42//42
f 45//45 46//46 47//47
f 48//48 46//46 45//45
f 49//49 48//48 45//45
f 49//49 48//48 40//40
f 50//50 40//40 49//49
f 4//4 16//16 2//2
f 20//20 16//16 4//4
f 51//51 20//20 4//4
f 22//22 20//20 51//51
f 24//24 22//22 51//51
f 52//52 53//53 54//54
f 55//55 53//53 52//52
f 56//56 55//55 52//52
f 10//10 55//55 56//56
f 8//8 10//10 56//56
f 52//52 8//8 56//56
f 6//6 8//8 52//52
f 57//57 6//6 52//52
f 4//4 6//6 57//57
f 51//51 4//4 57//57
f 58//58 45//45 47//47
f 49//49 45//45 58//58
f 59//59 49//49 58//58
f 50//50 49//49 59//59
f 60//60 43//43 44//44
f 61//61 43//43 60//60
f 62//62 61//61 60//60
f 62//62 61//61 40//40
f 63//63 21//21 23//23
f 64//64 21//21 63//63
f 65//65 64//64 63//63
f 66//66 67//67 68//68
f 40//40 67//67 66//66
f 48//48 40//40 66//66
f 61//61 41//41 43//43
f 39//39 41//41 61//61
f 40//40 39//39 61//61
f 69//69 42//42 38//38
f 44//44 42//42 69//69
f 70//70 44//44 69//69
f 69//69 62//62 70//70
f 40//40 62//62 69//69
f 38//38 40//40 69//69
f 51//51 71//71 24//24
f 72//72 71//71 51//51
f 54//54 72//72 51//51
f 73//73 31//31 30//30
f 13//13 31//31 73//73
f 15//15 13//13 73//73
f 74//74 63//63 75//75
f 65//65 63//63 74//74
f 76//76 65//65 74//74
f 74//74 77//77 76//76
f 27//27 77//77 74//74
f 25//25 27//27 74//74
f 50//50 67//67 40//40
f 59//59 67//67 50//50
f 59//59 68//68 67//67
f 58//58 68//68 59//59
f 78//78 72//72 79//79
f 71//71 72//72 78//78
f 19//19 64//64 80//80
f 21//21 64//64 19//19
f 26//26 71//71 81//81
f 24//24 71//71 26//26
f 47//47 66//66 68//68
f 46//46 66//66 47//47
f 70//70 60//60 44//44
f 62//62 60//60 70//70
f 82//82 30//30 28//28
f 15//15 30//30 82//82
f 7//7 1//1 29//29
f 5//5 1//1 7//7
f 83//83 10//10 12//12
f 55//55 10//10 83//83
f 54//54 57//57 52//52
f 51//51 57//57 54//54
f 58//58 47//47 68//68
f 46//46 48//48 66//66
f 15//15 73//73 30//30
f 25//25 74//74 75//75
f 37//37 33//33 35//35
f 32//32 34//34 36//36
f 84//84 82//82 28//28
f 85//85 82//82 84//84
f 86//86 85//85 84//84
f 87//87 85//85 86//86
f 88//88 87//87 86//86
f 14//14 87//87 88//88
f 89//89 14//14 88//88
f 12//12 14//14 89//89
f 90//90 12//12 89//89
f 91//91 28//28 3//3
f 84//84 28//28 91//91
f 92//92 84//84 91//91
f 86//86 84//84 92//92
f 93//93 94//94 95//95
f 96//96 94//94 93//93
f 55//55 96//96 93//93
f 83//83 96//96 55//55
f 96//96 97//97 94//94
f 90//90 97//97 96//96
f 83//83 90//90 96//96
f 12//12 90//90 83//83
f 15//15 87//87 14//14
f 85//85 87//87 15//15
f 82//82 85//85 15//15
f 89//89 97//97 90//90
f 88//88 97//97 89//89
f 88//88 86//86 97//97
f 93//93 53//53 55//55
f 91//91 98//98 92//92
f 99//99 100//100 101//101
f 102//102 100//100 99//99
f 103//103 102//102 99//99
f 101//101 102//102 103//103
f 104//104 101//101 103//103
f 99//99 101//101 104//104
f 105//105 99//99 104//104
f 106//106 99//99 105//105
f 107//107 106//106 105//105
f 108//108 106//106 107//107
f 109//109 108//108 107//107
f 109//109 108//108 110//110
f 111//111 112//112 113//113
f 114//114 112//112 111//111
f 115//115 114//114 111//111
f 116//116 114//114 115//115
f 117//117 116//116 115//115
f 117//117 116//116 118//118
f 116//116 119//119 114//114
f 120//120 119//119 116//116
f 121//121 120//120 116//116
f 115//115 120//120 121//121
f 121//121 115//115 122//122
f 117//117 115//115 122//122
f 123//123 111//111 113//113
f 119//119 111//111 123//123
f 112//112 119//119 123//123
f 114//114 119//119 112//112
f 108//108 104//104 103//103
f 105//105 104//104 108//108
f 110//110 105//105 108//108
f 124//124 105//105 110//110
f 125//125 92//92 98//98
f 126//126 92//92 125//125
f 94//94 126//126 125//125
f 97//97 127//127 94//94
f 86//86 127//127 97//97
f 95//95 125//125 98//98
f 94//94 125//125 95//95
f 120//120 111//111 119//119
f 115//115 111//111 120//120
f 122//122 118//118 121//121
f 116//116 118//118 121//121
f 106//106 103//103 99//99
f 108//108 103//103 106//106
f 105//105 107//107 124//124
f 124//124 107//107 109//109
f 86//86 92//92 127//127
f 127//127 94//94 92//92
f 94//94 92//92 126//126
f 128//128 93//93 95//95
f 129//129 93//93 128//128
f 79//79 129//129 128//128
f 72//72 129//129 79//79
f 128//128 130//130 79//79
f 131//131 130//130 128//128
f 98//98 131//131 128//128
f 91//91 131//131 98//98
f 131//131 18//18 130//130
f 132//132 18//18 131//131
f 91//91 132//132 131//131
f 3//3 132//132 91//91
f 133//133 134//134 102//102
f 135//135 134//134 133//133
f 133//133 135//135 136//136
f 136//136 137//137 133//133
f 138//138 137//137 133//133
f 133//133 138//138 100//100
f 123//123 140//140 139//139
f 141//141 140//140 139//139
f 141//141 140//140 142//142
f 142//142 140//140 143//143
f 144//144 140//140 143//143
f 144//144 140//140 113//113
f 2//2 132//132 3//3
f 16//16 132//132 2//2
f 54//54 129//129 72//72
f 53//53 129//129 54//54
f 123//123 113//113 140//140
f 133//133 100//100 102//102
f 128//128 95//95 98//98
f 53//53 93//93 129//129
f 16//16 18//18 132//132
f 76//76 145//145 65//65
f 146//146 145//145 76//76
f 77//77 146//146 76//76
f 147//147 146//146 77//77
f 27//27 147//147 77//77
f 26//26 147//147 27//27
f 145//145 64//64 65//65
f 80//80 64//64 145//145
f 148//148 80//80 145//145
f 17//17 80//80 148//148
f 18//18 17//17 148//148
f 146//146 148//148 145//145
f 149//149 148//148 146//146
f 150//150 149//149 146//146
f 130//130 149//149 150//150
f 79//79 130//130 150//150
f 63//63 152//152 151//151
f 151//151 152//152 153//153
f 154//154 153//153 151//151
f 155//155 153//153 154//154
f 150//150 78//78 79//79
f 81//81 78//78 150//150
f 147//147 81//81 150//150
f 26//26 81//81 147//147
f 156//156 157//157 158//158
f 159//159 157//157 156//156
f 160//160 161//161 162//162
f 163//163 161//161 160//160
f 151//151 75//75 63//63
f 25//25 75//75 151//151
f 164//164 153//153 155//155
f 164//164 153//153 165//165
f 148//148 130//130 18//18
f 149//149 130//130 148//148
f 152//152 165//165 153//153
f 151//151 154//154 25//25
f 146//146 147//147 150//150
f 166//166 167//167 168//168
f 169//169 167//167 166//166
f 78//78 169//169 166//166
f 170//170 169//169 78//78
f 81//81 170//170 78//78
f 171//171 170//170 81//81
f 71//71 171//171 81//81
f 166//166 171//171 71//71
f 78//78 166//166 71//71
f 172//172 173//173 174//174
f 175//175 173//173 172//172
f 176//176 175//175 172//172
f 177//177 175//175 176//176
f 172//172 177//177 176//176
f 178//178 177//177 172//172
f 174//174 178//178 172//172
f 173//173 178//178 174//174
f 179//179 167//167 180//180
f 168//168 167//167 179//179
f 180//180 168//168 179//179
f 170//170 168//168 180//180
f 181//181 170//170 180//180
f 169//169 170//170 181//181
f 180//180 169//169 181//181
f 167//167 169//169 180//180
f 182//182 178//178 173//173
f 183//183 178//178 182//182
f 19//19 183//183 182//182
f 80//80 183//183 19//19
f 175//175 182//182 173//173
f 17//17 182//182 175//175
f 177//177 17//17 175//175
f 80//80 17//17 177//177
f 185//185 174//174 184//184
f 172//172 174//174 184//184
f 176//176 172//172 184//184
f 179//179 186//186 187//187
f 180//180 186//186 179//179
f 181//181 186//186 180//180
f 188//188 186//186 181//181
f 183//183 177//177 178//178
f 80//80 177//177 183//183
f 168//168 171//171 166//166
f 170//170 171//171 168//168
f 184//184 189//189 176//176
f 182//182 17//17 19//19
