v 0.022875 0.172811 -0.071618
v 0.000296 0.200323 -0.150161
v -0.024247 0.172810 -0.071618
v 0.037320 0.148458 -0.156218
v 0.000125 0.133484 -0.071871
v -0.000193 0.099968 -0.151876
v -0.038637 0.148456 -0.156217
v -0.050582 0.114912 -0.284158
v -0.079652 0.164043 -0.284683
v -0.046284 0.185188 -0.374765
v -0.051323 0.227734 -0.264188
v 0.000342 0.164575 -0.285064
v -0.000020 0.242823 -0.338013
v 0.050331 0.227738 -0.264188
v -0.000336 0.246481 -0.257719
v -0.019427 0.078275 0.088055
v -0.082035 0.112564 0.105895
v -0.092537 0.102528 0.049426
v -0.000010 0.112567 0.132267
v 0.000258 0.078277 0.088055
v 0.019944 0.078278 0.088055
v 0.000526 0.073275 0.052253
v 0.047992 0.083876 -0.015765
v -0.047476 0.083873 -0.015765
v 0.047678 0.053334 0.002954
v 0.021652 0.042116 0.046659
v 0.072516 0.042360 0.046659
v 0.092518 0.102533 0.049426
v 0.047817 0.031517 0.078099
v 0.000053 0.126175 -0.360851
v 0.049749 0.114915 -0.284158
v -0.000192 0.091601 -0.279808
v 0.078288 0.164048 -0.284681
v 0.045839 0.185191 -0.374765
v -0.066095 0.277489 -0.016851
v -0.109620 0.219815 0.080925
v -0.088581 0.278937 0.037374
v -0.089068 0.211877 -0.015413
v -0.000694 0.214334 -0.054825
v 0.063787 0.000003 0.065590
v 0.029425 0.000302 0.065590
v 0.047440 0.025951 0.015213
v -0.048037 0.031514 0.078099
v -0.072738 0.042355 0.046659
v -0.047901 0.053331 0.002954
v -0.021874 0.042115 0.046659
v -0.029644 0.000300 0.065590
v -0.064005 0.000000 0.065590
v -0.047660 0.025948 0.015213
v -0.032837 0.224474 0.166714
v -0.081999 0.281010 0.099261
v -0.087274 0.221064 0.118221
v -0.000584 0.296497 0.141457
v 0.000449 0.224474 0.166714
v 0.033735 0.224475 0.166714
v -0.085204 0.119055 -0.018722
v -0.118016 0.168328 0.079660
v 0.085185 0.119061 -0.018722
v 0.085589 0.211882 -0.015413
v 0.062640 0.277494 -0.016851
v 0.106220 0.219822 0.080925
v 0.080996 0.281017 0.099261
v 0.087713 0.221069 0.118221
v 0.088152 0.278944 0.037374
v -0.000617 0.283576 -0.033510
v -0.059774 0.166647 0.149861
v 0.056712 0.166651 0.149861
v 0.082015 0.112569 0.105895
v 0.114955 0.168335 0.079660
v 0.047283 0.000155 0.022728
v -0.047502 0.000153 0.022728
v -0.171295 0.503684 0.119044
v -0.108187 0.406315 0.171504
v -0.106788 0.496681 0.194082
v -0.109646 0.375263 0.071049
v -0.217110 0.520903 -0.011053
v -0.110664 0.388442 -0.022628
v -0.139327 0.553194 -0.131107
v -0.000004 0.392453 -0.075577
v -0.001199 0.567021 -0.163861
v 0.139343 0.553189 -0.131107
v -0.000027 0.748100 -0.152377
v 0.153222 0.763716 -0.113169
v 0.070174 0.816391 -0.072618
v -0.074674 0.816393 -0.072618
v -0.153275 0.763722 -0.113169
v -0.057983 0.842735 0.048382
v 0.069183 0.842501 0.048903
v -0.000025 0.822745 0.160088
v 0.221370 0.781018 0.017802
v 0.175341 0.729433 0.169167
v 0.228683 0.648472 -0.002570
v 0.171309 0.503677 0.119044
v 0.217125 0.520894 -0.011053
v 0.109638 0.375259 0.071049
v -0.053672 0.385510 0.203550
v -0.000004 0.358659 0.131128
v -0.000004 0.351744 0.018041
v 0.110657 0.388438 -0.022628
v -0.228683 0.648481 -0.002570
v -0.221420 0.781027 0.017802
v -0.175336 0.729102 0.169167
v 0.000003 0.744809 0.250670
v -0.215865 0.316545 0.006907
v -0.148672 0.315778 -0.004320
v -0.156759 0.287241 0.029928
v -0.148858 0.344163 0.029585
v -0.224594 0.341562 0.061547
v -0.177585 0.315021 0.071563
v -0.223401 0.295983 0.062309
v -0.061229 0.350408 0.079030
v -0.125294 0.317430 0.062139
v -0.061196 0.348475 -0.003582
v 0.000842 0.378350 0.221328
v 0.054511 0.385507 0.203550
v 0.108180 0.406311 0.171504
v 0.106923 0.496321 0.193374
v 0.215625 0.316563 0.006907
v 0.156521 0.287253 0.029928
v 0.148433 0.315789 -0.004320
v 0.223164 0.296002 0.062309
v 0.224352 0.341581 0.061547
v 0.177346 0.315035 0.071563
v 0.148617 0.344175 0.029585
v 0.125054 0.317440 0.062139
v -0.000586 0.351080 -0.019103
v 0.060954 0.348481 -0.003582
v 0.060987 0.350413 0.079030
v -0.000586 0.349663 0.099413
v -0.000587 0.373561 0.033783
v 0.181044 0.915974 0.019454
v 0.135822 0.999994 0.046608
v -0.020277 0.464171 0.374664
v 0.022256 0.464344 0.374765
v 0.000068 0.528377 0.237717
v -0.181432 0.915981 0.019454
v -0.136367 1.000000 0.046608
v -0.113412 0.045396 0.132813
v -0.134095 0.051536 0.088419
v -0.050605 0.043704 0.185064
v 0.113199 0.045403 0.132813
v 0.050603 0.043946 0.184024
v 0.133882 0.051544 0.088419
vn 0.701917 0.377990 -0.603685
vn 0.006120 0.930564 0.366077
vn -0.698307 0.371072 -0.612105
vn 0.950250 -0.129284 0.283390
vn 0.006183 -0.843742 -0.536714
vn 0.004344 -0.968686 0.248252
vn -0.948551 -0.132022 0.287786
vn -0.683432 -0.693791 -0.227100
vn -0.997672 -0.063603 -0.024622
vn -0.238680 0.004923 -0.971086
vn -0.694764 0.718975 0.019437
vn -0.000625 0.183270 -0.983062
vn 0.006953 0.664984 -0.746825
vn 0.700245 0.713619 0.020137
vn 0.001149 0.984035 0.177971
vn 0.070344 -0.858345 0.508228
vn -0.552211 -0.615135 0.562736
vn -0.858714 -0.483527 0.169742
vn 0.000403 -0.655155 0.755495
vn 0.000070 -0.921355 0.388722
vn -0.068310 -0.856504 0.511599
vn 0.000863 -0.999583 0.028875
vn 0.198685 -0.768514 -0.608203
vn -0.197665 -0.769371 -0.607451
vn 0.007288 -0.468695 -0.883330
vn -0.966636 -0.212953 -0.142360
vn 0.949067 -0.268437 -0.164964
vn 0.865178 -0.471380 0.171078
vn 0.128448 -0.194485 0.972459
vn 0.009237 -0.261121 -0.965262
vn 0.688604 -0.689718 -0.223861
vn 0.001821 -0.985199 -0.171404
vn 0.997829 -0.062646 -0.020312
vn 0.234068 0.002269 -0.972218
vn -0.627381 0.207388 -0.750589
vn -0.972463 0.228309 0.046805
vn -0.910200 -0.400136 -0.106903
vn -0.784819 0.201172 -0.586165
vn 0.003567 0.342029 -0.939683
vn 0.797437 -0.552231 0.243176
vn -0.802764 -0.545709 0.240357
vn 0.008382 -0.462732 -0.886459
vn -0.128354 -0.194988 0.972371
vn -0.950299 -0.263431 -0.165937
vn -0.013920 -0.468514 -0.883347
vn 0.964457 -0.221720 -0.143743
vn 0.802794 -0.545667 0.240350
vn -0.797401 -0.552282 0.243180
vn -0.008340 -0.462742 -0.886454
vn -0.427817 0.262868 0.864796
vn -0.770327 0.367993 0.520748
vn -0.784402 0.195531 0.588627
vn -0.000822 0.482533 0.875878
vn -0.000003 0.217470 0.976067
vn 0.370009 0.243703 0.896494
vn -0.751344 -0.334676 -0.568748
vn -0.975087 -0.047226 0.216739
vn 0.760864 -0.314049 -0.567855
vn 0.785977 0.213347 -0.580278
vn 0.622799 0.186463 -0.759837
vn 0.977579 0.209954 0.016097
vn 0.778867 0.364525 0.510380
vn 0.809949 0.201474 0.550810
vn 0.893022 -0.433355 -0.121306
vn 0.004389 0.251694 -0.967797
vn -0.363988 -0.376333 0.851990
vn 0.367393 -0.358828 0.858059
vn 0.562502 -0.599765 0.569099
vn 0.979438 -0.021715 0.200571
vn 0.000489 -0.854211 -0.519926
vn -0.000469 -0.854213 -0.519923
vn -0.880922 -0.253074 0.399913
vn -0.765260 -0.492338 0.414705
vn -0.678751 0.071599 0.730870
vn -0.563372 -0.819482 0.105173
vn -0.909470 -0.389996 -0.144110
vn -0.482693 -0.768748 -0.419565
vn -0.519421 -0.220871 -0.825481
vn -0.000439 -0.684858 -0.728677
vn -0.001708 -0.203029 -0.979171
vn 0.518481 -0.221073 -0.826017
vn -0.000847 0.378592 -0.925563
vn 0.543475 0.356969 -0.759742
vn -0.165330 0.839428 -0.517712
vn 0.187214 0.781694 -0.594899
vn -0.543337 0.355748 -0.760413
vn -0.003177 0.915796 0.401632
vn 0.012728 0.816667 0.576969
vn 0.003708 0.887427 0.460933
vn 0.844236 0.470658 0.256411
vn 0.744884 0.245195 0.620506
vn 0.992660 -0.021090 -0.119083
vn 0.880538 -0.252761 0.400955
vn 0.909457 -0.390027 -0.144110
vn 0.564023 -0.819089 0.104739
vn -0.347353 -0.883959 0.312989
vn 0.000147 -0.988452 0.151533
vn -0.000018 -0.986862 -0.161563
vn 0.482637 -0.768787 -0.419557
vn -0.992659 -0.021343 -0.119047
vn -0.841281 0.479877 0.248928
vn -0.745289 0.245115 0.620051
vn 0.000763 0.248348 0.968670
vn -0.607596 -0.007794 -0.794208
vn -0.086051 -0.167240 -0.982154
vn -0.055311 -0.996352 0.064982
vn -0.140713 0.988642 0.052801
vn -0.519833 0.706137 0.480775
vn 0.133475 -0.013209 0.990964
vn -0.544940 -0.704321 0.454943
vn -0.434324 0.684743 0.585226
vn -0.098661 -0.177693 0.979128
vn -0.360869 0.675702 -0.642807
vn 0.001636 -0.928900 0.370326
vn 0.350769 -0.883294 0.311051
vn 0.768042 -0.489778 0.412588
vn 0.680626 0.072594 0.729026
vn 0.607595 -0.007737 -0.794209
vn 0.055291 -0.996355 0.064952
vn 0.086087 -0.167096 -0.982175
vn 0.545015 -0.704265 0.454940
vn 0.519767 0.706189 0.480770
vn -0.133470 -0.013221 0.990965
vn 0.140633 0.988653 0.052801
vn 0.098576 -0.177743 0.979127
vn 0.000532 0.495801 -0.868436
vn 0.356253 0.668189 -0.653152
vn 0.433000 0.683556 0.587591
vn -0.001372 0.812855 0.582464
vn -0.001564 0.999690 -0.024858
vn 0.882906 0.318007 0.345470
vn -0.079149 0.888764 -0.451480
vn -0.616308 -0.231547 0.752695
vn 0.621306 -0.229801 0.749113
vn 0.000871 0.645819 0.763490
vn -0.880143 0.312717 0.357151
vn 0.065226 0.861475 -0.503593
vn -0.776766 0.158274 0.609577
vn -0.887167 0.154741 0.434730
vn -0.162398 0.114486 0.980061
vn 0.784687 0.160766 0.598682
vn 0.336591 0.120992 0.933846
vn 0.882814 0.175737 0.435609

g 19044_t.obj/AnonymousMesh0
f 1//1 2//2 3//3
f 4//4 2//2 1//1
f 5//5 4//4 1//1
f 6//6 4//4 5//5
f 7//7 6//6 5//5
f 8//8 6//6 7//7
f 9//9 8//8 7//7
f 10//10 8//8 9//9
f 11//11 10//10 9//9
f 12//12 10//10 11//11
f 13//13 12//12 11//11
f 14//14 12//12 13//13
f 15//15 14//14 13//13
f 2//2 14//14 15//15
f 11//11 2//2 15//15
f 7//7 2//2 11//11
f 9//9 7//7 11//11
f 16//16 17//17 18//18
f 19//19 17//17 16//16
f 20//20 19//19 16//16
f 21//21 19//19 20//20
f 22//22 21//21 20//20
f 23//23 21//21 22//22
f 24//24 23//23 22//22
f 23//23 25//25 26//26
f 27//27 25//25 23//23
f 28//28 27//27 23//23
f 29//29 27//27 28//28
f 21//21 29//29 28//28
f 26//26 29//29 21//21
f 23//23 26//26 21//21
f 12//12 8//8 10//10
f 30//30 8//8 12//12
f 31//31 30//30 12//12
f 32//32 30//30 31//31
f 6//6 32//32 31//31
f 8//8 32//32 6//6
f 4//4 14//14 2//2
f 33//33 14//14 4//4
f 31//31 33//33 4//4
f 34//34 33//33 31//31
f 12//12 34//34 31//31
f 14//14 34//34 12//12
f 35//35 36//36 37//37
f 38//38 36//36 35//35
f 39//39 38//38 35//35
f 3//3 38//38 39//39
f 1//1 3//3 39//39
f 40//40 29//29 41//41
f 27//27 29//29 40//40
f 42//42 27//27 40//40
f 25//25 27//27 42//42
f 26//26 25//25 42//42
f 18//18 43//43 16//16
f 44//44 43//43 18//18
f 24//24 44//44 18//18
f 45//45 44//44 24//24
f 46//46 45//45 24//24
f 47//47 43//43 48//48
f 46//46 43//43 47//47
f 49//49 46//46 47//47
f 45//45 46//46 49//49
f 44//44 45//45 49//49
f 50//50 51//51 52//52
f 53//53 51//51 50//50
f 54//54 53//53 50//50
f 55//55 53//53 54//54
f 56//56 3//3 5//5
f 38//38 3//3 56//56
f 57//57 38//38 56//56
f 36//36 38//38 57//57
f 1//1 58//58 5//5
f 59//59 58//58 1//1
f 39//39 59//59 1//1
f 60//60 59//59 39//39
f 61//61 62//62 63//63
f 64//64 62//62 61//61
f 60//60 64//64 61//61
f 5//5 24//24 56//56
f 23//23 24//24 5//5
f 58//58 23//23 5//5
f 36//36 51//51 37//37
f 52//52 51//51 36//36
f 55//55 62//62 53//53
f 63//63 62//62 55//55
f 65//65 39//39 35//35
f 60//60 39//39 65//65
f 17//17 66//66 57//57
f 19//19 66//66 17//17
f 19//19 67//67 66//66
f 68//68 67//67 19//19
f 68//68 69//69 67//67
f 28//28 69//69 68//68
f 61//61 59//59 60//60
f 69//69 59//59 61//61
f 69//69 58//58 59//59
f 28//28 58//58 69//69
f 68//68 21//21 28//28
f 19//19 21//21 68//68
f 57//57 18//18 17//17
f 56//56 18//18 57//57
f 16//16 22//22 20//20
f 24//24 22//22 16//16
f 70//70 42//42 40//40
f 41//41 42//42 70//70
f 26//26 41//41 29//29
f 42//42 41//41 26//26
f 7//7 3//3 2//2
f 5//5 3//3 7//7
f 46//46 16//16 43//43
f 24//24 16//16 46//46
f 71//71 49//49 47//47
f 48//48 49//49 71//71
f 44//44 48//48 43//43
f 49//49 48//48 44//44
f 41//41 70//70 40//40
f 28//28 23//23 58//58
f 56//56 24//24 18//18
f 48//48 71//71 47//47
f 30//30 32//32 8//8
f 11//11 15//15 13//13
f 14//14 33//33 34//34
f 31//31 4//4 6//6
f 72//72 73//73 74//74
f 75//75 73//73 72//72
f 76//76 75//75 72//72
f 77//77 75//75 76//76
f 78//78 77//77 76//76
f 79//79 77//77 78//78
f 80//80 79//79 78//78
f 81//81 79//79 80//80
f 82//82 81//81 80//80
f 83//83 81//81 82//82
f 84//84 83//83 82//82
f 85//85 82//82 86//86
f 84//84 82//82 85//85
f 87//87 84//84 85//85
f 88//88 84//84 87//87
f 89//89 88//88 87//87
f 90//90 88//88 89//89
f 91//91 90//90 89//89
f 92//92 90//90 91//91
f 93//93 92//92 91//91
f 94//94 92//92 93//93
f 95//95 94//94 93//93
f 75//75 96//96 73//73
f 97//97 96//96 75//75
f 98//98 97//97 75//75
f 95//95 97//97 98//98
f 99//99 95//95 98//98
f 94//94 95//95 99//99
f 81//81 94//94 99//99
f 92//92 94//94 81//81
f 83//83 92//92 81//81
f 90//90 92//92 83//83
f 78//78 82//82 80//80
f 86//86 82//82 78//78
f 100//100 86//86 78//78
f 101//101 86//86 100//100
f 102//102 101//101 100//100
f 89//89 101//101 102//102
f 103//103 89//89 102//102
f 91//91 89//89 103//103
f 104//104 105//105 106//106
f 107//107 105//105 104//104
f 108//108 107//107 104//104
f 109//109 107//107 108//108
f 110//110 109//109 108//108
f 106//106 109//109 110//110
f 104//104 106//106 110//110
f 111//111 112//112 37//37
f 107//107 112//112 111//111
f 113//113 107//107 111//111
f 105//105 107//107 113//113
f 37//37 105//105 113//113
f 106//106 105//105 37//37
f 112//112 106//106 37//37
f 97//97 114//114 96//96
f 115//115 114//114 97//97
f 95//95 115//115 97//97
f 116//116 115//115 95//95
f 93//93 116//116 95//95
f 117//117 116//116 93//93
f 118//118 119//119 120//120
f 121//121 119//119 118//118
f 122//122 121//121 118//118
f 123//123 121//121 122//122
f 124//124 123//123 122//122
f 125//125 123//123 124//124
f 126//126 65//65 35//35
f 60//60 65//65 126//126
f 127//127 60//60 126//126
f 64//64 60//60 127//127
f 128//128 62//62 64//64
f 53//53 62//62 128//128
f 129//129 53//53 128//128
f 111//111 53//53 129//129
f 127//127 120//120 64//64
f 124//124 120//120 127//127
f 128//128 124//124 127//127
f 125//125 124//124 128//128
f 100//100 72//72 102//102
f 76//76 72//72 100//100
f 78//78 76//76 100//100
f 64//64 125//125 128//128
f 119//119 125//125 64//64
f 120//120 119//119 64//64
f 130//130 126//126 113//113
f 127//127 126//126 130//130
f 128//128 127//127 130//130
f 99//99 79//79 81//81
f 98//98 79//79 99//99
f 98//98 77//77 79//79
f 75//75 77//77 98//98
f 113//113 35//35 37//37
f 126//126 35//35 113//113
f 51//51 111//111 37//37
f 53//53 111//111 51//51
f 124//124 118//118 120//120
f 122//122 118//118 124//124
f 119//119 123//123 125//125
f 121//121 123//123 119//119
f 112//112 109//109 106//106
f 107//107 109//109 112//112
f 111//111 130//130 113//113
f 129//129 130//130 111//111
f 89//89 87//87 101//101
f 104//104 110//110 108//108
f 130//130 129//129 128//128
f 83//83 131//131 90//90
f 132//132 131//131 83//83
f 84//84 132//132 83//83
f 88//88 132//132 84//84
f 114//114 133//133 96//96
f 134//134 133//133 114//114
f 115//115 134//134 114//114
f 116//116 134//134 115//115
f 133//133 73//73 96//96
f 74//74 73//73 133//133
f 135//135 74//74 133//133
f 87//87 136//136 101//101
f 137//137 136//136 87//87
f 88//88 131//131 132//132
f 90//90 131//131 88//88
f 85//85 137//137 87//87
f 86//86 137//137 85//85
f 86//86 136//136 137//137
f 101//101 136//136 86//86
f 117//117 134//134 116//116
f 135//135 134//134 117//117
f 135//135 133//133 134//134
f 138//138 57//57 139//139
f 52//52 57//57 138//138
f 50//50 52//52 138//138
f 140//140 50//50 138//138
f 54//54 50//50 140//140
f 55//55 54//54 140//140
f 63//63 69//69 61//61
f 141//141 69//69 63//63
f 55//55 141//141 63//63
f 142//142 55//55 140//140
f 141//141 55//55 142//142
f 52//52 36//36 57//57
f 141//141 143//143 69//69
f 74//74 102//102 72//72
f 103//103 102//102 74//74
f 135//135 103//103 74//74
f 117//117 103//103 135//135
f 91//91 117//117 93//93
f 103//103 117//117 91//91
