v -0.069814 0.412250 0.289940
v -0.109122 0.382731 0.186995
v 0.048572 0.293168 0.212677
v -0.178105 0.519516 0.147772
v -0.111713 0.560571 0.290947
v -0.099969 0.699276 0.239822
v 0.048572 0.715035 0.294782
v 0.048572 0.760576 0.258792
v 0.197113 0.699276 0.239822
v 0.187148 0.745874 0.207519
v 0.252539 0.661229 0.107137
v 0.231484 0.710380 0.083735
v 0.160078 0.348694 0.068294
v 0.206266 0.382731 0.186995
v 0.208857 0.472377 -0.016622
v 0.048572 0.333213 0.014305
v 0.048572 0.454885 -0.077623
v -0.062934 0.348694 0.068294
v -0.111713 0.472377 -0.016622
v 0.135912 0.837874 -0.050053
v 0.048572 0.827332 -0.086817
v 0.048572 0.890890 0.030799
v 0.048572 0.762842 -0.121997
v 0.170421 0.777548 -0.070707
v 0.048572 0.684348 -0.134028
v 0.192628 0.701735 -0.073391
v 0.048572 0.653087 -0.107753
v 0.187148 0.668221 -0.055599
v -0.038768 0.837874 -0.050053
v -0.073277 0.777548 -0.070707
v -0.095484 0.701735 -0.073391
v -0.090005 0.668221 -0.055599
v -0.074945 0.863324 0.038703
v -0.123748 0.813055 0.053117
v -0.155154 0.743712 0.073001
v -0.134340 0.710380 0.083735
v -0.038768 0.888774 0.127459
v -0.073277 0.848561 0.176942
v -0.095484 0.785689 0.219393
v -0.090005 0.745874 0.207519
v 0.048572 0.899316 0.164223
v 0.048572 0.863268 0.228232
v 0.048572 0.803077 0.280031
v 0.135912 0.888774 0.127459
v 0.170421 0.848561 0.176942
v 0.192628 0.785689 0.219393
v 0.172089 0.863324 0.038703
v 0.220892 0.813055 0.053117
v 0.252298 0.743712 0.073001
v -0.155395 0.661229 0.107137
v -0.099969 0.617706 -0.044645
v 0.048572 0.602555 -0.097483
v 0.197113 0.617706 -0.044645
v 0.275249 0.519516 0.147772
v 0.208857 0.560571 0.290947
v 0.048572 0.577577 0.350252
v 0.048572 0.425517 0.336210
v 0.166958 0.412250 0.289940
v 0.012326 0.820759 0.051913
v 0.087727 1.000000 0.008161
v 0.115629 0.975484 -0.019611
v 0.115629 0.991037 0.044106
v 0.143531 0.966520 0.016334
v 0.047522 0.088281 -0.302992
v 0.210331 0.245919 -0.251092
v 0.263229 0.197191 -0.216533
v 0.045271 0.164994 -0.307455
v -0.115623 0.245418 -0.251547
v -0.026581 0.259601 -0.397951
v -0.101882 0.390966 -0.337291
v 0.053596 0.407332 -0.392464
v -0.025846 0.506518 -0.285684
v 0.125491 0.506046 -0.285805
v 0.052651 0.483650 -0.157506
v 0.208087 0.411959 -0.178334
v 0.053165 0.520702 -0.093254
v 0.255672 0.412618 -0.130318
v 0.124756 0.259128 -0.398072
v 0.200792 0.390020 -0.337532
v -0.168868 0.196732 -0.216937
v -0.107326 0.412192 -0.176588
v -0.154176 0.412844 -0.128784
v 0.235182 0.216288 -0.177290
v 0.173952 0.150003 -0.224164
v 0.136374 0.102815 -0.146706
v -0.039230 0.102815 -0.146706
v -0.078200 0.149774 -0.224366
v -0.139430 0.216059 -0.177492
v -0.127567 0.415118 -0.102297
v -0.125045 0.298330 -0.072170
v -0.109992 0.245985 -0.059085
v -0.032726 0.384321 0.017255
v 0.048572 0.263611 0.012369
v 0.048572 0.367201 0.030554
v 0.129870 0.384321 0.017255
v 0.048572 0.141884 -0.061985
v 0.207136 0.245985 -0.059085
v 0.223276 0.298273 -0.072553
v 0.226886 0.425721 -0.103064
v 0.135828 0.459276 -0.058845
v 0.168041 0.405535 -0.018188
v -0.034091 0.459276 -0.058845
v -0.068722 0.405647 -0.017421
v 0.050869 0.484231 -0.071842
v -0.193811 0.315070 0.051952
v -0.171750 0.320605 0.084587
v -0.199136 0.273172 0.092570
v -0.181779 0.335910 0.025849
v -0.182163 0.375107 0.043429
v -0.180907 0.337420 -0.015164
v -0.182419 0.374663 -0.034597
v -0.193098 0.316304 -0.043103
v -0.203759 0.337701 -0.076885
v -0.232190 0.288457 -0.078127
v -0.172350 0.319566 -0.076885
v -0.200781 0.270323 -0.078127
v -0.215125 0.278153 -0.041861
v -0.047488 0.060825 -0.194229
v -0.024342 0.013203 -0.190275
v -0.076432 0.014844 -0.189642
v 0.008184 0.085634 -0.141356
v -0.044594 0.119631 -0.210571
v -0.035098 0.180065 -0.229153
v -0.102190 0.091095 -0.141356
v -0.088843 0.199838 -0.116028
v -0.047521 0.085954 -0.086879
v 0.027813 0.188509 -0.116028
v 0.144632 0.060825 -0.194229
v 0.173576 0.014844 -0.189642
v 0.121486 0.013203 -0.190275
v 0.199334 0.091095 -0.141356
v 0.141738 0.119631 -0.210571
v 0.132242 0.180065 -0.229153
v 0.088960 0.085634 -0.141356
v 0.069331 0.188509 -0.116028
v 0.144665 0.085954 -0.086879
v 0.185987 0.199838 -0.116028
v -0.213285 0.281340 0.056301
v -0.314259 0.073773 0.092570
v -0.230545 0.291306 0.092570
v -0.345668 0.091907 0.092570
v -0.328407 0.081942 0.056301
v -0.150753 0.356973 0.043429
v -0.203160 0.338739 0.084587
v 0.096955 0.000000 -0.094310
v 0.198505 0.001802 -0.094310
v -0.151010 0.356529 -0.034597
v 0.048572 0.043072 -0.372488
v 0.048572 0.109583 -0.197607
v 0.013436 0.141165 -0.220088
v 0.083708 0.141164 -0.220088
v 0.048572 0.167240 -0.241102
v 0.000189 0.000000 -0.094310
v -0.101361 0.001802 -0.094310
v 0.168041 0.405535 -0.018188
v 0.253193 0.419287 -0.061710
v 0.226886 0.425721 -0.103064
v 0.226029 0.364256 -0.015503
v 0.223276 0.298273 -0.072553
v 0.261276 0.296610 -0.053808
v 0.290137 0.361228 -0.111425
v 0.345668 0.360836 -0.095975
v 0.343960 0.411114 -0.003976
v 0.296359 0.365610 -0.003109
v 0.345617 0.311949 -0.000164
v -0.163829 0.296212 -0.053808
v -0.248702 0.311965 -0.000164
v -0.248520 0.360852 -0.095975
v -0.199190 0.365391 -0.003110
v -0.125103 0.364033 -0.015503
v -0.156327 0.418925 -0.061710
v -0.068722 0.405647 -0.017421
v -0.127567 0.415118 -0.102297
v 0.048699 0.521071 0.045986
v -0.046505 0.456741 0.002782
v -0.246573 0.411122 -0.003976
v -0.192995 0.360693 -0.111425
v -0.125045 0.298330 -0.072170
v 0.142317 0.456741 0.002782
v -0.100894 0.524820 0.324470
v 0.049316 0.649936 0.368993
v -0.100894 0.642246 0.295391
v 0.049316 0.532510 0.398072
v 0.199527 0.524820 0.324470
v 0.199527 0.642246 0.295391
vn -0.572443 -0.401247 0.715059
vn -0.771281 -0.628041 0.103394
vn 0.000000 -0.956941 0.290281
vn -0.991330 -0.086365 0.099023
vn -0.621863 0.124816 0.773115
vn -0.680457 0.424981 0.596966
vn 0.000000 0.460801 0.887504
vn -0.058745 0.205307 0.976933
vn 0.680457 0.424985 0.596964
vn 0.731696 0.088862 0.675814
vn 0.970004 0.219122 -0.105246
vn 0.985926 -0.109346 0.126465
vn 0.542979 -0.793810 -0.273934
vn 0.771281 -0.628041 0.103394
vn 0.750471 -0.359574 -0.554527
vn 0.074498 -0.819532 -0.568171
vn -0.065875 -0.360312 -0.930503
vn -0.517016 -0.762178 -0.389588
vn -0.748236 -0.386862 -0.538963
vn 0.345618 0.695423 -0.630028
vn -0.063707 0.668613 -0.740876
vn 0.000000 0.961263 -0.275634
vn -0.012935 0.322232 -0.946572
vn 0.590258 0.377834 -0.713328
vn 0.002868 -0.245909 -0.969289
vn 0.715716 -0.135037 -0.685212
vn 0.060948 -0.363997 -0.929404
vn 0.814915 -0.216433 -0.537653
vn -0.432658 0.716937 -0.546634
vn -0.606477 0.383462 -0.696522
vn -0.728049 -0.148102 -0.669335
vn -0.734600 -0.221106 -0.641463
vn -0.546841 0.819034 -0.173634
vn -0.835001 0.531897 -0.140922
vn -0.999192 -0.039815 0.005401
vn -0.991869 -0.122268 -0.035318
vn -0.345614 0.923618 0.165775
vn -0.590257 0.698430 0.404713
vn -0.727720 0.108371 0.677258
vn -0.810723 0.093698 0.577883
vn 0.063705 0.959621 0.273987
vn 0.012937 0.774877 0.631979
vn -0.014145 0.136890 0.990485
vn 0.432656 0.897670 0.083653
vn 0.606476 0.694297 0.387478
vn 0.728715 0.149312 0.668342
vn 0.546843 0.786592 -0.286767
vn 0.834999 0.525754 -0.162357
vn 0.999870 -0.008311 0.013847
vn -0.965221 0.255315 -0.056235
vn -0.658035 -0.068157 -0.749896
vn -0.000000 -0.166305 -0.986074
vn 0.595047 -0.086442 -0.799029
vn 0.978500 -0.102643 0.178893
vn 0.621863 0.124816 0.773115
vn -0.000000 0.059262 0.998242
vn -0.000000 -0.416254 0.909248
vn 0.572443 -0.401247 0.715059
vn -0.525468 -0.826549 0.201744
vn -0.118416 0.964641 -0.235469
vn 0.251525 0.187460 -0.949523
vn 0.251517 0.603863 0.756365
vn 0.940865 0.329119 -0.080334
vn -0.000137 -0.759435 -0.650584
vn 0.734859 -0.173390 -0.655682
vn 0.885935 -0.372069 -0.276919
vn -0.006283 -0.573972 -0.818851
vn -0.737460 -0.159433 -0.656304
vn -0.404336 -0.341581 -0.848431
vn -0.782268 0.283437 -0.554726
vn 0.006362 0.419859 -0.907567
vn -0.376995 0.895306 -0.237282
vn 0.385464 0.890973 -0.239967
vn 0.005085 0.999984 0.002322
vn 0.717715 0.613876 -0.328696
vn -0.002803 0.990260 0.139202
vn 0.875266 0.466224 0.128625
vn 0.407672 -0.354527 -0.841495
vn 0.790320 0.268002 -0.550971
vn -0.893954 -0.362304 -0.263785
vn -0.712128 0.627109 -0.315609
vn -0.869745 0.445554 0.212191
vn 0.805404 -0.418619 0.419622
vn 0.560544 -0.825260 0.068816
vn 0.457576 -0.857584 0.234891
vn -0.454454 -0.857893 0.239772
vn -0.554575 -0.828182 0.080999
vn -0.811204 -0.408134 0.418778
vn -0.766465 0.428832 0.478158
vn -0.861238 -0.015828 0.507956
vn -0.623692 -0.394945 0.674557
vn -0.557659 -0.002238 0.830067
vn 0.000000 -0.335533 0.942028
vn 0.000014 -0.136395 0.990655
vn 0.553461 -0.001142 0.832875
vn 0.000000 -0.675133 0.737696
vn 0.623250 -0.398920 0.672623
vn 0.859504 -0.029335 0.510286
vn 0.760493 0.444508 0.473353
vn 0.551006 0.755404 0.354623
vn 0.612113 0.399136 0.682648
vn -0.562428 0.770328 0.300449
vn -0.625028 0.413695 0.661964
vn -0.000384 0.925501 0.378746
vn -0.411035 -0.222754 -0.883986
vn 0.876873 -0.188897 0.442053
vn 0.757429 -0.372732 0.536072
vn -0.044312 -0.911322 -0.409303
vn -0.740505 0.641246 0.201134
vn -0.183133 -0.944496 0.272746
vn -0.510687 0.859660 -0.013522
vn -0.386244 -0.171781 0.906260
vn -0.377811 0.697419 -0.608987
vn -0.888427 0.019591 -0.458600
vn 0.751042 -0.395306 -0.528838
vn 0.523882 -0.847929 -0.081014
vn -0.347348 -0.655495 0.670578
vn 0.003027 0.016912 -0.999852
vn 0.528346 -0.381782 -0.758349
vn -0.469124 -0.568875 -0.675503
vn 0.956224 -0.104692 -0.273269
vn -0.029069 -0.276840 -0.960476
vn -0.029282 -0.102620 -0.994290
vn -0.962260 0.071639 -0.262532
vn -0.771022 0.194288 0.606446
vn 0.000978 0.097175 0.995267
vn 0.801024 -0.044639 0.596966
vn -0.003027 0.016912 -0.999852
vn 0.469124 -0.568875 -0.675503
vn -0.528346 -0.381782 -0.758349
vn 0.962260 0.071639 -0.262532
vn 0.029069 -0.276840 -0.960476
vn 0.029282 -0.102620 -0.994290
vn -0.956224 -0.104692 -0.273269
vn -0.801024 -0.044639 0.596966
vn -0.000978 0.097175 0.995267
vn 0.771022 0.194288 0.606446
vn 0.015831 -0.052019 -0.998521
vn 0.451473 -0.743701 0.493033
vn -0.744276 0.436747 0.505278
vn -0.999821 0.005135 0.018225
vn -0.350084 -0.659144 -0.665560
vn 0.992072 -0.009926 0.125280
vn -0.469882 0.523360 0.710848
vn -0.558995 -0.720438 0.410479
vn 0.723635 -0.392604 0.567639
vn 0.885680 0.198929 -0.419522
vn -0.000001 -0.402556 -0.915395
vn -0.000006 -0.934684 0.355480
vn -0.981273 -0.077536 -0.176327
vn 0.981273 -0.077546 -0.176322
vn 0.000005 0.726789 -0.686861
vn 0.558995 -0.720438 0.410479
vn -0.723635 -0.392604 0.567639
vn -0.092522 0.476137 0.874490
vn 0.176667 0.962583 0.205481
vn 0.144683 0.805253 -0.575009
vn -0.199100 -0.136977 0.970359
vn -0.381522 -0.921353 -0.074494
vn -0.019962 -0.987042 0.159215
vn 0.291428 -0.065541 -0.954345
vn 0.695556 0.011404 -0.718382
vn 0.427567 0.645800 0.632557
vn -0.275619 0.065300 0.959046
vn 0.463415 -0.553446 0.692058
vn 0.017384 -0.987420 0.157163
vn -0.465716 -0.550780 0.692640
vn -0.695415 0.012050 -0.718507
vn 0.272721 0.065899 0.959834
vn 0.194168 -0.145844 0.970066
vn -0.138255 0.979756 0.144791
vn 0.150105 0.509199 0.847458
vn -0.034918 0.736292 -0.675762
vn 0.006875 0.751057 0.660202
vn -0.901906 0.327662 0.281429
vn -0.424976 0.648048 0.632004
vn -0.247403 -0.061721 -0.966945
vn 0.376701 -0.922553 -0.083616
vn 0.886869 0.324851 0.328534
vn -0.438517 0.216032 0.872372
vn -0.000001 0.240376 0.970680
vn -0.438517 0.216032 0.872372
vn -0.000001 0.240376 0.970680
vn 0.438515 0.216032 0.872373
vn 0.438515 0.216032 0.872373

g 19043_t.obj/AnonymousMesh0
f 1//1 2//2 3//3
f 4//4 2//2 1//1
f 5//5 4//4 1//1
f 6//6 4//4 5//5
f 7//7 6//6 5//5
f 8//8 6//6 7//7
f 9//9 8//8 7//7
f 10//10 8//8 9//9
f 11//11 10//10 9//9
f 12//12 10//10 11//11
f 13//13 14//14 3//3
f 15//15 14//14 13//13
f 16//16 15//15 13//13
f 17//17 15//15 16//16
f 18//18 17//17 16//16
f 19//19 17//17 18//18
f 2//2 19//19 18//18
f 4//4 19//19 2//2
f 20//20 21//21 22//22
f 23//23 21//21 20//20
f 24//24 23//23 20//20
f 25//25 23//23 24//24
f 26//26 25//25 24//24
f 27//27 25//25 26//26
f 28//28 27//27 26//26
f 21//21 29//29 22//22
f 30//30 29//29 21//21
f 23//23 30//30 21//21
f 31//31 30//30 23//23
f 25//25 31//31 23//23
f 32//32 31//31 25//25
f 27//27 32//32 25//25
f 29//29 33//33 22//22
f 34//34 33//33 29//29
f 30//30 34//34 29//29
f 35//35 34//34 30//30
f 31//31 35//35 30//30
f 36//36 35//35 31//31
f 32//32 36//36 31//31
f 33//33 37//37 22//22
f 38//38 37//37 33//33
f 34//34 38//38 33//33
f 39//39 38//38 34//34
f 35//35 39//39 34//34
f 40//40 39//39 35//35
f 36//36 40//40 35//35
f 37//37 41//41 22//22
f 42//42 41//41 37//37
f 38//38 42//42 37//37
f 43//43 42//42 38//38
f 39//39 43//43 38//38
f 8//8 43//43 39//39
f 40//40 8//8 39//39
f 41//41 44//44 22//22
f 45//45 44//44 41//41
f 42//42 45//45 41//41
f 46//46 45//45 42//42
f 43//43 46//46 42//42
f 10//10 46//46 43//43
f 8//8 10//10 43//43
f 44//44 47//47 22//22
f 48//48 47//47 44//44
f 45//45 48//48 44//44
f 49//49 48//48 45//45
f 46//46 49//49 45//45
f 12//12 49//49 46//46
f 10//10 12//12 46//46
f 47//47 20//20 22//22
f 24//24 20//20 47//47
f 48//48 24//24 47//47
f 26//26 24//24 48//48
f 49//49 26//26 48//48
f 28//28 26//26 49//49
f 12//12 28//28 49//49
f 32//32 50//50 36//36
f 51//51 50//50 32//32
f 27//27 51//51 32//32
f 52//52 51//51 27//27
f 53//53 52//52 27//27
f 17//17 52//52 53//53
f 9//9 54//54 11//11
f 55//55 54//54 9//9
f 7//7 55//55 9//9
f 56//56 55//55 7//7
f 5//5 56//56 7//7
f 1//1 56//56 5//5
f 11//11 28//28 12//12
f 53//53 28//28 11//11
f 15//15 53//53 11//11
f 17//17 53//53 15//15
f 40//40 6//6 8//8
f 50//50 6//6 40//40
f 36//36 50//50 40//40
f 51//51 4//4 50//50
f 19//19 4//4 51//51
f 17//17 19//19 51//51
f 57//57 3//3 58//58
f 1//1 3//3 57//57
f 56//56 1//1 57//57
f 59//59 60//60 61//61
f 62//62 60//60 59//59
f 63//63 62//62 59//59
f 14//14 58//58 3//3
f 54//54 58//58 14//14
f 16//16 3//3 18//18
f 13//13 3//3 16//16
f 54//54 15//15 11//11
f 14//14 15//15 54//54
f 55//55 58//58 54//54
f 56//56 58//58 55//55
f 63//63 60//60 62//62
f 61//61 60//60 63//63
f 2//2 18//18 3//3
f 28//28 53//53 27//27
f 50//50 4//4 6//6
f 52//52 17//17 51//51
f 57//57 58//58 56//56
f 61//61 63//63 59//59
f 64//64 65//65 66//66
f 67//67 65//65 64//64
f 68//68 67//67 64//64
f 69//69 67//67 68//68
f 70//70 69//69 68//68
f 71//71 69//69 70//70
f 72//72 71//71 70//70
f 73//73 71//71 72//72
f 74//74 73//73 72//72
f 75//75 73//73 74//74
f 76//76 75//75 74//74
f 77//77 75//75 76//76
f 78//78 67//67 69//69
f 65//65 67//67 78//78
f 79//79 65//65 78//78
f 75//75 65//65 79//79
f 73//73 75//75 79//79
f 80//80 68//68 64//64
f 81//81 68//68 80//80
f 82//82 81//81 80//80
f 76//76 81//81 82//82
f 71//71 78//78 69//69
f 79//79 78//78 71//71
f 73//73 79//79 71//71
f 66//66 75//75 77//77
f 65//65 75//75 66//66
f 74//74 81//81 76//76
f 72//72 81//81 74//74
f 70//70 81//81 72//72
f 68//68 81//81 70//70
f 83//83 66//66 77//77
f 84//84 66//66 83//83
f 85//85 84//84 83//83
f 64//64 84//84 85//85
f 86//86 64//64 85//85
f 87//87 64//64 86//86
f 88//88 87//87 86//86
f 80//80 87//87 88//88
f 82//82 80//80 88//88
f 88//88 89//89 82//82
f 90//90 89//89 88//88
f 91//91 90//90 88//88
f 92//92 90//90 91//91
f 93//93 92//92 91//91
f 94//94 92//92 93//93
f 95//95 94//94 93//93
f 86//86 91//91 88//88
f 96//96 91//91 86//86
f 85//85 96//96 86//86
f 97//97 96//96 85//85
f 83//83 97//97 85//85
f 98//98 97//97 83//83
f 99//99 98//98 83//83
f 100//100 99//99 76//76
f 101//101 99//99 100//100
f 95//95 101//101 100//100
f 98//98 101//101 95//95
f 97//97 98//98 95//95
f 102//102 89//89 103//103
f 76//76 89//89 102//102
f 104//104 76//76 102//102
f 100//100 76//76 104//104
f 93//93 97//97 95//95
f 96//96 97//97 93//93
f 91//91 96//96 93//93
f 92//92 103//103 90//90
f 102//102 103//103 92//92
f 99//99 101//101 98//98
f 76//76 82//82 89//89
f 90//90 103//103 89//89
f 77//77 76//76 99//99
f 64//64 87//87 80//80
f 66//66 84//84 64//64
f 83//83 77//77 99//99
f 105//105 106//106 107//107
f 108//108 106//106 105//105
f 109//109 108//108 105//105
f 110//110 108//108 109//109
f 111//111 110//110 109//109
f 112//112 110//110 111//111
f 113//113 112//112 111//111
f 114//114 112//112 113//113
f 115//115 114//114 113//113
f 116//116 114//114 115//115
f 112//112 116//116 115//115
f 117//117 116//116 112//112
f 114//114 117//117 112//112
f 116//116 117//117 114//114
f 118//118 119//119 120//120
f 121//121 119//119 118//118
f 122//122 121//121 118//118
f 122//122 121//121 123//123
f 124//124 123//123 122//122
f 125//125 123//123 124//124
f 126//126 125//125 124//124
f 127//127 125//125 126//126
f 121//121 127//127 126//126
f 123//123 127//127 121//121
f 128//128 129//129 130//130
f 131//131 129//129 128//128
f 132//132 131//131 128//128
f 133//133 131//131 132//132
f 132//132 133//133 134//134
f 135//135 133//133 134//134
f 136//136 135//135 134//134
f 137//137 135//135 136//136
f 131//131 137//137 136//136
f 133//133 137//137 131//131
f 107//107 138//138 105//105
f 139//139 138//138 107//107
f 140//140 139//139 107//107
f 141//141 139//139 140//140
f 138//138 141//141 140//140
f 142//142 141//141 138//138
f 109//109 106//106 143//143
f 144//144 106//106 109//109
f 105//105 144//144 109//109
f 140//140 144//144 105//105
f 138//138 140//140 105//105
f 145//145 134//134 130//130
f 136//136 134//134 145//145
f 146//146 136//136 145//145
f 131//131 136//136 146//146
f 129//129 131//131 146//146
f 115//115 110//110 112//112
f 147//147 110//110 115//115
f 115//115 147//147 113//113
f 111//111 147//147 113//113
f 143//143 110//110 147//147
f 108//108 110//110 143//143
f 106//106 108//108 143//143
f 150//150 149//149 148//148
f 151//151 149//149 148//148
f 152//152 151//151 148//148
f 120//120 153//153 154//154
f 119//119 153//153 120//120
f 145//145 129//129 146//146
f 130//130 129//129 145//145
f 111//111 143//143 147//147
f 109//109 143//143 111//111
f 139//139 142//142 138//138
f 141//141 142//142 139//139
f 107//107 144//144 140//140
f 106//106 144//144 107//107
f 121//121 153//153 119//119
f 126//126 153//153 121//121
f 118//118 124//124 122//122
f 120//120 124//124 118//118
f 126//126 154//154 153//153
f 124//124 154//154 126//126
f 128//128 134//134 132//132
f 130//130 134//134 128//128
f 148//148 152//152 150//150
f 120//120 154//154 124//124
f 155//155 156//156 157//157
f 158//158 156//156 155//155
f 159//159 158//158 155//155
f 160//160 158//158 159//159
f 161//161 160//160 159//159
f 162//162 160//160 161//161
f 156//156 162//162 161//161
f 163//163 162//162 156//156
f 164//164 163//163 156//156
f 165//165 163//163 164//164
f 160//160 165//165 164//164
f 162//162 165//165 160//160
f 166//166 167//167 168//168
f 169//169 167//167 166//166
f 170//170 169//169 166//166
f 171//171 169//169 170//170
f 172//172 171//171 170//170
f 173//173 171//171 172//172
f 174//174 94//94 95//95
f 92//92 94//94 174//174
f 175//175 92//92 174//174
f 102//102 92//92 175//175
f 174//174 102//102 175//175
f 104//104 102//102 174//174
f 171//171 168//168 176//176
f 177//177 168//168 171//171
f 173//173 177//177 171//171
f 178//178 177//177 173//173
f 174//174 100//100 104//104
f 179//179 100//100 174//174
f 95//95 179//179 174//174
f 100//100 179//179 95//95
f 169//169 176//176 167//167
f 171//171 176//176 169//169
f 177//177 166//166 168//168
f 178//178 166//166 177//177
f 170//170 178//178 172//172
f 166//166 178//178 170//170
f 157//157 161//161 159//159
f 156//156 161//161 157//157
f 158//158 164//164 156//156
f 160//160 164//164 158//158
f 168//168 167//167 176//176
f 163//163 165//165 162//162
f 180//180 181//181 182//182
f 183//183 181//181 180//180
f 184//184 181//181 183//183
f 185//185 181//181 184//184
