v 0.114657 0.252570 -0.046512
v 0.136408 0.316902 0.050253
v 0.142194 0.226805 0.059423
v 0.104373 0.328989 -0.023285
v 0.000742 0.270429 -0.086761
v -0.000044 0.338334 -0.047265
v -0.104448 0.328989 -0.023285
v -0.100266 0.419110 -0.029709
v -0.133914 0.339272 0.047233
v -0.140966 0.226805 0.059423
v -0.136498 0.316902 0.050253
v -0.113363 0.252570 -0.046512
v -0.107778 0.321809 0.155308
v -0.096416 0.214040 0.148544
v -0.000043 0.320097 0.202108
v -0.000038 0.209318 0.183435
v 0.096699 0.211962 0.147862
v -0.080507 0.464864 -0.024013
v 0.100266 0.419110 -0.029709
v -0.094788 0.457740 0.115662
v -0.103872 0.412000 0.135719
v -0.000021 0.455118 0.170540
v 0.000000 0.413410 0.184743
v 0.103872 0.412000 0.135719
v 0.253847 0.444148 0.041086
v 0.162827 0.467936 0.063436
v 0.180299 0.422711 0.121431
v 0.169142 0.402519 0.053967
v 0.037741 0.421762 0.090901
v 0.205204 0.507794 -0.019041
v 0.106002 0.485964 0.020916
v 0.167578 0.458352 0.065045
v 0.147309 0.431862 -0.013849
v 0.054561 0.412427 0.105658
v 0.133914 0.339272 0.047233
v 0.107713 0.321809 0.155308
v 0.217786 0.809603 0.105971
v 0.237231 0.739649 0.039558
v 0.275372 0.837617 -0.024890
v 0.157023 0.779985 0.114312
v -0.214108 0.809603 0.105971
v -0.234205 0.739649 0.039558
v -0.155566 0.779985 0.114312
v -0.269508 0.837618 -0.024890
v 0.078903 0.464958 -0.023975
v 0.093032 0.457724 0.116007
v -0.062788 0.785817 -0.034513
v 0.064466 0.868618 -0.003357
v 0.063572 0.785816 -0.034513
v -0.059742 0.868619 -0.003357
v -0.133632 0.782375 0.023257
v -0.142776 0.863315 0.071200
v -0.077505 0.747293 0.252802
v -0.118168 0.848404 0.226379
v -0.140831 0.715475 0.169932
v -0.000541 0.864366 0.266914
v -0.000742 0.752147 0.275649
v 0.080127 0.747213 0.252802
v 0.137750 0.782375 0.023257
v 0.144637 0.863315 0.071200
v 0.066814 0.906614 0.059074
v -0.064160 0.906615 0.059076
v -0.099365 0.912801 0.165624
v 0.125551 0.848403 0.226379
v 0.144575 0.715413 0.169932
v -0.000247 0.928067 0.191041
v 0.105132 0.912801 0.165624
v 0.096720 0.684689 0.199122
v 0.062950 0.649355 0.159836
v -0.096275 0.684729 0.199122
v -0.062327 0.649427 0.159836
v 0.061963 0.559619 -0.013431
v 0.078199 0.551092 0.080177
v 0.068050 0.673571 0.070312
v -0.000782 0.654070 0.126734
v 0.051635 0.727072 -0.004409
v 0.121190 0.703330 0.048793
v 0.000046 0.547624 0.144947
v -0.054424 0.727073 -0.004409
v -0.118509 0.703374 0.048793
v -0.070025 0.673571 0.070312
v 0.000311 0.649370 0.159833
v -0.063345 0.559619 -0.013431
v -0.078389 0.551092 0.080177
v -0.189986 0.413933 0.053140
v -0.218144 0.382142 0.002852
v -0.197818 0.343602 0.053464
v -0.165384 0.384016 0.093018
v -0.244050 0.381271 0.084347
v -0.287930 0.409619 0.079862
v -0.279260 0.381278 0.022435
v -0.287234 0.350253 0.080570
v 0.189986 0.413933 0.053140
v 0.165384 0.384016 0.093018
v 0.197818 0.343603 0.053464
v 0.218144 0.382142 0.002852
v 0.279260 0.381278 0.022435
v 0.287930 0.409619 0.079862
v 0.244050 0.381271 0.084347
v 0.287234 0.350253 0.080570
v 0.078631 0.113452 0.000873
v 0.026276 0.123637 0.047901
v 0.088060 0.170833 -0.008253
v 0.029646 0.074482 0.058761
v 0.082931 0.060997 0.000873
v 0.035602 0.000000 0.041495
v 0.086810 0.000000 0.000873
v -0.024387 0.123637 0.047901
v -0.077009 0.113452 0.000873
v -0.092205 0.170833 -0.008253
v -0.027520 0.074482 0.058761
v -0.077372 0.088026 0.111249
v -0.033452 0.000000 0.074910
v -0.084189 0.000000 0.136055
v -0.120453 0.000000 0.071389
v -0.114983 0.077840 0.055241
v -0.111815 0.161384 0.052221
v -0.079542 0.153832 0.112696
v 0.122075 0.000000 0.037976
v 0.116605 0.077840 0.055241
v 0.038115 0.154222 0.122907
v -0.039354 0.154222 0.122907
v 0.001058 0.137617 -0.008005
v 0.001132 0.180297 -0.072430
v 0.035602 0.000000 0.074910
v 0.122075 0.000000 0.071389
v 0.078995 0.088026 0.111249
v 0.085811 0.000000 0.136055
v 0.107670 0.161384 0.052221
v 0.075397 0.153832 0.112696
v -0.033452 0.000000 0.041495
v -0.120453 0.000000 0.037976
v -0.081309 0.060997 0.000873
v -0.085188 0.000000 0.000873
v 0.000000 0.221658 -0.052717
v 0.016275 0.274367 -0.129335
v 0.025907 0.275116 -0.044066
v -0.000872 0.233906 -0.137987
v -0.026625 0.275116 -0.044066
v -0.015249 0.274945 -0.129335
v -0.000718 0.630127 0.270265
v 0.074740 0.614459 0.227151
v 0.090256 0.647157 0.251213
v -0.000113 0.604488 0.243670
v -0.071534 0.614601 0.227151
v 0.001415 0.622898 0.177468
v 0.000411 0.259562 -0.209767
v 0.019933 0.227557 -0.253287
v 0.019933 0.298029 -0.245388
v -0.039866 0.263895 -0.249696
v 0.000000 0.272871 -0.332801
v 0.090256 0.636033 0.267590
v 0.066957 0.702276 0.312317
v -0.000857 0.702299 0.332801
v -0.000718 0.615295 0.294984
v -0.064820 0.702362 0.312317
v -0.101002 0.841818 0.065317
v -0.065237 0.989781 0.022989
v -0.024417 0.846165 0.056593
v -0.104199 0.985014 0.023079
v -0.085787 1.000000 0.064851
v 0.065175 0.989782 0.022989
v 0.100940 0.841818 0.065317
v 0.024355 0.846165 0.056593
v 0.104138 0.985014 0.023079
v 0.085725 0.999998 0.064851
v 0.063906 0.865184 0.129487
v -0.089494 0.647287 0.251213
v 0.000223 0.684702 0.199121
v -0.089494 0.636163 0.267590
v 0.000000 0.264158 -0.243686
v -0.063968 0.865184 0.129487
vn 0.741718 -0.093250 -0.664197
vn 0.988336 0.114607 -0.100285
vn 0.956995 -0.279655 0.077159
vn 0.667955 0.195208 -0.718144
vn 0.000265 0.238014 -0.971262
vn -0.000051 0.226446 -0.974024
vn -0.668014 0.191357 -0.719124
vn -0.571097 0.344606 -0.745047
vn -0.828435 -0.558425 -0.043087
vn -0.965228 -0.248352 0.081583
vn -0.989041 0.107114 -0.101605
vn -0.740533 -0.085553 -0.666552
vn -0.834000 0.055932 0.548922
vn -0.540329 -0.357690 0.761644
vn 0.000211 0.033306 0.999445
vn -0.001783 -0.492265 0.870444
vn 0.536621 -0.373297 0.756761
vn -0.542549 0.227161 -0.808726
vn 0.499268 0.330375 -0.800989
vn -0.874750 0.358300 0.326242
vn -0.627774 0.288596 0.722919
vn 0.001171 0.381566 0.924341
vn -0.000006 0.253516 0.967331
vn 0.626285 0.294769 0.721719
vn 0.905220 0.061669 -0.420445
vn -0.136401 0.907498 -0.397293
vn 0.336639 -0.156683 0.928507
vn -0.028303 -0.738080 -0.674119
vn -0.982556 -0.173398 -0.067212
vn 0.544560 0.678942 -0.492434
vn -0.581382 0.795493 -0.170838
vn 0.653482 0.083817 0.752287
vn 0.026465 -0.734794 -0.677773
vn -0.781865 -0.524093 0.337659
vn 0.827574 -0.559695 -0.043165
vn 0.833029 0.057575 0.550226
vn 0.558304 0.199841 0.805208
vn 0.353428 -0.925258 0.137791
vn 0.597406 0.499757 -0.627175
vn 0.860273 -0.319508 0.397298
vn -0.564930 0.206534 0.798873
vn -0.364015 -0.920812 0.139993
vn -0.854131 -0.314595 0.414115
vn -0.596566 0.508668 -0.620779
vn 0.753190 0.256766 -0.605621
vn 0.870527 0.369218 0.325363
vn -0.222813 -0.066940 -0.972560
vn 0.317050 0.533742 -0.783964
vn 0.323403 -0.085252 -0.942413
vn -0.317160 0.628164 -0.710506
vn -0.430926 -0.253356 -0.866091
vn -0.607397 0.788854 -0.093690
vn -0.650952 0.214972 0.728045
vn -0.739680 0.347277 0.576431
vn -0.854759 -0.431835 0.287935
vn -0.009909 0.341478 0.939838
vn -0.006727 0.451534 0.892228
vn 0.645185 0.202787 0.736623
vn 0.420389 -0.265017 -0.867778
vn 0.612933 0.783218 -0.104320
vn 0.192527 0.917358 -0.348408
vn -0.230809 0.922746 -0.308652
vn -0.510426 0.846603 0.150760
vn 0.745231 0.343500 0.571523
vn 0.848145 -0.445657 0.286428
vn -0.006697 0.936418 0.350822
vn 0.509770 0.849098 0.138448
vn 0.905254 -0.408411 0.117116
vn 0.389709 -0.870017 -0.301990
vn -0.906018 -0.408138 0.112051
vn -0.398887 -0.867210 -0.298053
vn 0.545434 0.122095 -0.829214
vn 0.871231 0.202012 0.447378
vn 0.797094 -0.584330 -0.152316
vn -0.000641 -0.829382 0.558682
vn 0.365230 -0.399096 -0.841029
vn 0.675858 -0.632794 -0.377873
vn 0.000582 0.218192 0.975906
vn -0.383667 -0.313556 -0.868610
vn -0.688411 -0.623488 -0.370613
vn -0.802356 -0.580044 -0.140621
vn -0.000486 -0.846148 -0.532947
vn -0.763221 0.122518 -0.634415
vn -0.869487 0.200369 0.451492
vn -0.225622 0.958492 0.174323
vn -0.277028 -0.208289 -0.938014
vn -0.066745 -0.984588 0.161653
vn -0.242008 -0.271007 0.931658
vn 0.047997 0.034023 0.998268
vn -0.490915 0.635675 0.595751
vn -0.626835 0.025198 -0.778744
vn -0.510942 -0.617495 0.598029
vn 0.225622 0.958492 0.174323
vn 0.242012 -0.271011 0.931656
vn 0.066746 -0.984588 0.161653
vn 0.277033 -0.208296 -0.938012
vn 0.626834 0.025195 -0.778745
vn 0.490915 0.635675 0.595751
vn -0.047998 0.034020 0.998268
vn 0.510937 -0.617499 0.598029
vn -0.154788 -0.125995 -0.979881
vn -0.534690 -0.845021 -0.006878
vn 0.601931 -0.495069 -0.626567
vn -0.955691 -0.221718 -0.193639
vn 0.073543 0.075189 -0.994454
vn -0.717945 -0.640258 -0.273175
vn 0.057969 -0.558729 -0.827322
vn 0.462156 -0.884040 0.069896
vn 0.160311 -0.124388 -0.979198
vn -0.598628 -0.487549 -0.635563
vn 0.955762 -0.219979 -0.195263
vn -0.086422 0.148566 0.985119
vn 0.823005 -0.539477 0.177843
vn -0.069103 -0.519693 0.851554
vn -0.752458 -0.489306 -0.440893
vn -0.979678 -0.041841 -0.196163
vn -0.972163 -0.161387 0.169860
vn -0.472699 -0.540173 0.696254
vn 0.757133 -0.564526 0.328725
vn 0.981434 -0.004648 -0.191746
vn 0.102191 -0.811245 0.575707
vn -0.121168 -0.777220 0.617452
vn 0.007904 -0.904975 -0.425391
vn 0.006344 -0.544245 -0.838902
vn -0.824149 -0.539187 0.173365
vn 0.752368 -0.489396 -0.440946
vn 0.080205 0.162316 0.983474
vn 0.066669 -0.521832 0.850439
vn 0.974882 -0.143921 0.169978
vn 0.462154 -0.567941 0.681070
vn 0.715716 -0.640936 -0.277402
vn -0.757019 -0.564644 0.328784
vn -0.076001 0.075437 -0.994250
vn -0.060076 -0.557757 -0.827828
vn 0.594361 -0.792253 -0.138095
vn 0.951350 0.282132 -0.123837
vn 0.502587 0.862397 -0.060645
vn -0.452088 -0.866727 -0.210716
vn -0.985704 0.137796 -0.096956
vn -0.610775 0.784460 -0.107600
vn -0.004592 -0.498547 0.866851
vn 0.550856 -0.833979 0.032210
vn 0.397036 0.453781 0.797775
vn -0.004705 -0.971437 0.237249
vn -0.542243 -0.839792 0.026887
vn -0.000392 -0.832376 -0.554212
vn -0.010920 -0.096078 0.995314
vn 0.481279 -0.865384 0.139578
vn 0.489374 0.813684 0.313738
vn -0.973709 -0.007731 0.227666
vn -0.021665 0.130624 -0.991195
vn 0.648578 -0.749847 -0.130673
vn 0.552421 0.021963 0.833276
vn -0.007411 0.461481 0.887119
vn -0.006293 -0.652684 0.757604
vn -0.558732 0.029401 0.828827
vn -0.854636 -0.164764 -0.492392
vn 0.328085 0.351587 -0.876782
vn 0.962583 0.235564 -0.133951
vn -0.656844 0.494093 -0.569587
vn -0.079242 0.806517 0.585877
vn -0.328084 0.351605 -0.876775
vn 0.854639 -0.164765 -0.492387
vn -0.962584 0.235569 -0.133941
vn 0.656862 0.494112 -0.569549
vn 0.079249 0.806499 0.585900
vn 0.012343 0.430667 0.902426
vn -0.400227 0.445622 0.800775
vn -0.000220 -0.581496 0.813550
vn -0.655294 -0.744880 -0.125476
vn -0.008508 0.738952 -0.673704
vn -0.012342 0.430662 0.902429

g 19193_t.obj/AnonymousMesh0
f 1//1 2//2 3//3
f 4//4 2//2 1//1
f 5//5 4//4 1//1
f 6//6 4//4 5//5
f 7//7 6//6 5//5
f 8//8 6//6 7//7
f 9//9 8//8 7//7
f 10//10 11//11 12//12
f 13//13 11//11 10//10
f 14//14 13//13 10//10
f 15//15 13//13 14//14
f 16//16 15//15 14//14
f 17//17 15//15 16//16
f 8//8 18//18 19//19
f 20//20 18//18 8//8
f 21//21 20//20 8//8
f 22//22 20//20 21//21
f 23//23 22//22 21//21
f 24//24 22//22 23//23
f 25//25 26//26 27//27
f 28//28 26//26 25//25
f 27//27 28//28 25//25
f 29//29 28//28 27//27
f 26//26 29//29 27//27
f 28//28 29//29 26//26
f 30//30 31//31 32//32
f 33//33 31//31 30//30
f 32//32 33//33 30//30
f 34//34 33//33 32//32
f 31//31 34//34 32//32
f 33//33 34//34 31//31
f 13//13 9//9 11//11
f 21//21 9//9 13//13
f 15//15 21//21 13//13
f 23//23 21//21 15//15
f 24//24 23//23 15//15
f 4//4 35//35 2//2
f 19//19 35//35 4//4
f 6//6 19//19 4//4
f 8//8 19//19 6//6
f 7//7 11//11 9//9
f 12//12 11//11 7//7
f 5//5 12//12 7//7
f 36//36 15//15 17//17
f 24//24 15//15 36//36
f 35//35 24//24 36//36
f 36//36 2//2 35//35
f 3//3 2//2 36//36
f 17//17 3//3 36//36
f 37//37 38//38 39//39
f 40//40 38//38 37//37
f 41//41 42//42 43//43
f 44//44 42//42 41//41
f 45//45 19//19 18//18
f 46//46 19//19 45//45
f 24//24 46//46 22//22
f 19//19 46//46 24//24
f 47//47 48//48 49//49
f 50//50 48//48 47//47
f 51//51 50//50 47//47
f 52//52 50//50 51//51
f 53//53 54//54 55//55
f 56//56 54//54 53//53
f 57//57 56//56 53//53
f 58//58 56//56 57//57
f 48//48 59//59 49//49
f 60//60 59//59 48//48
f 61//61 60//60 48//48
f 50//50 61//61 48//48
f 62//62 61//61 50//50
f 52//52 62//62 50//50
f 54//54 43//43 55//55
f 52//52 43//43 54//54
f 63//63 52//52 54//54
f 64//64 65//65 40//40
f 58//58 65//65 64//64
f 56//56 58//58 64//64
f 64//64 66//66 56//56
f 67//67 66//66 64//64
f 60//60 67//67 64//64
f 65//65 68//68 69//69
f 58//58 68//68 65//65
f 55//55 70//70 53//53
f 71//71 70//70 55//55
f 37//37 60//60 40//40
f 39//39 60//60 37//37
f 39//39 59//59 60//60
f 38//38 59//59 39//39
f 42//42 51//51 43//43
f 44//44 51//51 42//42
f 44//44 52//52 51//51
f 41//41 52//52 44//44
f 54//54 66//66 63//63
f 56//56 66//66 54//54
f 67//67 60//60 61//61
f 62//62 52//52 63//63
f 38//38 40//40 59//59
f 41//41 43//43 52//52
f 64//64 40//40 60//60
f 72//72 45//45 18//18
f 73//73 45//45 72//72
f 74//74 73//73 72//72
f 75//75 73//73 74//74
f 59//59 76//76 49//49
f 77//77 76//76 59//59
f 40//40 77//77 59//59
f 65//65 77//77 40//40
f 73//73 46//46 45//45
f 22//22 46//46 73//73
f 78//78 22//22 73//73
f 79//79 51//51 47//47
f 80//80 51//51 79//79
f 81//81 80//80 79//79
f 71//71 75//75 82//82
f 81//81 75//75 71//71
f 80//80 81//81 71//71
f 83//83 18//18 84//84
f 72//72 18//18 83//83
f 79//79 72//72 83//83
f 20//20 84//84 18//18
f 22//22 84//84 20//20
f 78//78 84//84 22//22
f 75//75 84//84 78//78
f 72//72 76//76 74//74
f 79//79 76//76 72//72
f 55//55 80//80 71//71
f 43//43 80//80 55//55
f 47//47 76//76 79//79
f 49//49 76//76 47//47
f 69//69 77//77 65//65
f 74//74 77//77 69//69
f 69//69 75//75 74//74
f 82//82 75//75 69//69
f 83//83 81//81 79//79
f 84//84 81//81 83//83
f 75//75 81//81 84//84
f 75//75 78//78 73//73
f 80//80 43//43 51//51
f 74//74 76//76 77//77
f 8//8 85//85 21//21
f 86//86 85//85 8//8
f 9//9 86//86 8//8
f 87//87 86//86 9//9
f 88//88 87//87 9//9
f 89//89 87//87 88//88
f 85//85 89//89 88//88
f 90//90 89//89 85//85
f 91//91 90//90 85//85
f 92//92 90//90 91//91
f 87//87 92//92 91//91
f 89//89 92//92 87//87
f 24//24 93//93 19//19
f 94//94 93//93 24//24
f 35//35 94//94 24//24
f 95//95 94//94 35//35
f 96//96 95//95 35//35
f 97//97 95//95 96//96
f 93//93 97//97 96//96
f 98//98 97//97 93//93
f 99//99 98//98 93//93
f 100//100 98//98 99//99
f 95//95 100//100 99//99
f 97//97 100//100 95//95
f 101//101 102//102 103//103
f 104//104 102//102 101//101
f 105//105 104//104 101//101
f 106//106 104//104 105//105
f 107//107 106//106 105//105
f 108//108 109//109 110//110
f 111//111 109//109 108//108
f 112//112 111//111 108//108
f 113//113 111//111 112//112
f 114//114 113//113 112//112
f 115//115 111//111 113//113
f 116//116 111//111 115//115
f 112//112 116//116 115//115
f 117//117 116//116 112//112
f 118//118 117//117 112//112
f 119//119 104//104 106//106
f 120//120 104//104 119//119
f 105//105 120//120 119//119
f 101//101 120//120 105//105
f 121//121 108//108 102//102
f 122//122 108//108 121//121
f 16//16 122//122 121//121
f 14//14 122//122 16//16
f 123//123 103//103 102//102
f 124//124 103//103 123//123
f 110//110 124//124 123//123
f 12//12 124//124 110//110
f 125//125 104//104 126//126
f 127//127 104//104 125//125
f 128//128 127//127 125//125
f 126//126 127//127 128//128
f 120//120 126//126 104//104
f 127//127 126//126 120//120
f 129//129 127//127 120//120
f 130//130 127//127 129//129
f 131//131 111//111 132//132
f 133//133 111//111 131//131
f 134//134 133//133 131//131
f 132//132 133//133 134//134
f 116//116 132//132 111//111
f 133//133 132//132 116//116
f 109//109 133//133 116//116
f 111//111 133//133 109//109
f 10//10 118//118 14//14
f 117//117 118//118 10//10
f 110//110 117//117 10//10
f 103//103 120//120 101//101
f 129//129 120//120 103//103
f 122//122 118//118 108//108
f 14//14 118//118 122//122
f 130//130 121//121 102//102
f 17//17 121//121 130//130
f 5//5 124//124 12//12
f 1//1 124//124 5//5
f 130//130 3//3 17//17
f 129//129 3//3 130//130
f 103//103 3//3 129//129
f 1//1 3//3 103//103
f 110//110 116//116 117//117
f 109//109 116//116 110//110
f 127//127 102//102 104//104
f 130//130 102//102 127//127
f 21//21 88//88 9//9
f 85//85 88//88 21//21
f 91//91 86//86 87//87
f 85//85 86//86 91//91
f 96//96 19//19 93//93
f 35//35 19//19 96//96
f 99//99 94//94 95//95
f 93//93 94//94 99//99
f 125//125 126//126 128//128
f 106//106 107//107 119//119
f 105//105 119//119 107//107
f 131//131 132//132 134//134
f 113//113 114//114 115//115
f 102//102 108//108 123//123
f 16//16 121//121 17//17
f 123//123 108//108 110//110
f 124//124 1//1 103//103
f 10//10 12//12 110//110
f 112//112 115//115 114//114
f 112//112 108//108 118//118
f 89//89 90//90 92//92
f 98//98 100//100 97//97
f 137//137 136//136 135//135
f 138//138 136//136 135//135
f 135//135 138//138 139//139
f 140//140 138//138 139//139
f 137//137 140//140 139//139
f 136//136 140//140 137//137
f 141//141 142//142 143//143
f 144//144 142//142 141//141
f 145//145 144//144 141//141
f 146//146 144//144 145//145
f 71//71 146//146 145//145
f 82//82 146//146 71//71
f 147//147 148//148 149//149
f 150//150 148//148 147//147
f 149//149 150//150 147//147
f 151//151 150//150 149//149
f 148//148 151//151 149//149
f 150//150 151//151 148//148
f 58//58 152//152 68//68
f 153//153 152//152 58//58
f 154//154 153//153 58//58
f 155//155 153//153 154//154
f 156//156 155//155 154//154
f 157//157 158//158 159//159
f 160//160 158//158 157//157
f 161//161 160//160 157//157
f 158//158 160//160 161//161
f 159//159 158//158 161//161
f 162//162 163//163 164//164
f 165//165 163//163 162//162
f 166//166 165//165 162//162
f 163//163 165//165 166//166
f 167//167 163//163 166//166
f 143//143 168//168 141//141
f 169//169 168//168 143//143
f 68//68 169//169 143//143
f 152//152 169//169 68//68
f 170//170 169//169 152//152
f 155//155 170//170 152//152
f 170//170 53//53 70//70
f 156//156 53//53 170//170
f 155//155 156//156 170//170
f 154//154 53//53 156//156
f 57//57 53//53 154//154
f 58//58 57//57 154//154
f 66//66 62//62 63//63
f 61//61 62//62 66//66
f 67//67 61//61 66//66
f 171//171 138//138 140//140
f 136//136 138//138 171//171
f 140//140 136//136 171//171
f 146//146 142//142 144//144
f 69//69 142//142 146//146
f 82//82 69//69 146//146
f 168//168 145//145 141//141
f 70//70 145//145 168//168
f 142//142 68//68 143//143
f 69//69 68//68 142//142
f 172//172 161//161 157//157
f 159//159 161//161 172//172
f 166//166 164//164 167//167
f 162//162 164//164 166//166
f 170//170 70//70 169//169
f 155//155 152//152 153//153
f 168//168 169//169 70//70
f 70//70 71//71 145//145
