v 0.011486 0.039844 0.034702
v 0.050322 0.000027 -0.037510
v -0.008411 0.000040 0.069835
v 0.009885 0.108377 0.004012
v 0.054828 0.092162 0.052067
v 0.011758 0.196678 0.071671
v 0.088983 0.230433 0.064318
v -0.098757 0.230433 0.064318
v 0.090551 0.325940 0.050956
v -0.100325 0.325940 0.050956
v 0.079401 0.455114 0.028756
v -0.089175 0.455114 0.028756
v -0.075138 0.457563 -0.077912
v -0.241321 0.453714 -0.014934
v -0.268068 0.413325 -0.068017
v -0.326078 0.365987 0.030940
v -0.244387 0.367247 -0.026811
v -0.217856 0.417080 0.026646
v -0.358145 0.413746 -0.033168
v -0.383574 0.357478 0.086494
v -0.417673 0.413991 0.065563
v -0.383654 0.413645 0.115466
v -0.383735 0.468433 0.086278
v -0.326022 0.457446 0.030871
v 0.355343 0.365786 0.030940
v 0.211269 0.417080 0.026646
v 0.237800 0.367141 -0.018226
v 0.355287 0.457244 0.030871
v 0.373880 0.413645 0.115468
v 0.373960 0.468362 0.086278
v 0.408297 0.413194 0.065563
v 0.389801 0.413746 -0.033565
v 0.231547 0.453714 -0.014934
v 0.258294 0.413325 -0.068017
v 0.101948 0.120674 0.017556
v 0.110415 0.245630 -0.005925
v 0.084352 0.236083 -0.081808
v 0.072881 0.332202 -0.081712
v -0.004887 0.331759 -0.096033
v 0.065364 0.457563 -0.077912
v 0.098326 0.045972 0.036295
v 0.126910 0.000000 0.069835
v 0.053696 0.083256 -0.036144
v 0.062025 0.167230 -0.068535
v -0.004887 0.210048 -0.106541
v 0.373800 0.357407 0.086494
v 0.058453 0.000020 0.106086
v 0.057276 0.038931 0.097084
v -0.120189 0.245630 -0.005925
v -0.082655 0.332203 -0.081712
v -0.099661 0.367766 -0.023818
v 0.089887 0.367766 -0.023818
v -0.094126 0.236083 -0.081808
v -0.021532 0.196678 0.071671
v -0.151285 0.584800 0.077104
v -0.110196 0.476661 0.123169
v -0.159370 0.530896 0.154852
v -0.146187 0.486899 -0.043332
v -0.150288 0.559810 -0.108719
v -0.004887 0.473424 -0.138462
v -0.004887 0.548160 -0.159108
v 0.140514 0.559810 -0.108719
v 0.086330 0.611685 -0.249299
v 0.207065 0.630159 -0.167474
v 0.109302 0.771537 -0.286581
v 0.246132 0.812974 -0.093984
v 0.147279 0.909361 -0.204323
v 0.295540 0.808297 -0.159598
v 0.238508 0.910314 -0.232544
v 0.258872 0.976034 -0.053324
v 0.201629 1.000000 -0.072182
v 0.293673 0.798665 -0.004670
v -0.216839 0.630159 -0.167474
v -0.096104 0.611685 -0.249299
v -0.119076 0.771537 -0.286582
v -0.255906 0.812974 -0.093984
v -0.157053 0.909361 -0.204323
v -0.305315 0.808297 -0.159598
v -0.248282 0.910314 -0.232544
v -0.268646 0.976034 -0.053324
v -0.211403 1.000000 -0.072182
v -0.303447 0.798665 -0.004670
v 0.147030 0.952724 -0.112287
v -0.004887 0.981781 -0.108245
v -0.004887 0.993290 0.037276
v -0.156804 0.952724 -0.112287
v -0.193141 0.897133 0.092919
v 0.149596 0.530896 0.154852
v 0.124517 0.670221 0.180971
v 0.102533 0.639432 0.258698
v 0.141511 0.584800 0.077104
v 0.100422 0.476661 0.123169
v 0.136412 0.486899 -0.043332
v -0.004887 0.446593 -0.028896
v -0.060096 0.000027 -0.037510
v -0.021260 0.039844 0.034702
v -0.001363 0.000040 0.069835
v -0.019659 0.108377 0.004012
v -0.063470 0.083256 -0.036144
v -0.071799 0.167230 -0.068535
v -0.111722 0.120674 0.017556
v -0.136684 0.000000 0.069835
v -0.068227 0.000020 0.106086
v -0.067050 0.038931 0.097084
v -0.108100 0.045972 0.036295
v -0.064602 0.092162 0.052067
v -0.217286 0.622943 0.024950
v -0.250418 0.682598 -0.031587
v 0.183367 0.897133 0.092919
v -0.329302 0.809454 -0.017337
v 0.319528 0.809454 -0.017337
v -0.134291 0.670221 0.180971
v -0.112307 0.639432 0.258698
v -0.004887 0.913872 0.170192
v 0.240644 0.682598 -0.031587
v 0.207512 0.622943 0.024950
v -0.004887 0.677013 0.210653
v -0.163873 0.782083 0.160449
v 0.154099 0.782083 0.160449
v 0.221420 0.735538 0.092210
v -0.231194 0.735538 0.092210
v -0.045577 0.638539 0.276125
v -0.041962 0.655561 0.243778
v -0.004887 0.597132 0.270943
v -0.004887 0.474519 0.224022
v 0.032188 0.655561 0.243778
v 0.035803 0.638539 0.276125
v -0.120882 0.505938 0.184381
v -0.004887 0.638004 0.286582
v -0.004887 0.667261 0.229636
v 0.111108 0.505938 0.184381
v -0.004887 0.200702 -0.071446
v 0.023771 0.212257 -0.140168
v 0.021944 0.252175 -0.071446
v -0.034276 0.212273 -0.140168
v -0.031718 0.252175 -0.071446
v -0.004279 0.254673 -0.162475
v 0.413854 0.233025 0.179824
v 0.315411 0.399463 0.147021
v 0.314488 0.249519 0.173443
v 0.414980 0.415957 0.147587
v 0.101648 0.326267 0.188581
v -0.273334 0.170199 0.197686
v 0.091461 0.170199 0.210425
v -0.271413 0.482335 0.142682
v 0.093382 0.482335 0.155421
v 0.315340 0.344609 0.168097
v 0.417143 0.278757 0.177042
v 0.315146 0.301520 0.177240
v 0.417673 0.364897 0.161862
v 0.314468 0.304946 0.196663
v 0.416762 0.369500 0.187949
v 0.314662 0.348036 0.187521
v 0.416232 0.283360 0.203130
v -0.043335 0.423275 0.151627
v -0.039333 0.429241 0.039083
v -0.160176 0.456424 0.039690
v 0.081510 0.402057 0.056320
v 0.078746 0.420035 0.157395
v 0.077494 0.212520 0.089856
v 0.074730 0.230497 0.190933
v -0.042936 0.234508 0.186606
v -0.167122 0.177341 0.193084
v -0.163476 0.156259 0.086893
v -0.039231 0.213875 0.079144
v -0.239163 0.195630 0.079572
v -0.242591 0.217733 0.185601
v -0.266309 0.326432 0.161998
v -0.262450 0.307324 0.059044
v -0.235138 0.411465 0.044032
v -0.238567 0.429232 0.144754
v -0.163822 0.477506 0.140282
v -0.269589 0.151276 0.081157
v 0.097127 0.463412 0.038892
v 0.095206 0.151276 0.093897
v -0.267668 0.463412 0.026153
v 0.041196 0.299777 0.200837
v 0.041463 0.354707 0.189608
v 0.042107 0.351450 0.168322
v 0.041840 0.296521 0.179550
vn -0.842414 0.405233 0.355139
vn -0.003739 -0.348974 -0.937125
vn -0.811873 -0.470124 0.346187
vn -0.943722 -0.244231 -0.223023
vn -0.012222 -0.122754 0.992362
vn -0.394304 -0.286254 0.873260
vn 0.538990 0.003338 0.842306
vn -0.400178 0.054178 0.914835
vn 0.776990 0.129807 0.615984
vn -0.776811 0.135987 0.614875
vn 0.207185 0.688446 0.695066
vn -0.289890 0.647530 0.704747
vn -0.245864 0.681229 -0.689549
vn -0.108563 0.992641 -0.053649
vn -0.171714 -0.075571 -0.982244
vn 0.364683 -0.777467 0.512398
vn -0.048324 -0.983471 -0.174499
vn 0.150291 -0.125811 0.980604
vn -0.609017 0.035091 -0.792381
vn -0.484659 -0.864387 0.133944
vn -0.996687 0.006551 0.081073
vn 0.201581 0.005346 0.979457
vn -0.452806 0.881260 0.135449
vn 0.379002 0.781312 0.495892
vn -0.176374 -0.917002 0.357771
vn -0.110134 -0.099891 0.988884
vn 0.023720 -0.992646 -0.118708
vn -0.186155 0.926137 0.328049
vn -0.565087 0.004753 0.825018
vn 0.449391 0.813380 0.369407
vn 0.999510 0.008772 0.030064
vn 0.643708 0.036091 -0.764420
vn 0.100822 0.993463 -0.053544
vn 0.143477 -0.114759 -0.982977
vn 0.982543 -0.154793 -0.103192
vn 0.997131 0.066872 -0.035465
vn 0.640441 -0.101244 -0.761304
vn 0.820741 0.063293 -0.567784
vn 0.000000 0.063456 -0.997985
vn 0.278160 0.553369 -0.785117
vn 0.809474 0.444253 0.383916
vn 0.823583 -0.457856 0.334782
vn 0.064534 -0.169727 -0.983376
vn 0.275181 -0.467797 -0.839906
vn -0.000000 -0.512843 -0.858482
vn 0.458238 -0.796084 0.395309
vn -0.006207 -0.328516 0.944478
vn -0.027079 0.715523 0.698064
vn -0.997131 0.066871 -0.035465
vn -0.820741 0.063292 -0.567784
vn -0.722401 -0.679083 -0.130324
vn 0.722105 -0.685056 -0.096240
vn -0.640441 -0.101244 -0.761304
vn 0.482895 -0.415637 0.770752
vn -0.928066 -0.363778 0.079743
vn -0.492216 -0.866009 0.088046
vn -0.940825 -0.283791 0.185231
vn -0.710836 -0.684016 -0.163809
vn -0.621259 -0.681306 -0.387117
vn 0.000001 -0.710142 -0.704059
vn 0.000000 -0.693798 -0.720170
vn 0.621258 -0.681307 -0.387116
vn 0.224071 -0.594271 -0.772421
vn 0.815020 -0.432948 -0.385096
vn 0.495937 0.050438 -0.866892
vn 0.924553 -0.380567 -0.019252
vn -0.054554 0.499737 -0.864457
vn 0.392656 -0.801792 -0.450500
vn 0.396395 0.548823 -0.735979
vn 0.724383 0.602613 0.334852
vn -0.567095 0.752901 0.333982
vn -0.214356 -0.592508 0.776521
vn -0.815020 -0.432949 -0.385095
vn -0.266796 -0.657441 -0.704693
vn -0.358591 0.083640 -0.929740
vn -0.924553 -0.380566 -0.019252
vn 0.065260 0.497043 -0.865269
vn -0.392658 -0.801791 -0.450500
vn -0.396394 0.548824 -0.735979
vn -0.724382 0.602615 0.334853
vn 0.567095 0.752901 0.333982
vn 0.214355 -0.592508 0.776522
vn 0.171100 0.984404 0.040908
vn 0.000000 0.943391 -0.331682
vn 0.000000 0.977250 0.212093
vn -0.171100 0.984404 0.040908
vn -0.677473 0.584887 0.446024
vn 0.940825 -0.283791 0.185231
vn 0.746248 0.205729 0.633080
vn 0.524983 0.089355 0.846409
vn 0.928065 -0.363781 0.079742
vn 0.492216 -0.866009 0.088045
vn 0.710835 -0.684018 -0.163808
vn 0.000001 -0.998450 -0.055660
vn 0.003739 -0.348974 -0.937125
vn 0.842414 0.405233 0.355139
vn 0.811873 -0.470124 0.346187
vn 0.943722 -0.244231 -0.223023
vn -0.064534 -0.169727 -0.983376
vn -0.275181 -0.467797 -0.839906
vn -0.982543 -0.154793 -0.103192
vn -0.823583 -0.457856 0.334782
vn 0.006207 -0.328516 0.944478
vn 0.027079 0.715523 0.698064
vn -0.809474 0.444253 0.383916
vn 0.012221 -0.122754 0.992362
vn -0.793101 -0.560252 0.238975
vn -0.972716 -0.226653 0.049519
vn 0.677473 0.584887 0.446024
vn -0.905807 -0.177518 0.384710
vn 0.905808 -0.177520 0.384706
vn -0.746248 0.205729 0.633080
vn -0.524983 0.089355 0.846409
vn 0.000000 0.516482 0.856298
vn 0.972716 -0.226653 0.049519
vn 0.793101 -0.560252 0.238975
vn -0.000000 0.592113 0.805855
vn -0.473348 0.168322 0.864644
vn 0.473348 0.168322 0.864644
vn 0.896345 -0.053125 0.440164
vn -0.896345 -0.053125 0.440164
vn -0.229831 0.356956 0.905406
vn -0.115264 0.891140 0.438843
vn 0.000000 -0.358526 0.933520
vn 0.000000 -0.720205 0.693761
vn 0.115264 0.891140 0.438843
vn 0.229831 0.356956 0.905406
vn -0.559922 -0.623168 0.546031
vn 0.000000 0.616677 0.787216
vn 0.000000 0.889483 0.456967
vn 0.559922 -0.623168 0.546031
vn 0.000987 -0.977612 0.210415
vn 0.696736 -0.589048 -0.409368
vn 0.862698 0.504440 0.035943
vn -0.697915 -0.584903 -0.413284
vn -0.854423 0.518259 0.037003
vn 0.007775 0.735871 -0.677077
vn -0.034370 0.173647 0.984208
vn -0.034370 0.173647 0.984208
vn -0.034380 0.173642 0.984209
vn -0.034361 0.173652 0.984207
vn -0.039044 0.173518 0.984056
vn -0.041474 0.157212 0.986694
vn -0.034552 0.140742 0.989443
vn -0.041273 0.189835 0.980948
vn -0.034151 0.205980 0.977960
vn -0.026588 -0.196055 -0.980232
vn 0.426337 -0.175232 -0.887429
vn -0.019584 -0.205010 -0.978564
vn 0.904383 -0.079448 -0.419259
vn -0.020819 0.196300 0.980323
vn 0.414575 0.170662 0.893869
vn -0.008114 0.205149 0.978697
vn 0.879341 0.077396 0.469861
vn 0.224387 0.972785 -0.057794
vn 0.215198 0.974767 0.059325
vn 0.045650 0.992602 -0.112500
vn 0.538893 0.841575 -0.036682
vn 0.904402 0.423667 -0.050625
vn 0.687037 -0.710949 0.150105
vn 0.685025 -0.713804 0.145686
vn 0.119665 -0.975104 0.186690
vn -0.029102 -0.980430 0.194703
vn -0.025087 -0.980713 0.193839
vn 0.277590 -0.941267 0.192250
vn -0.800470 -0.592230 0.092259
vn -0.801008 -0.590703 0.097242
vn -0.999126 0.019307 -0.037064
vn -0.998966 0.019501 -0.041063
vn -0.803809 0.578499 -0.138674
vn -0.808237 0.574583 -0.128870
vn -0.237420 0.951157 -0.197313
vn 0.034371 -0.173648 -0.984208
vn 0.034371 -0.173648 -0.984208
vn 0.034372 -0.173650 -0.984207
vn 0.034370 -0.173647 -0.984208
vn 0.011694 0.203847 0.978933
vn 0.012373 0.200209 0.979675
vn -0.005310 -0.203893 -0.978979
vn -0.004618 -0.200245 -0.979735

g 19263_t.obj/AnonymousMesh0
f 1//1 2//2 3//3
f 4//4 2//2 1//1
f 5//5 4//4 1//1
f 6//6 4//4 5//5
f 7//7 6//6 5//5
f 8//8 6//6 7//7
f 7//7 8//8 9//9
f 9//9 8//8 10//10
f 9//9 10//10 11//11
f 11//11 10//10 12//12
f 11//11 12//12 13//13
f 14//14 12//12 13//13
f 15//15 14//14 13//13
f 16//16 17//17 18//18
f 19//19 17//17 16//16
f 20//20 19//19 16//16
f 21//21 19//19 20//20
f 22//22 21//21 20//20
f 23//23 21//21 22//22
f 24//24 23//23 22//22
f 19//19 23//23 24//24
f 14//14 19//19 24//24
f 15//15 19//19 14//14
f 25//25 26//26 27//27
f 28//28 26//26 25//25
f 29//29 28//28 25//25
f 30//30 28//28 29//29
f 31//31 30//30 29//29
f 28//28 30//30 31//31
f 32//32 28//28 31//31
f 33//33 28//28 32//32
f 34//34 33//33 32//32
f 35//35 7//7 5//5
f 36//36 7//7 35//35
f 37//37 36//36 35//35
f 38//38 36//36 37//37
f 39//39 38//38 37//37
f 40//40 38//38 39//39
f 13//13 40//40 39//39
f 11//11 40//40 13//13
f 2//2 41//41 42//42
f 35//35 41//41 2//2
f 43//43 35//35 2//2
f 44//44 35//35 43//43
f 4//4 44//44 43//43
f 45//45 44//44 4//4
f 6//6 45//45 4//4
f 32//32 27//27 34//34
f 25//25 27//27 32//32
f 31//31 25//25 32//32
f 46//46 25//25 31//31
f 29//29 46//46 31//31
f 25//25 46//46 29//29
f 42//42 3//3 2//2
f 47//47 3//3 42//42
f 48//48 47//47 42//42
f 3//3 47//47 48//48
f 1//1 3//3 48//48
f 10//10 49//49 8//8
f 50//50 49//49 10//10
f 51//51 50//50 10//10
f 13//13 50//50 51//51
f 15//15 13//13 51//51
f 33//33 11//11 26//26
f 40//40 11//11 33//33
f 34//34 40//40 33//33
f 52//52 40//40 34//34
f 27//27 52//52 34//34
f 16//16 22//22 20//20
f 24//24 22//22 16//16
f 18//18 24//24 16//16
f 14//14 24//24 18//18
f 39//39 50//50 13//13
f 53//53 50//50 39//39
f 45//45 53//53 39//39
f 12//12 51//51 10//10
f 18//18 51//51 12//12
f 14//14 18//18 12//12
f 52//52 11//11 9//9
f 26//26 11//11 52//52
f 27//27 26//26 52//52
f 41//41 48//48 42//42
f 1//1 48//48 41//41
f 41//41 5//5 1//1
f 35//35 5//5 41//41
f 44//44 37//37 35//35
f 45//45 37//37 44//44
f 36//36 9//9 7//7
f 38//38 9//9 36//36
f 17//17 51//51 18//18
f 15//15 51//51 17//17
f 38//38 52//52 9//9
f 40//40 52//52 38//38
f 4//4 43//43 2//2
f 6//6 54//54 45//45
f 8//8 54//54 6//6
f 50//50 53//53 49//49
f 37//37 45//45 39//39
f 19//19 21//21 23//23
f 15//15 17//17 19//19
f 33//33 26//26 28//28
f 55//55 56//56 57//57
f 58//58 56//56 55//55
f 59//59 58//58 55//55
f 60//60 58//58 59//59
f 61//61 60//60 59//59
f 62//62 60//60 61//61
f 63//63 62//62 61//61
f 64//64 62//62 63//63
f 65//65 64//64 63//63
f 66//66 64//64 65//65
f 67//67 66//66 65//65
f 68//68 66//66 67//67
f 69//69 68//68 67//67
f 70//70 68//68 69//69
f 71//71 70//70 69//69
f 72//72 70//70 71//71
f 66//66 72//72 71//71
f 68//68 72//72 66//66
f 73//73 74//74 59//59
f 75//75 74//74 73//73
f 76//76 75//75 73//73
f 77//77 75//75 76//76
f 78//78 77//77 76//76
f 79//79 77//77 78//78
f 80//80 79//79 78//78
f 81//81 79//79 80//80
f 82//82 81//81 80//80
f 76//76 81//81 82//82
f 78//78 76//76 82//82
f 67//67 71//71 69//69
f 83//83 71//71 67//67
f 84//84 83//83 67//67
f 85//85 83//83 84//84
f 86//86 85//85 84//84
f 87//87 85//85 86//86
f 76//76 87//87 86//86
f 88//88 89//89 90//90
f 91//91 89//89 88//88
f 92//92 91//91 88//88
f 93//93 91//91 92//92
f 94//94 93//93 92//92
f 60//60 93//93 94//94
f 58//58 60//60 94//94
f 95//95 96//96 97//97
f 98//98 96//96 95//95
f 99//99 98//98 95//95
f 100//100 98//98 99//99
f 101//101 100//100 99//99
f 53//53 100//100 101//101
f 49//49 53//53 101//101
f 97//97 102//102 95//95
f 103//103 102//102 97//97
f 104//104 103//103 97//97
f 102//102 103//103 104//104
f 105//105 102//102 104//104
f 105//105 95//95 102//102
f 101//101 95//95 105//105
f 106//106 101//101 105//105
f 8//8 101//101 106//106
f 54//54 8//8 106//106
f 74//74 61//61 59//59
f 63//63 61//61 74//74
f 75//75 63//63 74//74
f 65//65 63//63 75//75
f 67//67 65//65 75//75
f 107//107 59//59 55//55
f 73//73 59//59 107//107
f 108//108 73//73 107//107
f 76//76 73//73 108//108
f 98//98 54//54 106//106
f 45//45 54//54 98//98
f 100//100 45//45 98//98
f 53//53 45//45 100//100
f 86//86 81//81 76//76
f 77//77 81//81 86//86
f 84//84 77//77 86//86
f 67//67 77//77 84//84
f 83//83 66//66 71//71
f 109//109 66//66 83//83
f 85//85 109//109 83//83
f 110//110 82//82 80//80
f 78//78 82//82 110//110
f 80//80 78//78 110//110
f 111//111 70//70 72//72
f 68//68 70//70 111//111
f 72//72 68//68 111//111
f 112//112 57//57 113//113
f 55//55 57//57 112//112
f 114//114 85//85 87//87
f 109//109 85//85 114//114
f 115//115 64//64 66//66
f 116//116 64//64 115//115
f 116//116 62//62 64//64
f 91//91 62//62 116//116
f 62//62 93//93 60//60
f 91//91 93//93 62//62
f 94//94 56//56 58//58
f 92//92 56//56 94//94
f 104//104 96//96 105//105
f 97//97 96//96 104//104
f 96//96 106//106 105//105
f 98//98 106//106 96//96
f 95//95 101//101 99//99
f 49//49 101//101 8//8
f 81//81 77//77 79//79
f 77//77 67//67 75//75
f 117//117 118//118 112//112
f 114//114 118//118 117//117
f 119//119 114//114 117//117
f 109//109 114//114 119//119
f 120//120 109//109 119//119
f 66//66 109//109 120//120
f 115//115 66//66 120//120
f 112//112 107//107 55//55
f 121//121 107//107 112//112
f 118//118 121//121 112//112
f 87//87 121//121 118//118
f 114//114 87//87 118//118
f 89//89 119//119 117//117
f 120//120 119//119 89//89
f 116//116 120//120 89//89
f 115//115 120//120 116//116
f 121//121 108//108 107//107
f 76//76 108//108 121//121
f 87//87 76//76 121//121
f 89//89 91//91 116//116
f 113//113 122//122 123//123
f 124//124 122//122 113//113
f 125//125 124//124 113//113
f 90//90 124//124 125//125
f 126//126 89//89 117//117
f 90//90 89//89 126//126
f 127//127 90//90 126//126
f 124//124 90//90 127//127
f 125//125 56//56 92//92
f 128//128 56//56 125//125
f 113//113 128//128 125//125
f 129//129 123//123 122//122
f 130//130 123//123 129//129
f 126//126 130//130 129//129
f 57//57 128//128 113//113
f 56//56 128//128 57//57
f 131//131 88//88 90//90
f 92//92 88//88 131//131
f 131//131 125//125 92//92
f 90//90 125//125 131//131
f 124//124 129//129 122//122
f 127//127 129//129 124//124
f 130//130 117//117 123//123
f 126//126 117//117 130//130
f 112//112 123//123 117//117
f 113//113 123//123 112//112
f 127//127 126//126 129//129
f 132//132 133//133 134//134
f 135//135 133//133 132//132
f 136//136 135//135 132//132
f 137//137 135//135 136//136
f 136//136 137//137 134//134
f 133//133 137//137 134//134
f 140//140 139//139 138//138
f 138//138 139//139 141//141
f 133//133 135//135 137//137
f 142//142 143//143 144//144
f 145//145 143//143 142//142
f 146//146 145//145 142//142
f 149//149 148//148 147//147
f 147//147 148//148 150//150
f 151//151 152//152 153//153
f 154//154 152//152 151//151
f 154//154 150//150 152//152
f 148//148 150//150 154//154
f 155//155 156//156 157//157
f 158//158 156//156 155//155
f 159//159 158//158 155//155
f 160//160 158//158 159//159
f 161//161 160//160 159//159
f 162//162 160//160 161//161
f 163//163 164//164 165//165
f 166//166 164//164 163//163
f 167//167 166//166 163//163
f 168//168 166//166 167//167
f 168//168 169//169 166//166
f 170//170 169//169 168//168
f 171//171 170//170 168//168
f 172//172 170//170 171//171
f 173//173 174//174 175//175
f 176//176 174//174 173//173
f 153//153 177//177 151//151
f 178//178 177//177 153//153
f 149//149 179//179 147//147
f 180//180 179//179 149//149
f 162//162 165//165 160//160
f 163//163 165//165 162//162
f 172//172 157//157 170//170
f 155//155 157//157 172//172
