v 0.000000 0.735369 0.219595
v 0.000000 0.485090 0.301825
v 0.133634 0.485039 0.281981
v -0.133634 0.485039 0.281981
v -0.187159 0.709899 0.165079
v -0.261938 0.485117 0.180058
v -0.244072 0.660400 0.002979
v -0.277454 0.487585 -0.007943
v 0.032068 0.784706 0.055465
v 0.187160 0.709899 0.165079
v 0.244072 0.660400 0.002979
v 0.000000 0.784706 0.055465
v -0.032068 0.784706 0.055465
v 0.261938 0.485117 0.180058
v 0.277454 0.487585 -0.007943
v 0.168444 0.370390 0.180475
v 0.000000 0.323632 0.093866
v 0.055253 0.323478 0.033574
v 0.000000 0.371105 0.242323
v -0.168444 0.370390 0.180475
v -0.203448 0.362465 -0.019765
v -0.055253 0.323478 0.033574
v 0.203448 0.362465 -0.019765
v -0.080963 0.177878 -0.037830
v -0.100744 0.109831 -0.060763
v -0.139078 0.109787 0.028749
v -0.000000 0.109753 -0.109803
v 0.000000 0.198293 -0.067221
v 0.080963 0.177878 -0.037830
v 0.068946 0.222989 -0.030909
v 0.100870 0.195482 0.097151
v 0.087819 0.231470 0.093209
v 0.000000 0.200546 0.149376
v 0.000000 0.270070 0.125791
v -0.074597 0.312193 0.084122
v -0.087819 0.231470 0.093209
v -0.100870 0.195482 0.097151
v -0.000000 0.109932 0.169737
v -0.109520 0.109788 0.112781
v 0.062174 0.311224 -0.029674
v -0.062174 0.311224 -0.029674
v 0.085814 0.240671 0.034775
v 0.074597 0.312193 0.084122
v -0.068946 0.222989 -0.030909
v 0.100744 0.109831 -0.060763
v 0.139078 0.109787 0.028749
v 0.109520 0.109788 0.112781
v 0.000000 0.323332 -0.023635
v -0.085814 0.240671 0.034775
v -0.082280 0.143525 0.078956
v -0.044000 0.064133 0.077693
v -0.005485 0.143574 0.078956
v -0.077744 0.075065 0.035237
v -0.044054 0.143571 -0.023710
v -0.044008 0.103885 -0.010445
v -0.010236 0.075108 0.035237
v -0.043968 0.033424 0.002079
v -0.018621 0.000032 0.036709
v -0.043946 0.000022 0.009755
v -0.069272 0.000000 0.036709
v 0.005485 0.143574 0.078956
v 0.044000 0.064133 0.077693
v 0.082280 0.143525 0.078956
v 0.010236 0.075108 0.035237
v 0.044054 0.143571 -0.023710
v 0.044008 0.103885 -0.010445
v 0.077744 0.075065 0.035237
v 0.043968 0.033424 0.002079
v 0.069272 0.000000 0.036709
v 0.043946 0.000022 0.009755
v 0.018621 0.000032 0.036709
v 0.023746 0.182740 -0.127805
v -0.023746 0.182740 -0.049097
v 0.023746 0.182740 -0.049097
v -0.023746 0.182740 -0.127805
v 0.023746 0.182644 -0.200284
v -0.023746 0.182644 -0.200284
v 0.023746 0.182448 -0.276562
v -0.023746 0.182448 -0.276562
v -0.000000 0.164898 -0.301825
v -0.000000 0.149135 -0.276446
v -0.000000 0.149330 -0.200167
v -0.000000 0.149426 -0.127805
v -0.043946 0.000009 0.069848
v 0.043946 0.000009 0.069848
v -0.000000 0.149426 -0.049097
v 0.158179 0.285575 -0.012805
v 0.136270 0.305681 0.034175
v 0.113388 0.294892 0.075558
v 0.141805 0.249990 0.034436
v 0.202474 0.283420 0.008595
v 0.208549 0.298050 0.049733
v 0.172997 0.284885 0.064860
v 0.208062 0.264754 0.050294
v -0.136270 0.305681 0.034175
v -0.158179 0.285575 -0.012805
v -0.141805 0.249990 0.034436
v -0.113388 0.294892 0.075558
v -0.172997 0.284885 0.064854
v -0.208549 0.298050 0.049728
v -0.202473 0.283420 0.008590
v -0.208062 0.264754 0.050289
v -0.192758 0.490172 -0.158686
v -0.093169 0.368933 -0.144887
v 0.000000 0.492695 -0.221887
v 0.093169 0.368933 -0.144887
v 0.192758 0.490172 -0.158686
v -0.133616 1.000000 0.034287
v -0.124708 0.655715 -0.185623
v -0.062354 0.752238 -0.082734
v 0.133616 1.000000 0.034287
v 0.062354 0.752238 -0.082734
v 0.124709 0.655715 -0.185624
v 0.000000 0.655715 -0.185624
v 0.000000 0.752238 -0.082734
vn -0.000000 0.727821 0.685767
vn 0.000000 -0.082014 0.996631
vn 0.376879 -0.104430 0.920357
vn -0.376879 -0.104430 0.920357
vn -0.592517 0.641829 0.486805
vn -0.908350 -0.161203 0.385895
vn -0.921927 0.382773 -0.059458
vn -0.964126 -0.154064 -0.216160
vn 0.011569 0.989300 0.145434
vn 0.592518 0.641829 0.486804
vn 0.921928 0.382771 -0.059458
vn 0.000000 0.999531 0.030621
vn -0.011570 0.989300 0.145435
vn 0.908350 -0.161204 0.385894
vn 0.964126 -0.154064 -0.216160
vn 0.396133 -0.827735 0.397410
vn -0.000000 -0.286463 0.958091
vn 0.844867 -0.523146 -0.111882
vn -0.000000 -0.716572 0.697513
vn -0.396133 -0.827735 0.397410
vn -0.643103 -0.747048 -0.168338
vn -0.844868 -0.523146 -0.111882
vn 0.643103 -0.747048 -0.168338
vn -0.694856 0.401474 -0.596652
vn -0.443859 -0.790677 -0.421687
vn -0.996043 0.018225 -0.086981
vn 0.000000 -0.124713 -0.992193
vn 0.000000 0.263259 -0.964725
vn 0.694856 0.401474 -0.596652
vn 0.873250 0.096356 -0.477651
vn 0.852408 0.329107 0.406312
vn 0.859750 0.153989 0.486948
vn 0.000000 0.277190 0.960815
vn -0.000000 0.347033 0.937853
vn -0.507461 0.669047 0.543010
vn -0.859749 0.153989 0.486948
vn -0.852408 0.329107 0.406312
vn -0.000000 -0.678010 0.735053
vn -0.562473 -0.668357 0.486748
vn 0.407073 0.613105 -0.677047
vn -0.407073 0.613105 -0.677047
vn 0.708759 -0.705103 -0.022144
vn 0.507461 0.669047 0.543010
vn -0.873250 0.096356 -0.477651
vn 0.443859 -0.790677 -0.421687
vn 0.996043 0.018225 -0.086981
vn 0.562473 -0.668357 0.486748
vn 0.000000 -0.227558 -0.973765
vn -0.708759 -0.705103 -0.022144
vn -0.817712 -0.114076 0.564210
vn -0.000176 -0.274197 0.961673
vn 0.818192 -0.115624 0.563198
vn -0.984341 -0.144424 -0.101070
vn -0.000079 -0.063656 -0.997972
vn 0.000307 -0.249676 -0.968329
vn 0.984353 -0.143945 -0.101633
vn 0.000098 -0.183642 -0.982993
vn 0.681525 -0.699257 -0.215784
vn 0.000449 -0.695817 -0.718219
vn -0.680665 -0.700099 -0.215771
vn -0.818192 -0.115624 0.563198
vn 0.000176 -0.274197 0.961673
vn 0.817712 -0.114076 0.564210
vn -0.984353 -0.143945 -0.101633
vn 0.000079 -0.063656 -0.997972
vn -0.000307 -0.249676 -0.968329
vn 0.984341 -0.144424 -0.101070
vn -0.000098 -0.183642 -0.982993
vn 0.680665 -0.700099 -0.215771
vn -0.000449 -0.695817 -0.718219
vn -0.681525 -0.699257 -0.215784
vn 0.888941 0.458021 0.000078
vn -0.888941 0.458021 0.000000
vn 0.995157 -0.098297 0.000000
vn -0.888941 0.458021 -0.000404
vn 0.888942 0.458020 -0.000537
vn -0.888942 0.458019 -0.000990
vn 0.634393 0.680352 -0.366969
vn -0.809563 0.355719 -0.466981
vn 0.000000 -0.212822 -0.977091
vn 0.000000 -0.981120 -0.193400
vn 0.000000 -0.999999 0.001736
vn -0.000000 -1.000000 0.000442
vn 0.000185 -0.472882 0.881126
vn -0.000185 -0.472882 0.881126
vn 0.000000 -1.000000 0.000000
vn 0.305269 -0.178792 -0.935331
vn 0.212935 0.974397 0.072170
vn 0.222715 -0.059202 0.973084
vn 0.161138 -0.972820 0.166300
vn 0.726422 0.063038 -0.684351
vn 0.602513 0.685166 0.409299
vn 0.156001 0.121067 0.980309
vn 0.655041 -0.603321 0.454890
vn -0.212938 0.974396 0.072180
vn -0.305240 -0.178791 -0.935341
vn -0.161149 -0.972816 0.166314
vn -0.222748 -0.059195 0.973077
vn -0.156038 0.121070 0.980303
vn -0.602509 0.685157 0.409320
vn -0.726387 0.063038 -0.684389
vn -0.655041 -0.603307 0.454908
vn -0.678993 -0.167681 -0.714739
vn -0.236530 -0.790173 -0.565403
vn -0.000001 -0.126225 -0.992002
vn 0.236530 -0.790173 -0.565403
vn 0.678993 -0.167683 -0.714738
vn 0.236275 0.874596 -0.423387
vn -0.246114 0.454425 -0.856111
vn 0.386127 0.737289 -0.554357
vn -0.236275 0.874598 -0.423383
vn -0.386128 0.737289 -0.554355
vn 0.246114 0.454425 -0.856111
vn -0.000003 0.495229 -0.868762
vn -0.000001 0.881335 -0.472492

g 19266_t.obj/AnonymousMesh0
f 1//1 2//2 3//3
f 4//4 2//2 1//1
f 5//5 4//4 1//1
f 6//6 4//4 5//5
f 7//7 6//6 5//5
f 8//8 6//6 7//7
f 9//9 10//10 11//11
f 1//1 10//10 9//9
f 12//12 1//1 9//9
f 13//13 1//1 12//12
f 11//11 14//14 15//15
f 10//10 14//14 11//11
f 10//10 3//3 14//14
f 1//1 3//3 10//10
f 13//13 5//5 1//1
f 7//7 5//5 13//13
f 16//16 17//17 18//18
f 19//19 17//17 16//16
f 3//3 19//19 16//16
f 2//2 19//19 3//3
f 20//20 21//21 22//22
f 6//6 21//21 20//20
f 4//4 6//6 20//20
f 16//16 14//14 3//3
f 23//23 14//14 16//16
f 18//18 23//23 16//16
f 4//4 19//19 2//2
f 20//20 19//19 4//4
f 20//20 17//17 19//19
f 22//22 17//17 20//20
f 6//6 8//8 21//21
f 23//23 15//15 14//14
f 24//24 25//25 26//26
f 27//27 25//25 24//24
f 28//28 27//27 24//24
f 29//29 27//27 28//28
f 30//30 29//29 28//28
f 31//31 29//29 30//30
f 32//32 31//31 30//30
f 33//33 31//31 32//32
f 34//34 33//33 32//32
f 35//35 17//17 22//22
f 34//34 17//17 35//35
f 36//36 34//34 35//35
f 33//33 34//34 36//36
f 37//37 33//33 36//36
f 38//38 33//33 37//37
f 39//39 38//38 37//37
f 40//40 28//28 41//41
f 30//30 28//28 40//40
f 42//42 30//30 40//40
f 32//32 30//30 42//42
f 43//43 32//32 42//42
f 34//34 32//32 43//43
f 37//37 26//26 39//39
f 24//24 26//26 37//37
f 44//44 24//24 37//37
f 28//28 24//24 44//44
f 41//41 28//28 44//44
f 29//29 45//45 27//27
f 46//46 45//45 29//29
f 31//31 46//46 29//29
f 47//47 46//46 31//31
f 38//38 47//47 31//31
f 43//43 17//17 34//34
f 18//18 17//17 43//43
f 40//40 18//18 43//43
f 48//48 18//18 40//40
f 41//41 48//48 40//40
f 25//25 39//39 26//26
f 38//38 39//39 25//25
f 27//27 38//38 25//25
f 45//45 38//38 27//27
f 44//44 49//49 41//41
f 36//36 49//49 44//44
f 37//37 36//36 44//44
f 47//47 45//45 46//46
f 38//38 45//45 47//47
f 41//41 22//22 48//48
f 35//35 22//22 41//41
f 38//38 31//31 33//33
f 35//35 49//49 36//36
f 50//50 51//51 52//52
f 53//53 51//51 50//50
f 54//54 53//53 50//50
f 55//55 53//53 54//54
f 56//56 55//55 54//54
f 57//57 55//55 56//56
f 58//58 57//57 56//56
f 59//59 57//57 58//58
f 60//60 59//59 58//58
f 57//57 59//59 60//60
f 53//53 57//57 60//60
f 55//55 57//57 53//53
f 61//61 62//62 63//63
f 64//64 62//62 61//61
f 61//61 64//64 65//65
f 66//66 64//64 65//65
f 67//67 66//66 65//65
f 68//68 66//66 67//67
f 69//69 68//68 67//67
f 70//70 68//68 69//69
f 71//71 70//70 69//69
f 68//68 70//70 71//71
f 64//64 68//68 71//71
f 66//66 68//68 64//64
f 72//72 73//73 74//74
f 75//75 73//73 72//72
f 76//76 75//75 72//72
f 77//77 75//75 76//76
f 78//78 77//77 76//76
f 79//79 77//77 78//78
f 80//80 79//79 78//78
f 81//81 79//79 80//80
f 78//78 81//81 80//80
f 76//76 81//81 78//78
f 81//81 77//77 79//79
f 82//82 77//77 81//81
f 76//76 82//82 81//81
f 72//72 82//82 76//76
f 82//82 75//75 77//77
f 83//83 75//75 82//82
f 72//72 83//83 82//82
f 74//74 83//83 72//72
f 84//84 58//58 56//56
f 60//60 58//58 84//84
f 53//53 60//60 84//84
f 85//85 64//64 71//71
f 62//62 64//64 85//85
f 67//67 62//62 85//85
f 54//54 56//56 52//52
f 51//51 56//56 52//52
f 51//51 84//84 56//56
f 53//53 84//84 51//51
f 86//86 83//83 74//74
f 86//86 83//83 73//73
f 63//63 67//67 65//65
f 62//62 67//67 63//63
f 85//85 69//69 67//67
f 71//71 69//69 85//85
f 73//73 75//75 83//83
f 40//40 87//87 42//42
f 88//88 87//87 40//40
f 43//43 88//88 40//40
f 89//89 88//88 43//43
f 42//42 89//89 43//43
f 90//90 89//89 42//42
f 87//87 90//90 42//42
f 91//91 90//90 87//87
f 88//88 91//91 87//87
f 92//92 91//91 88//88
f 93//93 92//92 88//88
f 94//94 92//92 93//93
f 90//90 94//94 93//93
f 91//91 94//94 90//90
f 41//41 95//95 35//35
f 96//96 95//95 41//41
f 49//49 96//96 41//41
f 97//97 96//96 49//49
f 98//98 97//97 49//49
f 99//99 97//97 98//98
f 95//95 99//99 98//98
f 100//100 99//99 95//95
f 101//101 100//100 95//95
f 102//102 100//100 101//101
f 97//97 102//102 101//101
f 99//99 102//102 97//97
f 103//103 21//21 8//8
f 104//104 21//21 103//103
f 105//105 104//104 103//103
f 106//106 104//104 105//105
f 107//107 106//106 105//105
f 23//23 107//107 15//15
f 106//106 107//107 23//23
f 18//18 106//106 23//23
f 48//48 106//106 18//18
f 108//108 109//109 7//7
f 110//110 109//109 108//108
f 13//13 110//110 108//108
f 111//111 112//112 9//9
f 113//113 112//112 111//111
f 11//11 113//113 111//111
f 48//48 104//104 106//106
f 22//22 104//104 48//48
f 96//96 101//101 95//95
f 97//97 101//101 96//96
f 35//35 98//98 49//49
f 95//95 98//98 35//35
f 93//93 89//89 90//90
f 88//88 89//89 93//93
f 111//111 9//9 11//11
f 13//13 108//108 7//7
f 104//104 22//22 21//21
f 100//100 102//102 99//99
f 92//92 94//94 91//91
f 107//107 11//11 15//15
f 113//113 11//11 107//107
f 105//105 113//113 107//107
f 114//114 113//113 105//105
f 109//109 114//114 105//105
f 115//115 114//114 109//109
f 110//110 115//115 109//109
f 13//13 115//115 110//110
f 115//115 113//113 114//114
f 112//112 113//113 115//115
f 9//9 112//112 115//115
f 12//12 115//115 13//13
f 9//9 115//115 12//12
f 7//7 103//103 8//8
f 109//109 103//103 7//7
f 105//105 103//103 109//109
