v -0.086255 0.366641 0.023648
v -0.063731 0.466418 -0.062204
v -0.089424 0.398446 -0.096118
v -0.002091 0.473349 -0.014308
v -0.002110 0.375027 0.055622
v 0.084094 0.366641 0.023694
v 0.094742 0.205818 0.080911
v 0.142076 0.248955 -0.100019
v 0.210990 0.221860 -0.118740
v 0.102490 0.317403 -0.259566
v -0.002037 0.356185 -0.217543
v -0.102957 0.317403 -0.259565
v 0.099692 0.356238 -0.163455
v -0.002044 0.457837 -0.192196
v 0.063693 0.457724 -0.142404
v -0.002065 0.535461 -0.111877
v 0.063706 0.466418 -0.062170
v 0.089418 0.398446 -0.096070
v -0.099840 0.356238 -0.163508
v -0.063674 0.457724 -0.142438
v -0.139552 0.248955 -0.100019
v -0.092756 0.205818 0.080911
v -0.209602 0.221860 -0.118740
v -0.495457 0.445598 0.024274
v -0.386563 0.460472 -0.032549
v -0.393879 0.455056 -0.136607
v -0.500000 0.440885 -0.106793
v -0.475001 0.396744 -0.237091
v -0.372261 0.417688 -0.225564
v 0.495457 0.445598 0.024274
v 0.386563 0.460472 -0.032549
v 0.500000 0.440885 -0.106793
v 0.393880 0.453598 -0.136607
v 0.475001 0.396744 -0.237091
v 0.372261 0.417689 -0.225564
v -0.126698 0.700234 0.126954
v -0.209107 0.880808 0.009210
v -0.251855 0.672820 0.004743
v -0.000048 0.899380 0.072058
v -0.000065 0.770936 0.133528
v 0.126572 0.700234 0.127022
v 0.209045 0.880807 0.009322
v 0.251794 0.672820 0.004878
v 0.096482 0.940159 -0.261332
v 0.000009 0.989001 -0.141559
v 0.146473 0.964194 -0.091192
v -0.096399 0.940159 -0.261383
v 0.079458 0.868241 -0.367738
v -0.079318 0.868241 -0.367781
v 0.000095 0.871246 -0.460416
v -0.129703 0.798110 -0.338179
v 0.129826 0.798110 -0.338110
v -0.136734 0.632590 -0.339194
v 0.136858 0.632590 -0.339121
v 0.100096 0.519004 -0.247867
v 0.246025 0.640767 -0.221661
v 0.207374 0.522851 -0.116715
v 0.119301 0.521649 0.028729
v -0.000055 0.564164 0.095953
v 0.000976 0.293257 0.054081
v 0.116014 0.169689 -0.036061
v 0.094521 0.293038 -0.023451
v 0.000000 0.147340 0.013388
v -0.115930 0.169689 -0.036061
v -0.000000 0.130125 -0.137480
v -0.118962 0.184850 -0.193580
v -0.062985 0.197492 -0.266916
v -0.066321 0.288527 -0.262809
v 0.000000 0.313539 -0.328022
v -0.002138 0.309166 -0.161122
v 0.064218 0.288527 -0.262809
v 0.093044 0.294431 -0.117765
v 0.119046 0.184850 -0.193580
v -0.146482 0.964194 -0.091270
v -0.232221 0.818820 -0.214611
v -0.245964 0.640767 -0.221793
v -0.100020 0.519004 -0.247920
v -0.000004 0.476980 -0.092906
v -0.054056 0.486709 -0.110628
v -0.108364 0.506588 -0.107776
v -0.106499 0.477532 -0.043554
v -0.106465 0.464591 -0.171997
v -0.119827 0.395089 -0.144625
v -0.119847 0.395089 -0.070933
v -0.177086 0.416388 -0.134174
v -0.171559 0.418886 -0.082215
v -0.166750 0.476745 -0.071597
v -0.173620 0.476348 -0.135612
v 0.119847 0.395089 -0.144561
v 0.106499 0.464591 -0.171940
v 0.119827 0.395089 -0.070869
v 0.106464 0.477532 -0.043497
v 0.054058 0.486709 -0.110599
v 0.108364 0.506588 -0.107718
v 0.233076 0.411372 -0.146898
v 0.171559 0.418886 -0.082215
v 0.177087 0.416389 -0.134174
v 0.302780 0.447603 -0.213193
v 0.229543 0.471608 -0.147446
v 0.166750 0.476745 -0.071597
v 0.173620 0.476349 -0.135612
v -0.207369 0.522852 -0.116826
v -0.229542 0.471608 -0.147446
v -0.302780 0.447603 -0.213193
v -0.233076 0.411371 -0.146898
v 0.232278 0.818820 -0.214486
v -0.000025 0.973662 -0.015680
v -0.119375 0.521649 0.028665
v -0.097523 0.294431 -0.117816
v 0.063418 0.197492 -0.266916
v -0.098945 0.293038 -0.023503
v 0.065928 0.092234 -0.077988
v 0.053274 0.189521 -0.137901
v 0.069972 0.189467 -0.082084
v 0.053221 0.120817 -0.112646
v 0.053174 0.069093 -0.118988
v 0.040825 0.092284 -0.077988
v 0.030811 0.002445 -0.145720
v 0.063018 0.029440 -0.100865
v 0.027310 0.002399 -0.004335
v 0.102423 0.034936 -0.008556
v 0.074650 0.002195 0.060098
v 0.152627 0.001969 0.038742
v 0.166260 0.000000 -0.042149
v -0.040825 0.092284 -0.077988
v -0.053274 0.189521 -0.137901
v -0.035185 0.189524 -0.082084
v -0.053221 0.120817 -0.112646
v -0.053174 0.069093 -0.118988
v -0.065928 0.092234 -0.077988
v -0.087847 0.002750 -0.152799
v -0.063018 0.029440 -0.100865
v -0.166260 0.000000 -0.042149
v -0.102423 0.034936 -0.008556
v -0.152628 0.001969 0.038742
v -0.074650 0.002195 0.060098
v -0.027310 0.002399 -0.004335
v -0.059663 0.532766 0.184218
v -0.122008 0.608164 0.274761
v -0.043324 0.523982 0.299626
v -0.054614 0.617776 0.404514
v 0.043095 0.523982 0.299649
v 0.054336 0.617776 0.404544
v 0.121787 0.608164 0.274826
v 0.090953 0.731702 0.380642
v 0.110348 0.784620 0.390673
v 0.112031 0.740450 0.400548
v 0.134137 0.714592 0.272306
v 0.000223 0.770665 0.460416
v -0.000149 0.823249 0.447303
v -0.110615 0.784620 0.390614
v -0.000125 0.796470 0.360554
v -0.000110 0.782761 0.273926
v -0.106474 0.710999 0.275668
v -0.091215 0.731702 0.380593
v -0.046804 0.750832 0.424659
v -0.134357 0.714592 0.272234
v -0.112303 0.740450 0.400488
v -0.000063 0.700234 0.126988
v 0.059497 0.532766 0.184250
v 0.106255 0.710999 0.275725
v 0.087847 0.002750 -0.152799
v -0.030811 0.002445 -0.145720
v -0.000131 0.731702 0.380617
v 0.046519 0.750832 0.424684
v 0.035185 0.189524 -0.082084
v -0.069972 0.189467 -0.082084
vn -0.809780 0.392547 0.436078
vn -0.134248 0.521776 0.842453
vn -0.735584 -0.657772 0.162026
vn -0.009675 0.722176 0.691642
vn -0.003406 0.406270 0.913747
vn 0.801753 0.397620 0.446195
vn 0.589983 -0.169991 0.789318
vn 0.800905 0.570689 0.181287
vn 0.598109 -0.666994 -0.444280
vn 0.533197 0.688099 -0.492160
vn -0.004846 0.691336 -0.722517
vn -0.563210 0.417932 -0.712831
vn 0.832047 0.442082 -0.335053
vn -0.011804 0.478959 -0.877758
vn 0.021514 0.336110 -0.941577
vn -0.016593 0.995086 -0.097612
vn 0.115193 0.523913 0.843947
vn 0.727514 -0.664118 0.172253
vn -0.836607 0.437192 -0.330078
vn -0.040500 0.331846 -0.942464
vn -0.808132 0.560004 0.182533
vn -0.581654 0.158014 0.797941
vn -0.597893 -0.795826 -0.095834
vn -0.429989 -0.004342 0.902824
vn -0.060434 -0.172687 0.983121
vn -0.459832 0.877603 -0.135525
vn -0.979968 -0.197275 -0.027312
vn -0.536037 -0.451964 -0.713016
vn -0.207650 -0.928381 -0.308204
vn 0.429998 -0.004346 0.902819
vn 0.060434 -0.172687 0.983121
vn 0.979968 -0.197273 -0.027312
vn 0.459828 0.877605 -0.135526
vn 0.536037 -0.451962 -0.713018
vn 0.207634 -0.928382 -0.308214
vn -0.864423 0.170469 0.472983
vn -0.654803 0.554693 0.513370
vn -0.924871 -0.159645 0.345148
vn -0.000222 0.557463 0.830202
vn -0.000141 0.851288 0.524698
vn 0.864153 0.170452 0.473482
vn 0.654530 0.554691 0.513720
vn 0.924685 -0.159645 0.345645
vn 0.434986 0.780191 -0.449544
vn 0.000030 0.993679 -0.112255
vn 0.483232 0.875436 0.009972
vn -0.372351 0.798393 -0.473206
vn 0.365436 0.785708 -0.499119
vn -0.464923 0.751742 -0.467686
vn 0.000250 0.363658 -0.931532
vn -0.632689 0.072852 -0.770972
vn 0.556346 0.064939 -0.828409
vn -0.252809 -0.344810 -0.903987
vn 0.383597 -0.343853 -0.857099
vn 0.256483 -0.804054 -0.536389
vn 0.865222 -0.248561 -0.435441
vn 0.620607 -0.784066 -0.009394
vn 0.336459 -0.768392 0.544397
vn -0.000043 -0.984381 0.176053
vn 0.007374 -0.135122 0.990802
vn 0.832842 -0.394075 0.388689
vn 0.900415 0.113973 0.419838
vn -0.000030 -0.775671 0.631137
vn -0.823409 -0.412482 0.389687
vn -0.000006 -0.985885 -0.167423
vn -0.880240 -0.350672 -0.319696
vn -0.421567 -0.542819 -0.726380
vn -0.729600 0.558645 -0.394461
vn 0.006241 0.542359 -0.840124
vn 0.000240 0.999606 -0.028066
vn 0.727629 0.571099 -0.380002
vn 0.871016 0.486195 -0.070331
vn 0.888300 -0.332292 -0.317026
vn -0.483236 0.875436 0.009712
vn -0.883060 0.369280 -0.289548
vn -0.864987 -0.248565 -0.435906
vn -0.306670 -0.826160 -0.472667
vn -0.000005 -0.999917 0.012896
vn 0.676175 0.731094 -0.091046
vn -0.042386 0.997592 -0.054896
vn 0.022053 0.425552 0.904665
vn 0.170789 0.412335 -0.894881
vn 0.057277 -0.727404 -0.683814
vn -0.024146 -0.843233 0.537006
vn -0.190059 -0.828854 -0.526192
vn -0.229864 -0.803445 0.549217
vn -0.220940 0.867803 0.445088
vn -0.183350 0.484059 -0.855611
vn -0.057160 -0.727372 -0.683859
vn -0.170500 0.412278 -0.894962
vn 0.024009 -0.843249 0.536986
vn -0.022214 0.425624 0.904628
vn -0.676126 0.731093 -0.091412
vn 0.042400 0.997591 -0.054911
vn -0.318434 -0.615964 -0.720547
vn 0.229883 -0.803430 0.549231
vn 0.189996 -0.828895 -0.526150
vn -0.259355 0.474689 -0.841074
vn -0.166841 0.820877 -0.546191
vn 0.220951 0.867782 0.445123
vn 0.183316 0.484063 -0.855616
vn -0.620601 -0.784066 -0.009729
vn 0.166847 0.820873 -0.546196
vn 0.259352 0.474686 -0.841077
vn 0.318432 -0.615967 -0.720545
vn 0.883216 0.369277 -0.289073
vn -0.000116 0.899571 0.436774
vn -0.336752 -0.768393 0.544215
vn -0.883667 0.461704 -0.077215
vn 0.429074 -0.536865 -0.726410
vn -0.897112 0.079282 0.434632
vn 0.979266 -0.027826 0.200656
vn 0.000954 -0.289182 -0.957274
vn 0.487839 0.016479 0.872778
vn -0.005656 -0.165648 -0.986169
vn -0.086812 0.510652 -0.855393
vn -0.888077 -0.098906 0.448929
vn -0.941461 0.079234 -0.327679
vn 0.004510 0.813025 0.582211
vn -0.930392 -0.275969 0.241271
vn 0.056937 0.986031 0.156525
vn -0.293418 -0.280557 0.913889
vn 0.569909 0.653997 0.497484
vn 0.920764 -0.264464 -0.286797
vn 0.960666 -0.116831 0.251936
vn -0.000954 -0.289182 -0.957274
vn 0.489439 0.008341 0.871998
vn 0.005656 -0.165648 -0.986169
vn 0.086812 0.510652 -0.855393
vn -0.914638 -0.016868 0.403923
vn -0.784322 0.292660 -0.546982
vn -0.004510 0.813025 0.582211
vn -0.915966 -0.262022 -0.303893
vn -0.056936 0.986032 0.156523
vn -0.710640 -0.303711 0.634626
vn 0.221261 0.697999 0.681059
vn 0.926993 -0.274571 0.255529
vn -0.433805 -0.866847 -0.245742
vn -0.944157 -0.282263 0.169987
vn -0.420276 -0.854550 0.305142
vn -0.441957 -0.474060 0.761539
vn 0.280568 -0.905795 0.317517
vn 0.440908 -0.357959 0.823083
vn 0.944065 -0.282273 0.170477
vn 0.795756 0.563199 0.222662
vn 0.629199 0.743404 0.226846
vn 0.698107 -0.366931 0.614823
vn 0.611643 -0.783946 0.106401
vn 0.000302 -0.461843 0.886962
vn 0.000324 0.902492 0.430706
vn -0.629362 0.742990 0.227746
vn 0.000063 0.974124 -0.226015
vn 0.000056 0.978955 -0.204077
vn -0.418506 0.906036 -0.062859
vn -0.795848 0.563216 0.222291
vn -0.275206 0.586579 0.761700
vn -0.611943 -0.783744 0.106164
vn -0.697675 -0.366865 0.615354
vn -0.000268 0.085282 0.996357
vn 0.519674 -0.808386 -0.276498
vn 0.418545 0.906033 -0.062641
vn 0.809512 -0.167266 -0.562771
vn 0.882538 -0.348708 -0.315482
vn 0.000080 0.954671 -0.297662
vn 0.346998 0.816007 0.462303
vn -0.807996 -0.022064 0.588775
vn -0.801886 -0.008184 0.597422

g 19370_t.obj/AnonymousMesh0
f 1//1 2//2 3//3
f 4//4 2//2 1//1
f 5//5 4//4 1//1
f 6//6 4//4 5//5
f 7//7 6//6 5//5
f 8//8 6//6 7//7
f 9//9 8//8 7//7
f 10//10 8//8 9//9
f 11//11 10//10 12//12
f 13//13 10//10 11//11
f 14//14 13//13 11//11
f 15//15 13//13 14//14
f 16//16 15//15 14//14
f 17//17 15//15 16//16
f 18//18 13//13 15//15
f 6//6 13//13 18//18
f 17//17 6//6 18//18
f 4//4 6//6 17//17
f 16//16 4//4 17//17
f 2//2 4//4 16//16
f 19//19 3//3 20//20
f 1//1 3//3 19//19
f 21//21 1//1 19//19
f 22//22 1//1 21//21
f 23//23 22//22 21//21
f 14//14 20//20 16//16
f 19//19 20//20 14//14
f 11//11 19//19 14//14
f 12//12 19//19 11//11
f 23//23 7//7 22//22
f 9//9 7//7 23//23
f 12//12 9//9 23//23
f 10//10 9//9 12//12
f 12//12 21//21 19//19
f 23//23 21//21 12//12
f 13//13 8//8 10//10
f 6//6 8//8 13//13
f 22//22 5//5 1//1
f 7//7 5//5 22//22
f 20//20 2//2 16//16
f 24//24 25//25 26//26
f 24//24 25//25 26//26
f 24//24 26//26 27//27
f 28//28 26//26 27//27
f 27//27 28//28 26//26
f 26//26 28//28 29//29
f 30//30 33//33 31//31
f 32//32 33//33 30//30
f 30//30 32//32 33//33
f 33//33 32//32 34//34
f 33//33 34//34 35//35
f 33//33 34//34 35//35
f 27//27 24//24 26//26
f 28//28 29//29 26//26
f 32//32 34//34 33//33
f 31//31 30//30 33//33
f 36//36 37//37 38//38
f 39//39 37//37 36//36
f 40//40 39//39 36//36
f 41//41 39//39 40//40
f 42//42 41//41 43//43
f 39//39 41//41 42//42
f 44//44 45//45 46//46
f 47//47 45//45 44//44
f 48//48 47//47 44//44
f 49//49 47//47 48//48
f 50//50 49//49 48//48
f 51//51 49//49 50//50
f 52//52 51//51 50//50
f 53//53 51//51 52//52
f 54//54 53//53 52//52
f 55//55 53//53 54//54
f 56//56 55//55 54//54
f 57//57 55//55 56//56
f 43//43 57//57 56//56
f 58//58 57//57 43//43
f 41//41 58//58 43//43
f 59//59 58//58 41//41
f 60//60 61//61 62//62
f 63//63 61//61 60//60
f 64//64 63//63 60//60
f 65//65 63//63 64//64
f 66//66 65//65 64//64
f 67//67 65//65 66//66
f 68//68 67//67 66//66
f 69//69 67//67 68//68
f 70//70 69//69 68//68
f 71//71 69//69 70//70
f 72//72 71//71 70//70
f 73//73 71//71 72//72
f 61//61 73//73 72//72
f 65//65 73//73 61//61
f 63//63 65//65 61//61
f 47//47 74//74 45//45
f 75//75 74//74 47//47
f 51//51 75//75 47//47
f 76//76 75//75 51//51
f 53//53 76//76 51//51
f 77//77 76//76 53//53
f 55//55 77//77 53//53
f 78//78 77//77 55//55
f 57//57 78//78 55//55
f 58//58 78//78 57//57
f 79//79 80//80 81//81
f 82//82 80//80 79//79
f 20//20 82//82 79//79
f 83//83 82//82 20//20
f 3//3 83//83 20//20
f 84//84 83//83 3//3
f 2//2 84//84 3//3
f 81//81 84//84 2//2
f 79//79 81//81 2//2
f 84//84 85//85 83//83
f 86//86 85//85 84//84
f 81//81 86//86 84//84
f 87//87 86//86 81//81
f 80//80 87//87 81//81
f 88//88 87//87 80//80
f 82//82 88//88 80//80
f 83//83 88//88 82//82
f 89//89 15//15 90//90
f 18//18 15//15 89//89
f 91//91 18//18 89//89
f 17//17 18//18 91//91
f 92//92 17//17 91//91
f 93//93 17//17 92//92
f 94//94 93//93 92//92
f 95//95 96//96 97//97
f 35//35 96//96 95//95
f 98//98 35//35 95//95
f 33//33 35//35 98//98
f 99//99 33//33 98//98
f 100//100 33//33 99//99
f 101//101 100//100 99//99
f 75//75 37//37 74//74
f 38//38 37//37 75//75
f 76//76 38//38 75//75
f 102//102 38//38 76//76
f 77//77 102//102 76//76
f 78//78 102//102 77//77
f 26//26 103//103 104//104
f 87//87 103//103 26//26
f 25//25 87//87 26//26
f 86//86 87//87 25//25
f 26//26 86//86 25//25
f 29//29 86//86 26//26
f 104//104 29//29 26//26
f 105//105 29//29 104//104
f 103//103 105//105 104//104
f 88//88 105//105 103//103
f 87//87 88//88 103//103
f 52//52 56//56 54//54
f 106//106 56//56 52//52
f 44//44 106//106 52//52
f 46//46 106//106 44//44
f 107//107 42//42 46//46
f 39//39 42//42 107//107
f 37//37 39//39 107//107
f 108//108 36//36 38//38
f 59//59 36//36 108//108
f 58//58 59//59 108//108
f 105//105 86//86 29//29
f 85//85 86//86 105//105
f 88//88 85//85 105//105
f 93//93 15//15 17//17
f 90//90 15//15 93//93
f 94//94 90//90 93//93
f 95//95 99//99 98//98
f 101//101 99//99 95//95
f 97//97 101//101 95//95
f 109//109 66//66 64//64
f 68//68 66//66 109//109
f 70//70 68//68 109//109
f 110//110 67//67 69//69
f 65//65 67//67 110//110
f 73//73 65//65 110//110
f 45//45 107//107 46//46
f 74//74 107//107 45//45
f 97//97 91//91 89//89
f 96//96 91//91 97//97
f 96//96 92//92 91//91
f 100//100 92//92 96//96
f 100//100 94//94 92//92
f 101//101 94//94 100//100
f 89//89 101//101 97//97
f 90//90 101//101 89//89
f 48//48 52//52 50//50
f 44//44 52//52 48//48
f 42//42 106//106 46//46
f 43//43 106//106 42//42
f 102//102 108//108 38//38
f 78//78 108//108 102//102
f 33//33 96//96 35//35
f 31//31 96//96 33//33
f 31//31 100//100 96//96
f 33//33 100//100 31//31
f 111//111 64//64 60//60
f 109//109 64//64 111//111
f 71//71 110//110 69//69
f 73//73 110//110 71//71
f 74//74 37//37 107//107
f 83//83 85//85 88//88
f 90//90 94//94 101//101
f 51//51 47//47 49//49
f 106//106 43//43 56//56
f 108//108 78//78 58//58
f 2//2 20//20 79//79
f 72//72 62//62 61//61
f 114//114 113//113 112//112
f 115//115 113//113 112//112
f 116//116 115//115 112//112
f 117//117 115//115 116//116
f 118//118 117//117 116//116
f 119//119 117//117 118//118
f 120//120 119//119 118//118
f 121//121 119//119 120//120
f 122//122 121//121 120//120
f 123//123 121//121 122//122
f 124//124 123//123 122//122
f 121//121 123//123 124//124
f 119//119 121//121 124//124
f 127//127 126//126 125//125
f 128//128 126//126 125//125
f 129//129 128//128 125//125
f 130//130 128//128 129//129
f 131//131 130//130 129//129
f 132//132 130//130 131//131
f 133//133 132//132 131//131
f 134//134 132//132 133//133
f 135//135 134//134 133//133
f 136//136 134//134 135//135
f 137//137 136//136 135//135
f 134//134 136//136 137//137
f 132//132 134//134 137//137
f 138//138 36//36 59//59
f 139//139 36//36 138//138
f 140//140 139//139 138//138
f 141//141 139//139 140//140
f 142//142 141//141 140//140
f 143//143 141//141 142//142
f 144//144 143//143 142//142
f 145//145 143//143 144//144
f 146//146 147//147 148//148
f 149//149 147//147 146//146
f 150//150 149//149 146//146
f 151//151 149//149 150//150
f 152//152 151//151 150//150
f 153//153 151//151 152//152
f 146//146 153//153 152//152
f 148//148 153//153 146//146
f 139//139 154//154 36//36
f 155//155 154//154 139//139
f 141//141 155//155 139//139
f 156//156 155//155 141//141
f 143//143 156//156 141//141
f 157//157 149//149 158//158
f 157//157 149//149 148//148
f 159//159 148//148 157//157
f 41//41 148//148 159//159
f 41//41 160//160 59//59
f 144//144 160//160 41//41
f 161//161 144//144 41//41
f 145//145 144//144 161//161
f 157//157 153//153 36//36
f 151//151 153//153 157//157
f 158//158 151//151 157//157
f 149//149 151//151 158//158
f 120//120 124//124 122//122
f 162//162 124//124 120//120
f 118//118 162//162 120//120
f 116//116 162//162 118//118
f 133//133 137//137 135//135
f 163//163 137//137 133//133
f 131//131 163//163 133//133
f 129//129 163//163 131//131
f 41//41 161//161 159//159
f 159//159 161//161 154//154
f 36//36 154//154 159//159
f 138//138 142//142 140//140
f 160//160 142//142 138//138
f 59//59 160//160 138//138
f 153//153 40//40 36//36
f 41//41 40//40 153//153
f 148//148 41//41 153//153
f 164//164 156//156 165//165
f 155//155 156//156 164//164
f 154//154 155//155 164//164
f 117//117 113//113 115//115
f 117//117 113//113 166//166
f 117//117 166//166 114//114
f 162//162 119//119 124//124
f 112//112 119//119 162//162
f 116//116 112//112 162//162
f 130//130 126//126 128//128
f 130//130 126//126 167//167
f 130//130 167//167 127//127
f 163//163 132//132 137//137
f 125//125 132//132 163//163
f 129//129 125//125 163//163
f 165//165 143//143 145//145
f 156//156 143//143 165//165
f 145//145 164//164 165//165
f 161//161 164//164 145//145
f 112//112 117//117 119//119
f 114//114 117//117 112//112
f 130//130 125//125 127//127
f 132//132 125//125 130//130
f 149//149 148//148 147//147
f 157//157 36//36 159//159
f 144//144 142//142 160//160
f 152//152 150//150 146//146
f 161//161 154//154 164//164
