v 0.204233 0.292646 0.069151
v 0.147574 0.131161 -0.096896
v 0.141962 0.364696 -0.080164
v 0.000001 0.364696 -0.148521
v 0.000000 0.154812 -0.171485
v 0.156713 0.433121 0.001303
v -0.141961 0.364697 -0.080164
v 0.146621 0.124542 0.232377
v 0.158527 0.039830 0.065044
v 0.224237 0.153676 0.108461
v 0.100049 0.047244 0.181073
v 0.000000 0.067596 -0.128141
v 0.025311 0.108506 -0.166989
v 0.119739 0.073382 -0.032063
v 0.000000 0.116765 0.304799
v 0.000000 0.049647 0.239036
v 0.000000 0.009763 0.028949
v 0.000000 0.213282 0.308922
v 0.204233 0.292646 0.130332
v 0.122533 0.233321 0.245267
v -0.146621 0.124543 0.232377
v -0.158527 0.039830 0.065043
v -0.100049 0.047245 0.181072
v -0.224236 0.153676 0.108461
v -0.147573 0.131162 -0.096897
v -0.119738 0.087000 -0.030553
v -0.025310 0.108506 -0.166989
v -0.122533 0.233321 0.245267
v 0.213426 0.280980 0.101157
v 0.323124 0.292181 0.178035
v 0.213426 0.306751 0.101157
v 0.168605 0.320813 0.185836
v -0.168605 0.320813 0.185836
v -0.204232 0.294435 0.067002
v -0.156712 0.433121 0.001302
v -0.213425 0.280980 0.101155
v -0.213425 0.306752 0.101155
v -0.323124 0.292289 0.178041
v -0.204232 0.292647 0.130332
v 0.125003 0.286439 0.237288
v -0.125003 0.286439 0.237286
v 0.000000 0.243574 0.325348
v 0.074523 0.255090 0.300348
v -0.074523 0.255090 0.300348
v 0.000000 0.282055 0.132353
v 0.073995 0.281479 0.307622
v 0.124562 0.300945 0.244042
v 0.000000 0.274361 0.326807
v -0.073995 0.281479 0.307622
v -0.124562 0.300946 0.244042
v -0.162758 0.329765 0.189213
v 0.116766 0.356787 0.236247
v 0.070485 0.309701 0.302713
v 0.161839 0.340282 0.192469
v 0.122724 0.322189 0.250573
v 0.070074 0.281645 0.308574
v 0.000000 0.274373 0.329084
v -0.116766 0.356787 0.236246
v -0.070485 0.309702 0.302713
v 0.000000 0.334319 0.297691
v -0.161838 0.340283 0.192469
v -0.122724 0.322189 0.250573
v -0.070074 0.281645 0.308574
v 0.000001 0.495213 -0.076890
v 0.083452 0.501725 0.036307
v 0.000000 0.459856 0.254932
v 0.000001 0.669241 -0.058679
v 0.169670 0.349763 0.168860
v 0.174935 0.340806 0.159871
v 0.178228 0.424677 0.090466
v 0.221861 0.522957 -0.020128
v 0.216514 0.392220 0.086249
v 0.256831 0.410155 0.011994
v 0.000001 0.539931 0.113475
v 0.088750 0.303538 0.143275
v 0.162758 0.329764 0.189214
v 0.167085 0.339398 0.171384
v 0.232690 0.337263 0.044117
v -0.083451 0.501728 0.036307
v -0.178227 0.424677 0.090466
v -0.093142 0.465988 0.208735
v -0.174935 0.340807 0.159870
v -0.169669 0.349764 0.168860
v -0.221860 0.522957 -0.020129
v -0.216513 0.392220 0.086249
v -0.256830 0.410155 0.011993
v -0.088750 0.303538 0.143275
v -0.167085 0.339398 0.171383
v -0.232689 0.337264 0.044115
v -0.181527 0.421968 0.082884
v 0.000000 0.306027 0.319847
v 0.339540 0.314735 0.103300
v 0.328110 0.292181 0.031859
v 0.341948 0.269735 0.103300
v 0.464791 0.291945 -0.028774
v 0.500000 0.290641 0.098138
v 0.475903 0.291945 0.186730
v 0.000001 0.227708 -0.290392
v 0.000001 0.126368 -0.329084
v 0.000000 0.024277 -0.290392
v -0.339540 0.269735 0.103307
v -0.328109 0.292289 0.031865
v -0.341947 0.314735 0.103307
v -0.464787 0.292524 -0.028771
v -0.500000 0.293829 0.098142
v -0.475903 0.292524 0.186733
v 0.210957 0.000000 0.270173
v 0.052497 0.000000 0.219271
v 0.026549 0.000000 0.068313
v 0.112330 0.000000 0.303991
v 0.181442 0.050718 0.237865
v 0.078149 0.071075 0.191192
v 0.241851 0.000000 0.162213
v 0.164457 0.000000 0.096717
v 0.047509 0.032320 0.091256
v 0.138805 0.071075 0.124797
v -0.210958 0.000001 0.270173
v -0.052498 0.000000 0.219271
v -0.112330 0.000001 0.303991
v -0.026549 0.000000 0.068313
v -0.181443 0.050719 0.237865
v -0.078150 0.071076 0.191191
v -0.164457 0.000001 0.096717
v -0.241851 0.000001 0.162211
v -0.138805 0.071076 0.124797
v -0.047509 0.032320 0.091256
v 0.093143 0.465988 0.208735
vn 0.831981 0.084290 -0.548364
vn 0.704403 -0.245760 -0.665897
vn 0.702774 0.290125 -0.649567
vn 0.000002 0.231019 -0.972949
vn -0.000003 0.456637 -0.889653
vn 0.853614 0.435865 -0.285244
vn -0.701275 0.290936 -0.650822
vn 0.679401 -0.279250 0.678553
vn 0.619218 -0.785219 0.000992
vn 0.979030 -0.202676 -0.020565
vn 0.347107 -0.832761 0.431307
vn -0.015134 -0.928406 -0.371258
vn 0.957437 -0.112866 -0.265659
vn 0.550753 -0.732452 -0.400232
vn -0.077565 -0.450622 0.889339
vn -0.000006 -0.886678 0.462388
vn -0.013935 -0.992305 -0.123028
vn 0.072903 -0.374291 0.924441
vn 0.804579 0.116105 0.582385
vn 0.705446 -0.083143 0.703870
vn -0.708237 -0.319979 0.629296
vn -0.628301 -0.777289 -0.032543
vn -0.347110 -0.832760 0.431306
vn -0.975980 -0.217162 -0.017435
vn -0.705312 -0.274068 -0.653775
vn -0.551267 -0.736961 -0.391142
vn -0.957436 -0.112862 -0.265666
vn -0.671289 -0.077630 0.737119
vn 0.516809 -0.851248 0.091027
vn -0.251324 -0.014560 0.967794
vn 0.524742 0.841637 0.127644
vn 0.794392 0.226146 0.563737
vn -0.794381 0.226164 0.563745
vn -0.837794 0.095311 -0.537603
vn -0.781792 0.559293 -0.275669
vn -0.519311 -0.849801 0.090299
vn -0.519606 0.842106 0.144451
vn 0.251475 -0.012792 0.967779
vn -0.804587 0.116102 0.582375
vn 0.784657 -0.023730 0.619476
vn -0.784656 -0.023730 0.619477
vn 0.000000 -0.267862 0.963457
vn 0.571190 -0.259155 0.778833
vn -0.571194 -0.259159 0.778829
vn 0.000256 -0.180594 0.983558
vn 0.306712 0.651967 0.693445
vn 0.804766 -0.109785 0.583351
vn 0.000000 0.343075 0.939308
vn -0.306708 0.651967 0.693448
vn -0.804774 -0.109803 0.583337
vn -0.893549 0.010215 0.448850
vn 0.613402 0.467742 0.636361
vn 0.479865 0.346978 0.805814
vn 0.842233 0.164486 0.513409
vn 0.744996 0.138773 0.652474
vn 0.482193 -0.431483 0.762438
vn 0.000000 -0.629855 0.776712
vn -0.613400 0.467751 0.636357
vn -0.479863 0.346982 0.805813
vn 0.000000 0.521108 0.853491
vn -0.842240 0.164478 0.513399
vn -0.744998 0.138782 0.652471
vn -0.482192 -0.431486 0.762437
vn 0.000002 0.609076 -0.793112
vn 0.699953 0.710673 -0.070781
vn -0.000001 0.648898 0.760875
vn 0.000015 0.973452 -0.228890
vn 0.897522 0.175136 0.404700
vn 0.886582 0.231799 0.400301
vn 0.807134 0.476203 0.348949
vn 0.653730 0.461335 0.599839
vn 0.763693 0.270207 0.586312
vn 0.852965 0.151105 0.499617
vn 0.000006 0.905467 0.424417
vn -0.140485 -0.284101 0.948447
vn 0.893555 0.010204 0.448839
vn 0.888116 0.153236 0.433323
vn 0.887602 -0.085699 0.452569
vn -0.699953 0.710672 -0.070781
vn -0.613431 0.646664 0.453352
vn -0.541018 0.632569 0.554217
vn -0.890935 0.219385 0.397624
vn -0.897506 0.175165 0.404721
vn -0.247725 0.706445 0.662999
vn -0.763697 0.270204 0.586307
vn -0.852970 0.151099 0.499612
vn 0.140468 -0.284275 0.948397
vn -0.888090 0.153288 0.433358
vn -0.887605 -0.085710 0.452560
vn -0.873133 -0.370940 -0.316294
vn 0.000002 0.374808 0.927102
vn -0.006100 0.998190 -0.059825
vn -0.348177 -0.002017 -0.937427
vn -0.019785 -0.998640 -0.048237
vn 0.047576 -0.005278 -0.998854
vn 0.999982 -0.005971 -0.000311
vn 0.360149 -0.003004 0.932890
vn -0.000012 0.964731 0.263238
vn 0.000001 -0.014109 -0.999900
vn -0.000008 -0.996296 -0.085985
vn 0.015715 -0.998428 -0.053794
vn 0.340741 0.002936 -0.940153
vn 0.009137 0.998774 -0.048660
vn -0.047552 0.005277 -0.998855
vn -0.999982 0.005969 -0.000323
vn -0.360158 0.003001 0.932887
vn 0.329466 -0.892360 0.308456
vn -0.922146 -0.254604 0.291245
vn -0.344312 -0.323331 -0.881423
vn -0.264302 0.436598 0.859958
vn 0.373304 0.859070 0.350205
vn -0.449723 0.856941 0.251796
vn 0.884353 0.399599 -0.241331
vn 0.365503 -0.539179 -0.758745
vn -0.633857 0.728731 -0.259186
vn 0.248872 0.818972 -0.517057
vn -0.329471 -0.892359 0.308455
vn 0.922144 -0.254605 0.291249
vn 0.264306 0.436598 0.859956
vn 0.344311 -0.323332 -0.881423
vn -0.373305 0.859071 0.350201
vn 0.449727 0.856940 0.251793
vn -0.365499 -0.539178 -0.758748
vn -0.884351 0.399597 -0.241342
vn -0.248866 0.818971 -0.517061
vn 0.633861 0.728728 -0.259183
vn 0.541018 0.632571 0.554214

g 2378_t.obj/AnonymousMesh0
f 1//1 2//2 3//3
f 1//1 3//3 6//6
f 2//2 4//4 3//3
f 4//4 2//2 5//5
f 6//6 69//69 31//31
f 25//25 4//4 5//5
f 4//4 25//25 7//7
f 1//1 6//6 31//31
f 1//1 10//10 2//2
f 8//8 9//9 10//10
f 9//9 8//8 11//11
f 2//2 12//12 13//13
f 12//12 2//2 14//14
f 15//15 11//11 8//8
f 11//11 15//15 16//16
f 10//10 14//14 2//2
f 14//14 10//10 9//9
f 17//17 9//9 11//11
f 13//13 5//5 2//2
f 18//18 15//15 8//8
f 17//17 11//11 16//16
f 19//19 8//8 10//10
f 8//8 19//19 20//20
f 17//17 14//14 9//9
f 14//14 17//17 12//12
f 21//21 22//22 23//23
f 22//22 21//21 24//24
f 25//25 12//12 26//26
f 12//12 25//25 27//27
f 15//15 23//23 16//16
f 23//23 15//15 21//21
f 24//24 26//26 22//22
f 26//26 24//24 25//25
f 23//23 22//22 17//17
f 25//25 5//5 27//27
f 15//15 28//28 21//21
f 28//28 15//15 18//18
f 16//16 23//23 17//17
f 39//39 21//21 28//28
f 21//21 39//39 24//24
f 17//17 26//26 12//12
f 26//26 17//17 22//22
f 18//18 8//8 20//20
f 19//19 10//10 29//29
f 29//29 30//30 19//19
f 30//30 31//31 19//19
f 10//10 1//1 29//29
f 31//31 69//69 19//19
f 19//19 69//69 32//32
f 32//32 20//20 19//19
f 33//33 82//82 39//39
f 28//28 33//33 39//39
f 7//7 25//25 34//34
f 35//35 7//7 34//34
f 82//82 35//35 37//37
f 35//35 34//34 37//37
f 24//24 34//34 25//25
f 36//36 24//24 39//39
f 34//34 24//24 36//36
f 37//37 38//38 39//39
f 38//38 36//36 39//39
f 20//20 32//32 40//40
f 33//33 28//28 41//41
f 42//42 18//18 43//43
f 20//20 43//43 18//18
f 43//43 20//20 40//40
f 44//44 18//18 42//42
f 28//28 44//44 41//41
f 44//44 28//28 18//18
f 45//45 46//46 47//47
f 46//46 45//45 48//48
f 45//45 76//76 47//47
f 40//40 76//76 47//47
f 76//76 40//40 32//32
f 45//45 49//49 48//48
f 49//49 45//45 50//50
f 50//50 51//51 45//45
f 41//41 51//51 33//33
f 51//51 41//41 50//50
f 39//39 82//82 37//37
f 52//52 53//53 55//55
f 53//53 52//52 60//60
f 47//47 54//54 55//55
f 54//54 47//47 76//76
f 54//54 52//52 55//55
f 57//57 56//56 45//45
f 47//47 45//45 76//76
f 47//47 56//56 45//45
f 58//58 59//59 60//60
f 59//59 58//58 62//62
f 50//50 61//61 51//51
f 61//61 50//50 62//62
f 62//62 58//58 61//61
f 57//57 45//45 63//63
f 50//50 45//45 63//63
f 51//51 45//45 50//50
f 4//4 64//64 3//3
f 70//70 65//65 127//127
f 74//74 66//66 127//127
f 67//67 65//65 64//64
f 68//68 69//69 70//70
f 6//6 64//64 65//65
f 64//64 6//6 3//3
f 70//70 6//6 65//65
f 71//71 72//72 73//73
f 72//72 71//71 70//70
f 72//72 70//70 69//69
f 74//74 65//65 67//67
f 74//74 127//127 65//65
f 77//77 76//76 75//75
f 75//75 76//76 45//45
f 76//76 68//68 54//54
f 68//68 76//76 77//77
f 32//32 77//77 76//76
f 77//77 32//32 69//69
f 76//76 75//75 77//77
f 76//76 45//45 75//75
f 68//68 77//77 69//69
f 52//52 68//68 70//70
f 68//68 52//52 54//54
f 73//73 72//72 78//78
f 72//72 69//69 78//78
f 69//69 6//6 70//70
f 7//7 64//64 4//4
f 81//81 79//79 80//80
f 81//81 66//66 74//74
f 64//64 79//79 67//67
f 80//80 82//82 83//83
f 35//35 64//64 7//7
f 64//64 35//35 79//79
f 79//79 35//35 80//80
f 80//80 35//35 84//84
f 84//84 85//85 80//80
f 85//85 84//84 86//86
f 82//82 80//80 85//85
f 67//67 79//79 74//74
f 79//79 81//81 74//74
f 45//45 51//51 87//87
f 87//87 51//51 88//88
f 51//51 83//83 88//88
f 83//83 51//51 61//61
f 33//33 88//88 82//82
f 88//88 33//33 51//51
f 87//87 51//51 88//88
f 87//87 45//45 51//51
f 82//82 88//88 83//83
f 58//58 83//83 61//61
f 83//83 58//58 80//80
f 89//89 85//85 86//86
f 89//89 82//82 85//85
f 35//35 82//82 90//90
f 53//53 47//47 55//55
f 47//47 53//53 56//56
f 91//91 56//56 53//53
f 56//56 91//91 57//57
f 53//53 60//60 91//91
f 59//59 50//50 63//63
f 50//50 59//59 62//62
f 91//91 63//63 57//57
f 63//63 91//91 59//59
f 91//91 60//60 59//59
f 47//47 43//43 40//40
f 43//43 47//47 46//46
f 48//48 43//43 46//46
f 43//43 48//48 42//42
f 50//50 44//44 49//49
f 44//44 50//50 41//41
f 48//48 44//44 42//42
f 44//44 48//48 49//49
f 92//92 1//1 31//31
f 1//1 92//92 93//93
f 30//30 29//29 94//94
f 31//31 30//30 92//92
f 94//94 1//1 93//93
f 1//1 94//94 29//29
f 95//95 92//92 96//96
f 92//92 95//95 93//93
f 97//97 94//94 96//96
f 94//94 97//97 30//30
f 92//92 97//97 96//96
f 97//97 92//92 30//30
f 94//94 95//95 96//96
f 95//95 94//94 93//93
f 98//98 13//13 99//99
f 13//13 98//98 5//5
f 100//100 13//13 12//12
f 13//13 100//100 99//99
f 98//98 27//27 5//5
f 27//27 98//98 99//99
f 100//100 27//27 99//99
f 27//27 100//100 12//12
f 101//101 34//34 36//36
f 34//34 101//101 102//102
f 38//38 37//37 103//103
f 36//36 38//38 101//101
f 103//103 34//34 102//102
f 34//34 103//103 37//37
f 104//104 101//101 105//105
f 101//101 104//104 102//102
f 106//106 103//103 105//105
f 103//103 106//106 38//38
f 101//101 106//106 105//105
f 106//106 101//101 38//38
f 103//103 104//104 105//105
f 104//104 103//103 102//102
f 107//107 108//108 109//109
f 108//108 107//107 110//110
f 111//111 110//110 107//107
f 110//110 111//111 112//112
f 116//116 113//113 114//114
f 108//108 115//115 109//109
f 115//115 108//108 112//112
f 112//112 116//116 115//115
f 109//109 116//116 114//114
f 115//115 109//109 116//116
f 112//112 108//108 110//110
f 107//107 114//114 113//113
f 114//114 107//107 109//109
f 112//112 111//111 116//116
f 113//113 111//111 107//107
f 111//111 113//113 116//116
f 117//117 118//118 119//119
f 118//118 117//117 120//120
f 119//119 121//121 117//117
f 121//121 119//119 122//122
f 123//123 124//124 125//125
f 118//118 126//126 122//122
f 126//126 118//118 120//120
f 126//126 125//125 122//122
f 126//126 125//125 120//120
f 125//125 120//120 123//123
f 119//119 118//118 122//122
f 123//123 117//117 124//124
f 117//117 123//123 120//120
f 125//125 121//121 122//122
f 124//124 121//121 125//125
f 121//121 124//124 117//117
f 127//127 60//60 52//52
f 70//70 127//127 52//52
f 60//60 81//81 58//58
f 81//81 60//60 66//66
f 58//58 81//81 80//80
f 60//60 127//127 66//66
