v -0.000000 0.643137 0.398039
v -0.000000 0.686275 0.331373
v -0.078433 0.619607 0.374510
v -0.000000 0.576470 0.425490
v 0.078431 0.619607 0.374510
v 0.050979 0.545098 0.421568
v 0.137255 0.533333 0.339215
v 0.094117 0.474509 0.390195
v 0.105881 0.435294 0.296078
v 0.066666 0.423529 0.441176
v -0.000000 0.392156 0.425490
v -0.000000 0.427451 0.472549
v -0.062745 0.423529 0.441176
v -0.027451 0.482353 0.484314
v -0.094118 0.474509 0.390195
v -0.047059 0.545098 0.421568
v -0.137256 0.533333 0.339215
v -0.070588 0.666666 0.284314
v -0.000000 0.709804 0.233333
v -0.000000 0.686275 0.174510
v 0.039216 0.701961 0.233333
v 0.070588 0.643137 0.190195
v 0.070588 0.666666 0.284314
v 0.152940 0.545098 0.229412
v 0.090195 0.600000 0.135294
v -0.000000 0.619607 0.107843
v -0.090196 0.600000 0.135294
v 0.149018 0.737255 -0.084314
v 0.176470 0.686275 -0.417647
v 0.168628 0.400000 0.072548
v 0.211764 0.372549 -0.143137
v 0.101961 0.501961 -0.033334
v 0.094117 0.780392 -0.076471
v 0.188234 0.733333 -0.488235
v -0.164706 0.149019 -0.001961
v -0.243137 0.160784 -0.139216
v 0.058823 0.729412 -0.143137
v 0.101961 0.639216 -0.045098
v -0.035294 0.701961 0.233333
v -0.070588 0.643137 0.190195
v -0.101962 0.639216 -0.045098
v -0.054903 0.729412 -0.143137
v -0.090196 0.780392 -0.076471
v -0.188236 0.733333 -0.488235
v -0.149020 0.737255 -0.084314
v -0.000000 0.231372 0.209803
v -0.078433 0.309804 0.284313
v -0.176472 0.686275 -0.417647
v -0.000000 0.494117 0.500000
v 0.031372 0.482353 0.484314
v -0.152942 0.545098 0.229412
v -0.141178 0.513726 0.194117
v 0.062744 0.243137 0.190195
v 0.078431 0.309804 0.284313
v -0.168628 0.113726 -0.292157
v -0.000000 0.050980 -0.111766
v -0.098040 0.160784 -0.139216
v -0.156862 0.062746 -0.190196
v -0.000000 0.392156 0.343137
v -0.105883 0.435294 0.296078
v 0.145099 0.513726 0.194117
v -0.105883 0.047059 -0.147059
v 0.168628 0.113725 -0.292158
v 0.098039 0.160783 -0.139218
v -0.000000 0.290195 0.288234
v -0.101962 0.501961 -0.033334
v -0.078433 0.149019 0.139214
v -0.109805 0.250980 0.068627
v -0.058823 0.243137 0.190195
v -0.121569 0.152941 0.186273
v -0.113725 0.070588 0.217646
v -0.180393 0.149019 0.139214
v -0.145099 0.066666 0.186273
v -0.113725 0.145097 0.084313
v -0.113725 0.050980 0.150979
v -0.090196 0.066666 0.186273
v -0.113725 0.000000 0.186273
v -0.094118 0.035294 0.241175
v -0.086274 0.000000 0.249018
v -0.113725 0.000000 0.292155
v -0.145099 0.000000 0.249018
v -0.141178 0.035294 0.241175
v -0.113725 0.043137 0.264704
v -0.211765 0.266666 0.162744
v -0.125491 0.247058 0.256863
v -0.000000 0.019607 -0.452942
v 0.050979 0.074509 -0.421569
v -0.000000 0.035294 -0.339216
v -0.050981 0.074509 -0.421569
v -0.000000 0.149019 -0.500000
v -0.000000 0.117646 -0.398040
v 0.164706 0.149018 -0.001962
v 0.172550 0.266666 -0.064706
v 0.109803 0.047058 -0.147059
v 0.160783 0.062743 -0.190197
v -0.105883 0.188235 -0.037256
v -0.172550 0.266666 -0.064706
v -0.000000 0.188235 0.072549
v 0.211764 0.266666 0.162744
v 0.184314 0.149019 0.139215
v 0.113725 0.250980 0.068627
v -0.000000 0.117646 -0.013725
v 0.105881 0.188235 -0.037256
v 0.082352 0.149019 0.139215
v 0.113725 0.145097 0.084314
v -0.000000 0.309804 -0.425491
v -0.000000 0.517646 -0.311766
v 0.149018 0.298039 -0.370589
v -0.168628 0.400000 0.072548
v -0.145099 0.352941 0.268626
v 0.039216 0.078431 -0.358824
v -0.196079 0.396078 0.205881
v 0.196078 0.396078 0.205881
v -0.035294 0.078431 -0.358824
v 0.149018 0.352941 0.268626
v 0.125490 0.247058 0.256863
v 0.117647 0.070588 0.217647
v 0.125490 0.152941 0.186275
v 0.145099 0.066666 0.186275
v 0.113725 0.050980 0.150980
v 0.094117 0.066666 0.186275
v 0.117647 0.000000 0.186275
v 0.094117 0.035294 0.241176
v 0.090195 0.000000 0.249019
v 0.117647 0.000000 0.292156
v 0.145099 0.000000 0.249019
v 0.145099 0.035294 0.241176
v 0.117647 0.043137 0.264705
v 0.196078 0.023529 -0.009805
v 0.192156 0.000000 0.009804
v 0.188236 0.047058 -0.147059
v 0.149018 0.058823 -0.100000
v 0.149018 0.047058 0.017646
v 0.145099 0.011765 0.056863
v 0.105881 0.023529 -0.009805
v 0.113725 0.000000 0.013726
v 0.149018 0.007843 -0.182354
v 0.243137 0.160783 -0.139218
v 0.243137 0.282352 -0.237257
v -0.000000 0.027451 -0.260785
v -0.149020 0.298039 -0.370588
v -0.243137 0.282353 -0.237256
v -0.188236 0.047059 -0.147059
v -0.145099 0.007844 -0.182354
v -0.192158 0.000004 0.009804
v -0.109805 0.000004 0.013726
v -0.145099 0.011766 0.056863
v -0.105883 0.023530 -0.009805
v -0.145099 0.047059 0.017646
v -0.149020 0.058825 -0.100000
v -0.192158 0.023530 -0.009805
v -0.145099 0.450980 -0.252942
v 0.145099 0.450980 -0.252942
v -0.207843 0.372548 -0.143138
v -0.000000 0.552941 -0.060786
vn 0.000005 0.638297 0.769791
vn -0.001472 0.922918 0.384993
vn -0.555911 0.540627 0.631415
vn -0.007689 0.497652 0.867343
vn 0.555454 0.546846 0.626443
vn 0.600521 0.362043 0.712951
vn 0.910980 0.102073 0.399620
vn 0.875068 -0.042613 0.482121
vn 0.811813 -0.362366 0.457876
vn 0.659120 -0.533286 0.530251
vn -0.005737 -0.971911 0.235279
vn -0.013583 -0.552480 0.833415
vn -0.653608 -0.535541 0.534783
vn -0.644260 0.022489 0.764476
vn -0.864730 -0.048440 0.499896
vn -0.604575 0.354147 0.713490
vn -0.907772 0.103177 0.406576
vn -0.748969 0.625370 0.218993
vn -0.010653 0.997297 -0.072699
vn -0.003372 0.840130 -0.542374
vn -0.198808 0.977908 -0.064577
vn 0.893019 0.348384 -0.284861
vn 0.755915 0.616122 0.221328
vn 0.968701 0.237268 -0.072957
vn 0.706949 0.595005 -0.382351
vn 0.000002 0.847287 -0.531136
vn -0.712426 0.587124 -0.384363
vn 0.986533 0.042552 0.157931
vn 0.172396 -0.957014 -0.233248
vn 0.978909 0.171058 -0.111697
vn 0.940460 0.322268 0.108067
vn 0.656636 0.734089 -0.173039
vn 0.067098 0.992177 0.105269
vn 0.067201 0.935884 -0.345840
vn 0.049282 -0.395983 0.916934
vn -0.976894 -0.212273 0.024868
vn -0.976089 -0.021573 -0.216297
vn -0.293176 -0.953651 -0.067803
vn 0.190137 0.979750 -0.062754
vn -0.898889 0.339864 -0.276571
vn 0.259651 -0.963568 -0.064170
vn 0.974371 -0.037219 -0.221845
vn -0.044949 0.993884 0.100866
vn -0.054883 0.933483 -0.354398
vn -0.985987 0.051435 0.158693
vn -0.005711 -0.875269 0.483603
vn -0.368311 -0.557882 0.743717
vn -0.184963 -0.955098 -0.231464
vn -0.025375 0.316306 0.948318
vn 0.635263 0.026598 0.771838
vn -0.971261 0.219043 -0.093128
vn -0.971751 0.230333 -0.051453
vn -0.252251 -0.791776 0.556291
vn 0.356937 -0.555760 0.750817
vn -0.627947 -0.696924 -0.346382
vn 0.000001 -0.914081 0.405531
vn 0.456859 -0.859170 0.230450
vn -0.016885 -0.410701 -0.911614
vn 0.000004 -0.671809 0.740724
vn -0.810179 -0.373086 0.452125
vn 0.969411 0.243061 -0.034122
vn 0.988138 -0.113168 -0.103809
vn 0.630694 -0.698491 -0.338135
vn -0.435616 -0.870897 0.227545
vn 0.000002 -0.651243 0.758869
vn -0.660792 0.730103 -0.174080
vn 0.991955 -0.090239 0.088787
vn -0.625057 -0.664437 -0.409668
vn 0.232802 -0.795870 0.558922
vn 0.235957 -0.258794 0.936670
vn 0.076243 0.634181 0.769416
vn -0.954672 -0.265345 0.134885
vn -0.964832 -0.210671 -0.157216
vn 0.138431 -0.477871 -0.867454
vn 0.067886 -0.572302 -0.817228
vn 0.990451 -0.096270 -0.098683
vn 0.044993 -0.737434 -0.673919
vn 0.913519 0.321460 0.249293
vn 0.732175 -0.679347 0.049067
vn 0.058470 0.110688 0.992134
vn -0.685417 -0.726310 0.051750
vn -0.893138 0.336094 0.298908
vn 0.084978 0.727587 0.680732
vn -0.986796 -0.155544 0.045173
vn -0.180850 -0.400756 0.898158
vn 0.000013 -0.852619 -0.522533
vn 0.998798 -0.037505 -0.031569
vn -0.005432 -0.992182 -0.124680
vn -0.999737 -0.022619 -0.003854
vn 0.000022 0.689809 -0.723991
vn -0.007579 0.572973 -0.819539
vn -0.061649 -0.399698 0.914572
vn 0.878449 -0.164629 0.448580
vn -0.979426 -0.160449 -0.122400
vn 0.043499 -0.430614 -0.901488
vn -0.661778 -0.670812 0.334754
vn -0.877591 -0.156623 0.453104
vn -0.005553 -0.915956 0.401240
vn 0.988266 -0.146315 0.043841
vn 0.952346 -0.277507 0.126596
vn 0.623351 -0.663061 -0.414469
vn 0.000004 -0.801109 0.598519
vn 0.660641 -0.674628 0.329290
vn -0.991522 -0.077702 0.104145
vn -0.180636 -0.476975 -0.860154
vn -0.000001 0.178034 -0.984024
vn -0.000000 0.754409 -0.656405
vn 0.589843 0.077662 -0.803775
vn -0.979096 0.171365 -0.109569
vn -0.516691 -0.213965 0.829005
vn 0.793558 -0.312131 -0.522340
vn -0.919379 0.223636 0.323620
vn 0.922478 0.223513 0.314765
vn -0.810292 -0.297360 -0.504979
vn 0.515286 -0.203696 0.832459
vn 0.175966 -0.396807 0.900878
vn -0.046388 0.643139 0.764343
vn -0.239159 -0.257951 0.936090
vn 0.960310 -0.207503 -0.186406
vn -0.102546 -0.573145 -0.813013
vn -0.993737 -0.077586 -0.080419
vn -0.042176 -0.752950 -0.656724
vn -0.911873 0.319514 0.257678
vn -0.698627 -0.713746 0.049874
vn -0.018920 0.046365 0.998745
vn 0.663277 -0.746652 0.050726
vn 0.909421 0.305077 0.282633
vn -0.038615 0.728837 0.683598
vn 0.752665 0.583948 0.304137
vn 0.703719 -0.694545 0.149620
vn 0.948482 -0.309435 -0.068051
vn -0.050418 0.813327 0.579618
vn -0.019131 0.921248 0.388504
vn -0.050509 0.324828 0.944423
vn -0.801434 0.531477 0.274291
vn -0.666757 -0.734033 0.128960
vn 0.043298 -0.812411 -0.581475
vn 0.977568 -0.208504 0.029769
vn 0.978131 0.130547 -0.161919
vn -0.000002 -0.999627 0.027318
vn -0.591584 0.074511 -0.802793
vn -0.978177 0.138416 -0.154957
vn -0.957594 -0.278553 -0.073631
vn -0.020940 -0.808339 -0.588344
vn -0.738584 -0.654361 0.162188
vn 0.713634 -0.683724 0.152477
vn 0.053602 0.400151 0.914880
vn 0.775520 0.568387 0.274780
vn 0.039947 0.921070 0.387343
vn 0.031674 0.802496 0.595816
vn -0.722176 0.626447 0.293302
vn -0.683618 0.676478 -0.273942
vn 0.679634 0.677794 -0.280525
vn -0.938656 0.326957 0.109656
vn 0.000001 0.977380 -0.211491

g 3624_t.obj/AnonymousMesh0
f 1//1 2//2 3//3
f 3//3 4//4 1//1
f 5//5 1//1 4//4
f 4//4 6//6 5//5
f 7//7 5//5 6//6
f 6//6 8//8 7//7
f 9//9 7//7 8//8
f 8//8 10//10 9//9
f 11//11 9//9 10//10
f 10//10 12//12 11//11
f 13//13 11//11 12//12
f 12//12 14//14 13//13
f 15//15 13//13 14//14
f 14//14 16//16 15//15
f 17//17 15//15 16//16
f 16//16 3//3 17//17
f 18//18 17//17 3//3
f 3//3 2//2 18//18
f 39//39 18//18 2//2
f 2//2 19//19 39//39
f 20//20 39//39 19//19
f 19//19 21//21 20//20
f 22//22 20//20 21//21
f 23//23 5//5 7//7
f 7//7 24//24 23//23
f 22//22 23//23 24//24
f 24//24 25//25 22//22
f 20//20 22//22 25//25
f 25//25 26//26 20//20
f 27//27 20//20 26//26
f 28//28 38//38 29//29
f 30//30 31//31 32//32
f 33//33 28//28 34//34
f 35//35 97//97 36//36
f 21//21 33//33 37//37
f 37//37 38//38 21//21
f 22//22 21//21 38//38
f 39//39 40//40 41//41
f 41//41 42//42 39//39
f 43//43 39//39 42//42
f 42//42 44//44 43//43
f 45//45 43//43 44//44
f 69//69 46//46 47//47
f 41//41 45//45 48//48
f 4//4 3//3 16//16
f 16//16 49//49 4//4
f 6//6 4//4 49//49
f 49//49 50//50 6//6
f 8//8 6//6 50//50
f 50//50 10//10 8//8
f 60//60 13//13 15//15
f 15//15 17//17 60//60
f 51//51 60//60 17//17
f 17//17 18//18 51//51
f 40//40 51//51 18//18
f 40//40 39//39 20//20
f 20//20 27//27 40//40
f 51//51 40//40 27//27
f 27//27 52//52 51//51
f 60//60 51//51 52//52
f 21//21 23//23 33//33
f 28//28 33//33 23//23
f 23//23 22//22 28//28
f 38//38 28//28 22//22
f 53//53 115//115 54//54
f 55//55 56//56 57//57
f 55//55 57//57 58//58
f 59//59 60//60 47//47
f 45//45 41//41 40//40
f 40//40 18//18 45//45
f 43//43 45//45 18//18
f 18//18 39//39 43//43
f 49//49 16//16 14//14
f 14//14 12//12 49//49
f 50//50 49//49 12//12
f 12//12 10//10 50//50
f 24//24 7//7 9//9
f 9//9 61//61 24//24
f 25//25 24//24 61//61
f 2//2 1//1 5//5
f 5//5 23//23 2//2
f 21//21 2//2 23//23
f 11//11 13//13 60//60
f 60//60 59//59 11//11
f 9//9 11//11 59//59
f 37//37 34//34 29//29
f 62//62 58//58 57//57
f 57//57 35//35 62//62
f 42//42 41//41 48//48
f 56//56 63//63 64//64
f 25//25 32//32 26//26
f 46//46 65//65 47//47
f 21//21 19//19 2//2
f 26//26 66//66 27//27
f 67//67 68//68 69//69
f 69//69 70//70 67//67
f 71//71 67//67 70//70
f 70//70 72//72 71//71
f 73//73 71//71 72//72
f 72//72 74//74 73//73
f 75//75 73//73 74//74
f 74//74 76//76 75//75
f 77//77 75//75 76//76
f 76//76 78//78 77//77
f 79//79 77//77 78//78
f 78//78 80//80 79//79
f 81//81 79//79 80//80
f 80//80 82//82 81//81
f 77//77 81//81 82//82
f 82//82 73//73 77//77
f 75//75 77//77 73//73
f 83//83 82//82 80//80
f 80//80 78//78 83//83
f 71//71 83//83 78//78
f 78//78 76//76 71//71
f 67//67 71//71 76//76
f 76//76 74//74 67//67
f 68//68 67//67 74//74
f 74//74 72//72 68//68
f 84//84 68//68 72//72
f 72//72 85//85 84//84
f 70//70 69//69 85//85
f 85//85 72//72 70//70
f 71//71 73//73 82//82
f 82//82 83//83 71//71
f 79//79 81//81 77//77
f 86//86 87//87 88//88
f 88//88 89//89 86//86
f 90//90 86//86 89//89
f 89//89 91//91 90//90
f 87//87 90//90 91//91
f 92//92 93//93 64//64
f 92//92 64//64 94//94
f 64//64 63//63 95//95
f 57//57 96//96 97//97
f 69//69 68//68 98//98
f 93//93 31//31 30//30
f 99//99 100//100 101//101
f 53//53 46//46 98//98
f 56//56 102//102 96//96
f 56//56 103//103 102//102
f 87//87 86//86 90//90
f 53//53 101//101 104//104
f 35//35 57//57 97//97
f 30//30 101//101 93//93
f 105//105 104//104 101//101
f 106//106 107//107 108//108
f 109//109 68//68 84//84
f 64//64 93//93 103//103
f 69//69 110//110 85//85
f 111//111 88//88 87//87
f 87//87 91//91 111//111
f 84//84 85//85 110//110
f 110//110 112//112 84//84
f 109//109 84//84 112//112
f 99//99 30//30 113//113
f 89//89 88//88 114//114
f 114//114 91//91 89//89
f 113//113 115//115 99//99
f 116//116 99//99 115//115
f 52//52 27//27 109//109
f 104//104 117//117 118//118
f 100//100 118//118 117//117
f 117//117 119//119 100//100
f 105//105 100//100 119//119
f 119//119 120//120 105//105
f 121//121 105//105 120//120
f 120//120 122//122 121//121
f 123//123 121//121 122//122
f 122//122 124//124 123//123
f 125//125 123//123 124//124
f 124//124 126//126 125//125
f 127//127 125//125 126//126
f 126//126 122//122 127//127
f 119//119 127//127 122//122
f 122//122 120//120 119//119
f 127//127 128//128 125//125
f 123//123 125//125 128//128
f 128//128 117//117 123//123
f 121//121 123//123 117//117
f 117//117 104//104 121//121
f 105//105 121//121 104//104
f 116//116 53//53 118//118
f 109//109 112//112 52//52
f 99//99 116//116 100//100
f 127//127 119//119 117//117
f 117//117 128//128 127//127
f 122//122 126//126 124//124
f 129//129 130//130 131//131
f 131//131 132//132 129//129
f 133//133 129//129 132//132
f 60//60 52//52 112//112
f 134//134 133//133 135//135
f 135//135 136//136 134//134
f 130//130 134//134 136//136
f 136//136 137//137 130//130
f 131//131 130//130 137//137
f 137//137 95//95 131//131
f 138//138 131//131 95//95
f 112//112 110//110 60//60
f 61//61 9//9 113//113
f 63//63 108//108 139//139
f 94//94 136//136 135//135
f 135//135 132//132 94//94
f 92//92 94//94 132//132
f 113//113 30//30 61//61
f 138//138 92//92 131//131
f 63//63 56//56 140//140
f 140//140 88//88 63//63
f 111//111 63//63 88//88
f 138//138 139//139 93//93
f 93//93 92//92 138//138
f 129//129 133//133 134//134
f 134//134 130//130 129//129
f 137//137 136//136 94//94
f 94//94 95//95 137//137
f 63//63 111//111 108//108
f 25//25 61//61 30//30
f 106//106 91//91 141//141
f 30//30 32//32 25//25
f 36//36 142//142 55//55
f 55//55 58//58 36//36
f 143//143 36//36 58//58
f 58//58 144//144 143//143
f 145//145 143//143 144//144
f 144//144 146//146 145//145
f 147//147 145//145 146//146
f 146//146 148//148 147//147
f 149//149 147//147 148//148
f 148//148 150//150 149//149
f 151//151 149//149 150//150
f 150//150 143//143 151//151
f 145//145 151//151 143//143
f 35//35 36//36 143//143
f 143//143 150//150 35//35
f 62//62 35//35 150//150
f 150//150 148//148 62//62
f 146//146 62//62 148//148
f 55//55 114//114 88//88
f 88//88 140//140 55//55
f 56//56 55//55 140//140
f 62//62 146//146 144//144
f 144//144 58//58 62//62
f 147//147 149//149 151//151
f 151//151 145//145 147//147
f 68//68 97//97 96//96
f 141//141 55//55 142//142
f 139//139 31//31 93//93
f 132//132 131//131 92//92
f 139//139 138//138 63//63
f 115//115 113//113 9//9
f 115//115 9//9 54//54
f 95//95 63//63 138//138
f 132//132 135//135 133//133
f 118//118 100//100 116//116
f 118//118 53//53 104//104
f 66//66 109//109 27//27
f 47//47 60//60 110//110
f 115//115 53//53 116//116
f 141//141 91//91 114//114
f 96//96 57//57 56//56
f 141//141 142//142 152//152
f 152//152 107//107 141//141
f 108//108 111//111 91//91
f 153//153 139//139 108//108
f 103//103 56//56 64//64
f 153//153 108//108 107//107
f 66//66 152//152 154//154
f 31//31 153//153 32//32
f 97//97 109//109 154//154
f 108//108 91//91 106//106
f 103//103 93//93 101//101
f 98//98 96//96 102//102
f 98//98 101//101 53//53
f 102//102 103//103 98//98
f 154//154 142//142 97//97
f 152//152 155//155 107//107
f 98//98 46//46 69//69
f 153//153 107//107 155//155
f 96//96 98//98 68//68
f 155//155 32//32 153//153
f 32//32 155//155 26//26
f 95//95 94//94 64//64
f 66//66 26//26 155//155
f 155//155 152//152 66//66
f 54//54 9//9 59//59
f 153//153 31//31 139//139
f 142//142 154//154 152//152
f 107//107 106//106 141//141
f 48//48 44//44 42//42
f 29//29 38//38 37//37
f 47//47 65//65 59//59
f 54//54 59//59 65//65
f 65//65 46//46 54//54
f 54//54 46//46 53//53
f 47//47 110//110 69//69
f 44//44 48//48 45//45
f 97//97 68//68 109//109
f 34//34 37//37 33//33
f 29//29 34//34 28//28
f 66//66 154//154 109//109
f 141//141 114//114 55//55
f 97//97 142//142 36//36
f 101//101 30//30 99//99
f 101//101 98//98 103//103
f 101//101 100//100 105//105
