v 0.000407 0.235915 -0.166243
v -0.074561 0.261898 -0.203013
v -0.000001 0.290582 -0.262695
v -0.089128 0.287279 -0.249681
v -0.126529 0.348004 -0.081262
v -0.129800 0.379178 -0.219100
v -0.168499 0.502846 0.002022
v -0.195112 0.593191 -0.163171
v -0.106190 0.674795 -0.096443
v -0.000001 0.715233 -0.114075
v -0.000001 0.679183 0.013915
v 0.106188 0.674795 -0.096443
v 0.168497 0.502846 0.002021
v 0.195110 0.593191 -0.163171
v 0.129798 0.379178 -0.219100
v -0.000001 0.610174 -0.221053
v -0.000001 0.384104 -0.246382
v -0.000001 0.459570 0.025625
v -0.000001 0.296979 -0.074515
v 0.126527 0.348004 -0.081262
v 0.089126 0.287279 -0.249681
v -0.211591 0.268197 0.009933
v -0.129870 0.272840 -0.136929
v -0.238742 0.264114 -0.089443
v -0.203241 0.071975 -0.158459
v -0.120233 0.071981 -0.201859
v -0.107803 0.071966 -0.105589
v -0.117398 0.245179 -0.005925
v -0.188607 0.071974 -0.089326
v -0.500000 0.193032 -0.034378
v -0.455490 0.183359 -0.034378
v -0.333675 0.318054 -0.030025
v -0.453683 0.183989 -0.161264
v -0.499185 0.194151 -0.161263
v -0.334732 0.316367 -0.176545
v -0.412164 0.387284 -0.175174
v -0.410862 0.382604 -0.030192
v 0.126548 0.225126 -0.010309
v 0.210211 0.263682 0.009212
v 0.106244 0.387509 -0.093880
v 0.236667 0.234148 -0.094273
v 0.135118 0.183209 -0.145015
v 0.110943 0.379181 -0.219104
v 0.036476 0.264068 -0.242619
v 0.037034 0.289897 -0.086438
v -0.110945 0.379181 -0.219104
v -0.036478 0.264068 -0.242619
v -0.135120 0.183209 -0.145015
v -0.037036 0.289897 -0.086437
v -0.106246 0.387508 -0.093879
v -0.126551 0.225126 -0.010309
v -0.210213 0.263682 0.009213
v -0.236669 0.234149 -0.094273
v -0.341545 0.306815 -0.101889
v -0.383155 0.347337 -0.030026
v -0.433236 0.388275 -0.098730
v -0.277468 0.465990 -0.031363
v -0.232110 0.422874 -0.107489
v -0.281051 0.468020 -0.183187
v -0.384213 0.345649 -0.176542
v -0.328697 0.516306 -0.108254
v 0.293959 0.000000 -0.086953
v 0.149094 0.000005 -0.208204
v 0.287559 0.045313 -0.093877
v 0.149103 0.079028 -0.199822
v 0.076157 0.000014 -0.153576
v 0.076165 0.082712 -0.145195
v 0.170407 0.045041 0.015460
v 0.074558 0.261898 -0.203013
v 0.176806 0.000017 0.022385
v -0.000001 0.197431 0.054975
v 0.070676 0.284663 0.047297
v -0.070678 0.284663 0.047297
v -0.000001 0.551975 0.026018
v 0.046381 0.536972 0.033059
v -0.046384 0.536972 0.033059
v 0.019830 0.477145 0.032874
v -0.019831 0.477145 0.032874
v -0.000001 0.601695 0.262695
v -0.059156 0.599424 0.242288
v -0.000001 0.491180 0.120612
v -0.081467 0.512771 0.121552
v -0.092579 0.672837 0.132096
v -0.117944 0.576317 0.037579
v -0.090155 0.612331 -0.010279
v -0.000001 0.560952 -0.005470
v 0.090153 0.612331 -0.010279
v 0.117942 0.576317 0.037579
v 0.092577 0.672837 0.132096
v 0.081465 0.512771 0.121552
v 0.059154 0.599424 0.242288
v 0.129868 0.272840 -0.136929
v 0.107801 0.071966 -0.105589
v 0.117395 0.245179 -0.005925
v 0.188605 0.071974 -0.089326
v 0.120230 0.071980 -0.201859
v 0.203238 0.071975 -0.158459
v 0.238740 0.264114 -0.089443
v 0.211589 0.268196 0.009933
v -0.014879 0.878220 0.070452
v 0.001181 0.857295 0.059143
v -0.000001 0.836014 0.002667
v 0.049164 0.822224 0.007453
v 0.095594 0.764079 0.037035
v 0.075905 0.689263 -0.065815
v 0.110353 0.712371 0.018567
v 0.109153 0.624718 0.035921
v 0.131749 0.673700 -0.006876
v 0.084706 0.645151 0.075409
v -0.167350 0.671340 -0.096441
v -0.134251 0.594506 -0.012683
v -0.119873 0.491905 -0.113504
v -0.299587 0.445506 -0.031369
v -0.346720 0.493366 -0.108254
v -0.248494 0.407306 -0.107491
v -0.299072 0.444260 -0.183181
v -0.135925 0.594057 -0.177617
v 0.412162 0.387284 -0.175172
v 0.410858 0.382604 -0.030192
v 0.499183 0.194150 -0.161263
v 0.500000 0.193032 -0.034378
v 0.333673 0.318054 -0.030025
v 0.455488 0.183359 -0.034378
v 0.453681 0.183989 -0.161264
v 0.334730 0.316366 -0.176545
v -0.076168 0.082712 -0.145195
v -0.149105 0.079028 -0.199823
v -0.287561 0.045313 -0.093877
v -0.149097 0.000005 -0.208204
v -0.076159 0.000014 -0.153576
v -0.293961 0.000001 -0.086953
v -0.176809 0.000017 0.022385
v -0.170409 0.045042 0.015461
v -0.030938 0.857295 0.059143
v -0.043281 0.809111 0.070663
v -0.014879 0.853828 0.079334
v -0.000001 0.802885 0.093273
v -0.064362 0.755502 0.126972
v -0.000001 0.747690 0.155263
v -0.000001 0.677083 0.162128
v 0.064360 0.755502 0.126972
v 0.059270 0.660390 0.132772
v -0.059272 0.660390 0.132772
v -0.084708 0.645151 0.075409
v -0.095596 0.764079 0.037035
v -0.110355 0.712371 0.018567
v -0.075908 0.689263 -0.065815
v -0.109155 0.624718 0.035921
v 0.346718 0.493366 -0.108254
v 0.167348 0.671340 -0.096441
v 0.134249 0.594506 -0.012683
v 0.119870 0.491905 -0.113505
v 0.135923 0.594057 -0.177617
v 0.299070 0.444260 -0.183181
v 0.299584 0.445506 -0.031369
v 0.433234 0.388276 -0.098730
v 0.328695 0.516306 -0.108254
v 0.277466 0.465990 -0.031363
v 0.232108 0.422874 -0.107489
v 0.281049 0.468020 -0.183187
v 0.384211 0.345649 -0.176542
v 0.383153 0.347337 -0.030026
v -0.000001 0.682005 -0.102899
v -0.000001 0.861607 0.004246
v -0.049166 0.822224 0.007453
v -0.038552 0.835080 0.122005
v 0.043279 0.809111 0.070663
v -0.131751 0.673700 -0.006876
v 0.248492 0.407306 -0.107489
v 0.341542 0.306815 -0.101889
v -0.000001 0.683882 0.175095
vn 0.000001 -0.987014 0.160636
vn -0.413539 -0.893725 -0.173900
vn 0.000000 -0.632747 -0.774359
vn -0.609392 -0.387435 -0.691762
vn -0.724956 -0.616805 0.306577
vn -0.764304 -0.092672 -0.638163
vn -0.737114 -0.084105 0.670514
vn -0.726423 0.508222 -0.462623
vn -0.584092 0.782772 0.214720
vn 0.000000 0.938292 -0.345844
vn 0.000001 0.640830 0.767683
vn 0.584093 0.782771 0.214721
vn 0.737114 -0.084104 0.670514
vn 0.726423 0.508222 -0.462623
vn 0.764304 -0.092672 -0.638163
vn 0.000000 0.345666 -0.938358
vn 0.000000 0.171097 -0.985254
vn 0.000003 -0.243269 0.969959
vn 0.000001 -0.639089 0.769133
vn 0.724955 -0.616807 0.306578
vn 0.609390 -0.387440 -0.691761
vn -0.367045 0.641663 0.673458
vn 0.379440 0.765873 -0.519098
vn -0.939592 0.296112 -0.171708
vn -0.611435 -0.594258 -0.522499
vn 0.415191 -0.504417 -0.757086
vn 0.669316 -0.714413 0.204032
vn 0.620172 0.048771 0.782948
vn -0.452797 -0.657657 0.602048
vn -0.481003 -0.250953 0.840034
vn 0.107304 -0.931521 0.347499
vn 0.710207 -0.207092 0.672844
vn 0.431212 -0.834177 -0.343811
vn -0.702927 -0.379588 -0.601504
vn 0.685411 0.240566 -0.687270
vn -0.197533 0.740381 -0.642508
vn -0.198107 0.897209 0.394676
vn -0.442536 -0.331331 0.833296
vn 0.520633 -0.388186 0.760429
vn -0.032580 0.854636 0.518204
vn 0.976850 0.064168 -0.204076
vn 0.099431 -0.979279 -0.176424
vn 0.105773 0.593274 -0.798022
vn -0.746384 -0.298223 -0.594957
vn -0.962770 0.020197 0.269567
vn -0.496814 0.349075 -0.794558
vn 0.901958 0.100016 -0.420082
vn -0.016727 -0.942273 -0.334428
vn 0.917018 -0.169401 0.361083
vn 0.256194 0.873859 0.413201
vn 0.269039 -0.554646 0.787392
vn -0.512685 0.108775 0.851658
vn -0.962527 -0.263228 -0.065211
vn -0.071888 -0.997255 0.017738
vn -0.017575 -0.543597 0.839162
vn -0.970002 -0.018288 0.242408
vn 0.307019 0.659125 0.686509
vn 0.908716 -0.417389 -0.004594
vn 0.575121 0.588839 -0.567896
vn -0.264671 -0.315246 -0.911356
vn -0.425747 0.866895 -0.259292
vn 0.748942 -0.612872 0.251941
vn 0.256337 -0.332393 -0.907638
vn 0.694087 0.698207 -0.175357
vn -0.165398 0.472563 -0.865637
vn -0.822432 -0.542885 -0.169946
vn -0.509995 0.860087 -0.012434
vn -0.090304 0.446527 0.890202
vn 0.413536 -0.893727 -0.173898
vn -0.133883 -0.565540 0.813781
vn 0.000000 0.087679 0.996149
vn 0.000000 0.083517 0.996506
vn 0.000000 0.083517 0.996506
vn 0.000000 0.079353 0.996847
vn 0.000000 -0.003092 0.999995
vn 0.000000 -0.003092 0.999995
vn 0.000000 -0.003092 0.999995
vn 0.000000 -0.003092 0.999995
vn 0.000000 -0.056429 0.998407
vn -0.587999 -0.063116 0.806396
vn 0.000000 -0.997873 0.065181
vn -0.776950 -0.591002 0.216946
vn -0.737482 0.670814 0.078293
vn -0.728838 -0.541741 -0.418703
vn -0.562852 0.009822 -0.826500
vn 0.000000 -0.682473 -0.730911
vn 0.593907 -0.222379 -0.773189
vn 0.728838 -0.541741 -0.418703
vn 0.639552 0.768661 -0.011542
vn 0.776950 -0.591002 0.216946
vn 0.587999 -0.063116 0.806396
vn -0.428513 0.625141 -0.652361
vn -0.828628 -0.499566 0.252606
vn -0.564373 0.437757 0.699894
vn 0.378526 -0.776817 0.503263
vn -0.269822 -0.827687 -0.492067
vn 0.724772 -0.301825 -0.619360
vn 0.765040 0.633478 -0.115845
vn 0.522940 0.217876 0.824053
vn 0.060267 0.996759 -0.053290
vn 0.786161 0.604897 0.126693
vn 0.053240 0.884738 -0.463038
vn 0.618899 0.733225 -0.281684
vn 0.885748 0.452505 0.103389
vn 0.794470 0.122531 -0.594814
vn 0.980520 0.151055 -0.125553
vn 0.809212 -0.550910 -0.204143
vn 0.873045 0.071243 0.482408
vn 0.843643 -0.135126 0.519623
vn 0.500130 0.865927 -0.006410
vn 0.161399 0.346005 0.924246
vn 0.893960 -0.447400 -0.025874
vn -0.122778 -0.608222 0.784214
vn -0.983962 0.178198 -0.008019
vn -0.157340 -0.987509 0.008345
vn -0.126211 -0.540670 -0.831713
vn 0.184108 0.398524 -0.898490
vn -0.162255 0.876024 -0.454153
vn 0.530881 0.709503 0.463434
vn 0.702925 -0.379584 -0.601508
vn 0.481001 -0.250950 0.840037
vn -0.809360 0.035870 0.586216
vn -0.107314 -0.931519 0.347499
vn -0.431216 -0.834176 -0.343807
vn -0.555338 -0.029700 -0.831094
vn 0.509995 0.860087 -0.012436
vn 0.165400 0.472560 -0.865639
vn -0.694088 0.698205 -0.175359
vn -0.256342 -0.332400 -0.907634
vn 0.822429 -0.542890 -0.169944
vn -0.748945 -0.612869 0.251938
vn 0.133874 -0.565557 0.813771
vn 0.090301 0.446524 0.890203
vn -0.847345 0.530701 -0.019042
vn -0.598221 0.455474 0.659299
vn -0.063104 0.435247 0.898097
vn -0.052481 0.587326 0.807647
vn -0.633772 0.363875 0.682589
vn 0.050601 0.533603 0.844220
vn 0.000000 0.065863 0.997829
vn 0.689659 0.281134 0.667333
vn 0.722640 0.003478 0.691216
vn -0.722640 0.003478 0.691216
vn -0.843643 -0.135126 0.519622
vn -0.912266 0.390591 0.123328
vn -0.980521 0.151055 -0.125546
vn -0.794472 0.122530 -0.594811
vn -0.809212 -0.550912 -0.204137
vn 0.890938 0.454000 -0.010618
vn -0.500127 0.865928 -0.006410
vn -0.161399 0.346004 0.924246
vn -0.893961 -0.447398 -0.025871
vn -0.184104 0.398526 -0.898489
vn 0.311447 -0.669746 -0.674122
vn 0.305449 -0.713573 0.630487
vn 0.932576 0.360206 0.023524
vn -0.104372 0.994538 0.000845
vn -0.083222 0.507781 0.857457
vn -0.984499 -0.175287 -0.006016
vn -0.020211 0.493834 -0.869321
vn 0.279198 -0.711712 -0.644604
vn 0.242499 -0.695630 0.676235
vn 0.000002 0.205503 -0.978656
vn -0.000000 0.874559 -0.484918
vn -0.625297 0.681592 -0.380047
vn -0.132981 -0.268688 0.954004
vn 0.497145 0.657552 0.566102
vn -0.873045 0.071243 0.482408
vn -0.127131 -0.991844 0.009140
vn -0.245197 -0.969335 0.016353
vn -0.000000 0.861315 0.508071

g 8033_t.obj/AnonymousMesh0
f 1//1 2//2 3//3
f 2//2 4//4 3//3
f 2//2 5//5 4//4
f 5//5 6//6 4//4
f 5//5 7//7 6//6
f 7//7 8//8 6//6
f 7//7 9//9 8//8
f 9//9 10//10 8//8
f 9//9 11//11 10//10
f 11//11 12//12 10//10
f 11//11 13//13 12//12
f 13//13 14//14 12//12
f 13//13 15//15 14//14
f 15//15 16//16 14//14
f 15//15 17//17 16//16
f 17//17 6//6 16//16
f 17//17 4//4 6//6
f 9//9 7//7 11//11
f 7//7 18//18 11//11
f 7//7 19//19 18//18
f 19//19 13//13 18//18
f 19//19 20//20 13//13
f 20//20 15//15 13//13
f 20//20 21//21 15//15
f 21//21 17//17 15//15
f 21//21 3//3 17//17
f 3//3 4//4 17//17
f 22//22 23//23 24//24
f 23//23 25//25 24//24
f 23//23 26//26 25//25
f 26//26 27//27 25//25
f 26//26 23//23 27//27
f 23//23 28//28 27//27
f 23//23 22//22 28//28
f 22//22 29//29 28//28
f 22//22 24//24 29//29
f 24//24 25//25 29//29
f 30//30 31//31 32//32
f 31//31 33//33 32//32
f 31//31 34//34 33//33
f 34//34 35//35 33//33
f 34//34 36//36 35//35
f 36//36 37//37 35//35
f 36//36 34//34 37//37
f 34//34 30//30 37//37
f 34//34 31//31 30//30
f 38//38 39//39 40//40
f 39//39 41//41 40//40
f 39//39 42//42 41//41
f 42//42 43//43 41//41
f 42//42 44//44 43//43
f 43//43 45//45 44//44
f 44//44 42//42 45//45
f 42//42 38//38 45//45
f 42//42 39//39 38//38
f 46//46 47//47 48//48
f 47//47 49//49 48//48
f 49//49 50//50 47//47
f 50//50 51//51 49//49
f 50//50 52//52 51//51
f 52//52 53//53 51//51
f 52//52 50//50 53//53
f 50//50 46//46 53//53
f 46//46 47//47 50//50
f 54//54 55//55 56//56
f 55//55 57//57 56//56
f 55//55 58//58 57//57
f 58//58 59//59 57//57
f 58//58 60//60 59//59
f 60//60 61//61 59//59
f 60//60 56//56 61//61
f 56//56 57//57 61//61
f 62//62 63//63 64//64
f 63//63 65//65 64//64
f 63//63 66//66 65//65
f 66//66 67//67 65//65
f 66//66 68//68 67//67
f 68//68 64//64 67//67
f 68//68 62//62 64//64
f 19//19 1//1 20//20
f 1//1 69//69 20//20
f 1//1 3//3 69//69
f 3//3 21//21 69//69
f 63//63 62//62 66//66
f 62//62 70//70 66//66
f 62//62 68//68 70//70
f 68//68 66//66 70//70
f 7//7 5//5 19//19
f 5//5 1//1 19//19
f 5//5 2//2 1//1
f 30//30 32//32 37//37
f 37//37 35//35 32//32
f 32//32 33//33 35//35
f 71//71 72//72 73//73
f 72//72 74//74 73//73
f 75//75 76//76 77//77
f 76//76 78//78 77//77
f 12//12 14//14 10//10
f 14//14 16//16 10//10
f 6//6 8//8 16//16
f 8//8 10//10 16//16
f 41//41 43//43 40//40
f 40//40 45//45 43//43
f 49//49 51//51 48//48
f 51//51 53//53 48//48
f 25//25 27//27 29//29
f 27//27 28//28 29//29
f 54//54 60//60 56//56
f 60//60 58//58 54//54
f 69//69 21//21 20//20
f 13//13 11//11 18//18
f 40//40 45//45 38//38
f 48//48 53//53 46//46
f 61//61 57//57 59//59
f 54//54 58//58 55//55
f 65//65 67//67 64//64
f 79//79 80//80 81//81
f 80//80 82//82 81//81
f 80//80 83//83 82//82
f 83//83 84//84 82//82
f 83//83 85//85 84//84
f 84//84 86//86 85//85
f 86//86 87//87 85//85
f 86//86 88//88 87//87
f 87//87 89//89 88//88
f 89//89 90//90 88//88
f 89//89 91//91 90//90
f 91//91 81//81 90//90
f 91//91 79//79 81//81
f 92//92 93//93 94//94
f 93//93 95//95 94//94
f 93//93 96//96 95//95
f 96//96 97//97 95//95
f 96//96 92//92 97//97
f 92//92 98//98 97//97
f 98//98 94//94 92//92
f 98//98 99//99 94//94
f 94//94 95//95 99//99
f 95//95 98//98 99//99
f 95//95 97//97 98//98
f 100//100 101//101 102//102
f 101//101 103//103 102//102
f 101//101 104//104 103//103
f 104//104 105//105 103//103
f 104//104 106//106 105//105
f 106//106 107//107 105//105
f 106//106 108//108 107//107
f 108//108 109//109 107//107
f 108//108 106//106 109//109
f 106//106 104//104 109//109
f 112//112 111//111 110//110
f 111//111 113//113 112//112
f 111//111 114//114 113//113
f 113//113 115//115 114//114
f 115//115 116//116 114//114
f 116//116 112//112 115//115
f 116//116 117//117 112//112
f 112//112 110//110 117//117
f 117//117 114//114 110//110
f 114//114 111//111 110//110
f 118//118 119//119 120//120
f 119//119 121//121 120//120
f 119//119 122//122 121//121
f 122//122 123//123 121//121
f 122//122 124//124 123//123
f 124//124 120//120 123//123
f 124//124 125//125 120//120
f 125//125 118//118 120//120
f 118//118 122//122 125//125
f 118//118 119//119 122//122
f 126//126 127//127 128//128
f 127//127 129//129 128//128
f 127//127 130//130 129//129
f 130//130 131//131 129//129
f 130//130 132//132 131//131
f 132//132 133//133 131//131
f 132//132 130//130 133//133
f 130//130 126//126 133//133
f 130//130 127//127 126//126
f 134//134 135//135 136//136
f 135//135 137//137 136//136
f 135//135 138//138 137//137
f 138//138 139//139 137//137
f 138//138 140//140 139//139
f 140//140 141//141 139//139
f 140//140 142//142 141//141
f 142//142 109//109 141//141
f 140//140 138//138 143//143
f 138//138 144//144 143//143
f 138//138 145//145 144//144
f 145//145 146//146 144//144
f 145//145 147//147 146//146
f 147//147 148//148 146//146
f 147//147 85//85 148//148
f 85//85 144//144 148//148
f 149//149 150//150 151//151
f 151//151 152//152 150//150
f 152//152 153//153 150//150
f 153//153 154//154 152//152
f 153//153 149//149 154//154
f 154//154 155//155 149//149
f 149//149 151//151 155//155
f 151//151 152//152 155//155
f 156//156 157//157 158//158
f 157//157 159//159 158//158
f 157//157 160//160 159//159
f 160//160 161//161 159//159
f 160//160 156//156 161//161
f 156//156 162//162 161//161
f 156//156 158//158 162//162
f 158//158 159//159 162//162
f 109//109 87//87 107//107
f 87//87 105//105 107//107
f 105//105 163//163 87//87
f 163//163 103//103 105//105
f 163//163 164//164 103//103
f 103//103 165//165 164//164
f 164//164 163//163 165//165
f 163//163 147//147 85//85
f 147//147 165//165 163//163
f 147//147 145//145 165//165
f 145//145 134//134 165//165
f 145//145 135//135 134//134
f 165//165 134//134 102//102
f 134//134 100//100 102//102
f 134//134 166//166 100//100
f 166//166 101//101 100//100
f 166//166 134//134 101//101
f 109//109 104//104 141//141
f 104//104 167//167 141//141
f 104//104 101//101 167//167
f 101//101 136//136 167//167
f 148//148 168//168 146//146
f 168//168 144//144 146//146
f 168//168 148//148 144//144
f 152//152 169//169 155//155
f 169//169 154//154 155//155
f 169//169 152//152 154//154
f 161//161 170//170 159//159
f 170//170 162//162 159//159
f 170//170 161//161 162//162
f 126//126 128//128 133//133
f 128//128 131//131 133//133
f 128//128 129//129 131//131
f 83//83 171//171 89//89
f 171//171 91//91 89//89
f 171//171 79//79 91//91
f 136//136 137//137 167//167
f 137//137 139//139 167//167
f 87//87 85//85 89//89
f 85//85 83//83 89//89
f 82//82 84//84 81//81
f 84//84 86//86 81//81
f 86//86 88//88 81//81
f 88//88 90//90 81//81
f 83//83 80//80 171//171
f 80//80 79//79 171//171
f 138//138 135//135 145//145
f 141//141 167//167 139//139
f 115//115 112//112 113//113
f 116//116 114//114 117//117
f 149//149 153//153 150//150
f 156//156 160//160 157//157
f 124//124 122//122 125//125
f 123//123 120//120 121//121
f 92//92 96//96 93//93
