v -0.137550 0.067616 -0.113931
v -0.013298 0.000000 -0.120817
v -0.139954 0.000000 -0.121413
v -0.140815 0.000000 0.088302
v -0.009509 0.000000 0.088302
v -0.012571 0.069005 0.073641
v -0.015514 0.067655 -0.114079
v -0.136675 0.068994 0.073337
v -0.329955 0.494388 -0.101589
v -0.298299 0.437520 -0.102901
v -0.462622 0.411231 -0.108708
v -0.437027 0.367100 -0.112446
v -0.295776 0.433620 -0.001019
v -0.436538 0.363866 0.008472
v -0.328256 0.493084 0.000450
v -0.464508 0.410665 0.005416
v 0.136675 0.068994 0.073337
v 0.137550 0.067616 -0.113932
v 0.015513 0.067655 -0.114079
v 0.013298 0.000000 -0.120817
v 0.139954 0.000000 -0.121413
v 0.140815 0.000000 0.088302
v 0.012571 0.069005 0.073640
v 0.007358 0.208934 -0.041369
v 0.073438 0.069232 0.040864
v 0.073064 0.209231 0.027860
v 0.139119 0.210919 -0.041405
v 0.148850 0.041718 -0.052258
v 0.075570 0.061987 -0.118469
v 0.004746 0.041757 -0.052406
v 0.074517 0.211829 -0.111341
v -0.093224 0.604129 -0.048610
v -0.218983 0.505924 -0.001797
v -0.079740 0.569409 0.000899
v -0.067818 0.527841 -0.048662
v -0.204517 0.466596 -0.048828
v -0.218929 0.506087 -0.099530
v -0.236312 0.545589 -0.048154
v -0.078393 0.570293 -0.099047
v -0.007563 0.183326 -0.043620
v -0.073812 0.183324 -0.110517
v -0.008493 0.335892 -0.035911
v -0.073047 0.374119 -0.109713
v -0.138384 0.183326 -0.043701
v -0.139633 0.387187 -0.035901
v -0.199749 0.514546 -0.099010
v -0.332578 0.502050 -0.049302
v -0.214406 0.555481 -0.048106
v -0.199560 0.514076 -0.002154
v -0.312371 0.464200 0.004372
v -0.294105 0.422824 -0.048949
v -0.314067 0.465503 -0.107144
v -0.179247 0.477327 -0.048840
v 0.073254 0.183326 0.029441
v 0.138384 0.183326 -0.043702
v 0.073747 0.363605 0.042659
v 0.139633 0.387187 -0.035902
v 0.073047 0.374119 -0.109713
v 0.008493 0.335892 -0.035911
v 0.007563 0.183326 -0.043620
v 0.073812 0.183326 -0.110517
v 0.009509 0.000000 0.088302
v -0.073747 0.363605 0.042659
v -0.073254 0.183326 0.029441
v -0.121928 0.812018 0.045531
v -0.156957 0.865655 0.011178
v -0.150064 0.768665 -0.035928
v -0.179849 0.808997 -0.076845
v -0.131953 0.922900 -0.004777
v -0.155914 0.874633 -0.091190
v 0.000000 1.000000 0.072289
v 0.000000 0.939173 -0.074977
v 0.155915 0.874633 -0.091190
v 0.112866 0.834758 -0.169125
v 0.179850 0.808997 -0.076845
v 0.133944 0.770394 -0.163008
v 0.111829 0.729377 -0.136616
v 0.000000 0.721051 -0.181261
v 0.000000 0.610144 -0.149075
v -0.111829 0.729377 -0.136616
v -0.100140 0.630192 -0.113559
v -0.135358 0.666576 -0.015152
v -0.109751 0.678475 0.069308
v -0.093448 0.610454 0.003696
v 0.000000 0.570732 0.041060
v -0.119470 0.812018 0.045531
v 0.000000 0.812462 0.113090
v 0.000000 0.655950 0.139323
v 0.109752 0.678475 0.069308
v 0.093448 0.610454 0.003696
v 0.100140 0.630192 -0.113558
v 0.135358 0.666576 -0.015152
v 0.150064 0.768665 -0.035928
v 0.119470 0.812018 0.045531
v 0.128528 0.794785 0.128312
v 0.000000 0.849433 0.216887
v 0.000000 0.870150 0.124983
v -0.128527 0.794785 0.128312
v 0.130996 0.341477 0.042655
v -0.000000 0.441217 0.116206
v 0.000000 0.306912 0.078231
v -0.130996 0.341477 0.042655
v -0.142620 0.442943 0.054366
v -0.142177 0.446633 -0.104767
v -0.115001 0.567159 -0.010420
v -0.111431 0.590978 -0.099747
v 0.000000 0.573393 0.036429
v 0.000000 0.616023 -0.113004
v 0.111431 0.590976 -0.099747
v 0.000000 0.438150 -0.134151
v 0.142177 0.446633 -0.104767
v 0.129752 0.351991 -0.109709
v -0.000000 0.312990 -0.135683
v 0.036424 0.691235 0.111057
v 0.000000 0.672309 0.224766
v 0.000000 0.654707 0.121840
v -0.036424 0.691235 0.111057
v -0.046123 0.715994 0.214866
v 0.000000 0.720647 0.102375
v 0.000000 0.759674 0.204964
v 0.046123 0.715994 0.214866
v 0.121929 0.812018 0.045531
v 0.000000 0.959727 0.116876
v 0.156958 0.865655 0.011179
v 0.131954 0.922900 -0.004777
v -0.133944 0.770394 -0.163008
v -0.112865 0.834758 -0.169125
v 0.000000 0.753533 -0.224154
v 0.000000 0.835000 -0.224766
v 0.329955 0.494388 -0.101589
v 0.462622 0.411231 -0.108708
v 0.298299 0.437520 -0.102901
v 0.437027 0.367100 -0.112446
v 0.464508 0.410665 0.005415
v 0.436538 0.363866 0.008472
v 0.295776 0.433620 -0.001019
v 0.115002 0.567158 -0.010420
v 0.199749 0.514546 -0.099010
v 0.294105 0.422824 -0.048949
v 0.179247 0.477327 -0.048840
v 0.199560 0.514076 -0.002155
v 0.312371 0.464200 0.004372
v 0.332578 0.502050 -0.049303
v 0.314067 0.465503 -0.107144
v 0.214406 0.555481 -0.048106
v 0.218929 0.506087 -0.099530
v 0.093224 0.604129 -0.048609
v 0.236312 0.545589 -0.048154
v 0.218983 0.505924 -0.001797
v 0.079742 0.569407 0.000899
v 0.067818 0.527841 -0.048661
v 0.078392 0.570293 -0.099047
v 0.204517 0.466596 -0.048828
v -0.007358 0.208934 -0.041369
v -0.075570 0.061987 -0.118469
v -0.074517 0.211831 -0.111341
v -0.139119 0.210919 -0.041405
v -0.148850 0.041718 -0.052258
v -0.073438 0.069233 0.040864
v -0.004746 0.041757 -0.052405
v -0.073064 0.209231 0.027860
v -0.129752 0.351991 -0.109708
v 0.328256 0.493084 0.000450
v 0.142620 0.442943 0.054366
vn -0.390535 0.487606 -0.780848
vn 0.602306 -0.516425 -0.608714
vn -0.842704 -0.336637 -0.420149
vn -0.374947 -0.569937 0.731154
vn 0.633763 -0.476864 0.609053
vn 0.634902 0.475492 0.608940
vn 0.388389 0.830515 -0.399248
vn -0.624914 0.720404 0.300833
vn -0.355822 0.626999 -0.693010
vn 0.225593 -0.338050 -0.913690
vn -0.613546 0.439474 -0.656067
vn -0.266531 -0.893556 -0.361273
vn 0.431970 -0.799582 0.417219
vn -0.148091 -0.557191 0.817072
vn -0.345910 0.620954 0.703394
vn -0.917699 -0.038723 0.395385
vn 0.624913 0.720405 0.300834
vn 0.390533 0.487602 -0.780851
vn -0.388394 0.830513 -0.399248
vn -0.602305 -0.516432 -0.608709
vn 0.842702 -0.336642 -0.420148
vn 0.374946 -0.569935 0.731157
vn -0.634903 0.475490 0.608939
vn -0.998199 0.041183 -0.043621
vn -0.010017 0.040419 0.999133
vn -0.002002 0.092483 0.995712
vn 0.997357 0.066256 -0.029812
vn 0.995820 0.061597 -0.067441
vn 0.001285 0.074116 -0.997249
vn -0.996356 0.021025 -0.082666
vn 0.009145 0.047579 -0.998826
vn -0.400148 0.916317 0.015662
vn -0.003140 0.009752 0.999947
vn -0.030381 0.024200 0.999245
vn 0.409151 -0.912405 0.010605
vn 0.408784 -0.912456 0.017850
vn 0.003338 0.019246 -0.999809
vn -0.378453 0.925249 0.026212
vn -0.012567 0.035024 -0.999307
vn 0.999687 0.007303 -0.023924
vn 0.339946 0.020767 -0.940216
vn 0.999812 -0.011808 -0.015351
vn -0.329551 0.012462 -0.944056
vn -0.999602 -0.017757 -0.021941
vn -0.999725 -0.005250 -0.022871
vn 0.030425 0.029905 -0.999090
vn -0.384319 0.922763 0.028432
vn -0.412064 0.910725 0.027982
vn 0.025770 0.011409 0.999603
vn 0.041855 0.035976 0.998476
vn 0.436226 -0.899743 0.013014
vn 0.046668 0.056626 -0.997304
vn 0.428648 -0.903350 0.014828
vn -0.356873 -0.059032 0.932286
vn 0.999601 -0.017756 -0.021948
vn 0.360772 -0.059808 0.930734
vn 0.999725 -0.005250 -0.022877
vn 0.329545 0.012463 -0.944058
vn -0.999812 -0.011808 -0.015351
vn -0.999687 0.007303 -0.023924
vn -0.339948 0.020767 -0.940215
vn -0.633766 -0.476858 0.609054
vn -0.360767 -0.059808 0.930736
vn 0.356874 -0.059032 0.932285
vn -0.735888 0.224346 0.638857
vn -0.842728 0.182346 0.506518
vn -0.960134 -0.245032 0.134540
vn -0.988293 -0.047805 -0.144883
vn -0.796424 0.599935 0.076070
vn -0.591774 0.694378 -0.409443
vn -0.000002 0.991719 0.128426
vn -0.000001 0.858893 -0.512155
vn 0.591773 0.694378 -0.409443
vn 0.561352 0.373534 -0.738482
vn 0.988293 -0.047811 -0.144883
vn 0.631087 -0.386873 -0.672353
vn 0.677043 -0.469935 -0.566370
vn 0.000000 -0.603492 -0.797369
vn 0.000002 -0.592007 -0.805933
vn -0.677044 -0.469931 -0.566372
vn -0.710313 -0.605445 -0.359015
vn -0.927896 -0.364848 0.076777
vn -0.749926 -0.260840 0.607925
vn -0.659948 -0.728582 0.183405
vn -0.000000 -0.970430 0.241383
vn -0.699547 -0.459345 0.547391
vn -0.000000 -0.663881 0.747838
vn -0.000002 -0.340895 0.940101
vn 0.749928 -0.260840 0.607923
vn 0.659947 -0.728584 0.183401
vn 0.710313 -0.605446 -0.359014
vn 0.927896 -0.364850 0.076771
vn 0.960133 -0.245037 0.134539
vn 0.699549 -0.459341 0.547391
vn 0.813009 -0.227422 0.535999
vn -0.000002 -0.151363 0.988478
vn -0.000002 0.840053 0.542505
vn -0.813011 -0.227425 0.535995
vn 0.724883 -0.574438 0.380218
vn 0.000000 0.164018 0.986457
vn -0.000000 -0.810795 0.585330
vn -0.724883 -0.574438 0.380218
vn -0.837988 0.138885 0.527718
vn -0.909623 0.059622 -0.411135
vn -0.681244 0.573804 0.454594
vn -0.520860 0.725886 -0.449216
vn 0.000004 0.875019 0.484089
vn 0.000007 0.830426 -0.557128
vn 0.520862 0.725881 -0.449221
vn -0.000001 0.058476 -0.998289
vn 0.909622 0.059623 -0.411137
vn 0.591510 -0.366563 -0.718156
vn -0.000002 -0.870879 -0.491497
vn 0.951479 -0.307660 -0.005748
vn -0.000000 -0.700129 0.714016
vn 0.000000 -0.985690 0.168569
vn -0.951479 -0.307660 -0.005748
vn -0.881938 0.395912 0.255812
vn -0.000000 0.943975 -0.330018
vn -0.000000 0.779543 0.626348
vn 0.881938 0.395912 0.255813
vn 0.735886 0.224343 0.638860
vn -0.000003 0.331402 0.943490
vn 0.842727 0.182343 0.506520
vn 0.796422 0.599937 0.076069
vn -0.631089 -0.386869 -0.672353
vn -0.561352 0.373537 -0.738481
vn -0.000000 -0.284912 -0.958554
vn -0.000002 0.476176 -0.879350
vn 0.355822 0.626999 -0.693010
vn 0.613546 0.439474 -0.656067
vn -0.225593 -0.338050 -0.913690
vn 0.266531 -0.893556 -0.361273
vn 0.741980 -0.027593 0.669854
vn 0.230654 -0.788627 0.569970
vn -0.350374 -0.621776 0.700451
vn 0.681246 0.573805 0.454589
vn -0.030428 0.029904 -0.999089
vn -0.436227 -0.899742 0.013017
vn -0.428648 -0.903350 0.014833
vn -0.025771 0.011411 0.999603
vn -0.041861 0.035983 0.998475
vn 0.384317 0.922763 0.028430
vn -0.046669 0.056622 -0.997304
vn 0.412064 0.910725 0.027987
vn -0.003342 0.019245 -0.999809
vn 0.400146 0.916317 0.015669
vn 0.378453 0.925249 0.026212
vn 0.003141 0.009746 0.999948
vn 0.030376 0.024189 0.999246
vn -0.409148 -0.912406 0.010608
vn 0.012564 0.035019 -0.999308
vn -0.408784 -0.912457 0.017850
vn 0.998199 0.041183 -0.043618
vn -0.001283 0.074115 -0.997249
vn -0.009145 0.047578 -0.998826
vn -0.997357 0.066256 -0.029812
vn -0.995820 0.061597 -0.067441
vn 0.010016 0.040421 0.999133
vn 0.996356 0.021024 -0.082660
vn 0.002002 0.092483 0.995712
vn -0.591511 -0.366565 -0.718154
vn 0.454961 0.764512 0.456653
vn 0.837988 0.138884 0.527718

g 8209_t.obj/AnonymousMesh0
f 1//1 2//2 3//3
f 2//2 4//4 3//3
f 2//2 5//5 4//4
f 5//5 6//6 4//4
f 5//5 2//2 6//6
f 2//2 7//7 6//6
f 2//2 1//1 7//7
f 7//7 8//8 1//1
f 1//1 3//3 8//8
f 3//3 4//4 8//8
f 9//9 10//10 11//11
f 10//10 12//12 11//11
f 10//10 13//13 12//12
f 13//13 14//14 12//12
f 13//13 15//15 14//14
f 15//15 16//16 14//14
f 15//15 11//11 16//16
f 11//11 12//12 16//16
f 17//17 18//18 19//19
f 18//18 20//20 19//19
f 18//18 21//21 20//20
f 21//21 22//22 20//20
f 21//21 17//17 22//22
f 17//17 23//23 22//22
f 17//17 19//19 23//23
f 19//19 20//20 23//23
f 24//24 25//25 26//26
f 25//25 27//27 26//26
f 25//25 28//28 27//27
f 28//28 29//29 27//27
f 25//25 24//24 30//30
f 24//24 29//29 30//30
f 24//24 31//31 29//29
f 31//31 27//27 29//29
f 32//32 33//33 34//34
f 33//33 35//35 34//34
f 33//33 36//36 35//35
f 36//36 37//37 35//35
f 33//33 32//32 38//38
f 32//32 37//37 38//38
f 32//32 39//39 37//37
f 39//39 35//35 37//37
f 40//40 41//41 42//42
f 41//41 43//43 42//42
f 41//41 44//44 43//43
f 44//44 45//45 43//43
f 46//46 47//47 48//48
f 47//47 49//49 48//48
f 47//47 50//50 49//49
f 50//50 51//51 49//49
f 47//47 46//46 52//52
f 46//46 51//51 52//52
f 46//46 53//53 51//51
f 53//53 49//49 51//51
f 54//54 55//55 56//56
f 55//55 57//57 56//56
f 55//55 58//58 57//57
f 56//56 59//59 54//54
f 59//59 60//60 54//54
f 59//59 61//61 60//60
f 23//23 62//62 22//22
f 62//62 20//20 22//22
f 62//62 23//23 20//20
f 55//55 61//61 58//58
f 61//61 59//59 58//58
f 45//45 44//44 63//63
f 44//44 64//64 63//63
f 63//63 64//64 42//42
f 64//64 40//40 42//42
f 7//7 8//8 6//6
f 8//8 4//4 6//6
f 16//16 12//12 14//14
f 9//9 11//11 15//15
f 17//17 21//21 18//18
f 65//65 66//66 67//67
f 66//66 68//68 67//67
f 66//66 69//69 68//68
f 69//69 70//70 68//68
f 69//69 71//71 70//70
f 71//71 72//72 70//70
f 71//71 73//73 72//72
f 73//73 74//74 72//72
f 73//73 75//75 74//74
f 75//75 76//76 74//74
f 75//75 77//77 76//76
f 77//77 78//78 76//76
f 77//77 79//79 78//78
f 79//79 80//80 78//78
f 79//79 81//81 80//80
f 81//81 67//67 80//80
f 81//81 82//82 67//67
f 82//82 83//83 67//67
f 82//82 84//84 83//83
f 84//84 85//85 83//83
f 84//84 81//81 85//85
f 81//81 79//79 85//85
f 67//67 83//83 86//86
f 83//83 87//87 86//86
f 83//83 88//88 87//87
f 88//88 89//89 87//87
f 88//88 85//85 89//89
f 85//85 90//90 89//89
f 85//85 91//91 90//90
f 91//91 92//92 90//90
f 91//91 93//93 92//92
f 93//93 89//89 92//92
f 93//93 94//94 89//89
f 94//94 87//87 89//89
f 94//94 95//95 87//87
f 95//95 96//96 87//87
f 95//95 97//97 96//96
f 97//97 98//98 96//96
f 97//97 65//65 98//98
f 99//99 100//100 101//101
f 100//100 102//102 101//101
f 100//100 103//103 102//102
f 103//103 104//104 102//102
f 103//103 105//105 104//104
f 105//105 106//106 104//104
f 105//105 107//107 106//106
f 107//107 108//108 106//106
f 107//107 109//109 108//108
f 109//109 110//110 108//108
f 109//109 111//111 110//110
f 111//111 112//112 110//110
f 111//111 99//99 112//112
f 99//99 113//113 112//112
f 99//99 101//101 113//113
f 101//101 102//102 113//113
f 114//114 115//115 116//116
f 115//115 117//117 116//116
f 115//115 118//118 117//117
f 118//118 119//119 117//117
f 118//118 120//120 119//119
f 120//120 121//121 119//119
f 120//120 115//115 121//121
f 115//115 114//114 121//121
f 95//95 122//122 97//97
f 122//122 123//123 97//97
f 122//122 124//124 123//123
f 124//124 71//71 123//123
f 124//124 125//125 71//71
f 125//125 73//73 71//71
f 125//125 75//75 73//73
f 67//67 68//68 80//80
f 68//68 126//126 80//80
f 68//68 127//127 126//126
f 127//127 128//128 126//126
f 127//127 129//129 128//128
f 129//129 74//74 128//128
f 129//129 72//72 74//74
f 130//130 131//131 132//132
f 131//131 133//133 132//132
f 131//131 134//134 133//133
f 134//134 135//135 133//133
f 134//134 136//136 135//135
f 136//136 133//133 135//135
f 136//136 132//132 133//133
f 103//103 100//100 105//105
f 100//100 107//107 105//105
f 100//100 137//137 107//107
f 137//137 109//109 107//107
f 137//137 111//111 109//109
f 138//138 139//139 140//140
f 139//139 141//141 140//140
f 139//139 142//142 141//141
f 142//142 143//143 141//141
f 139//139 138//138 144//144
f 138//138 143//143 144//144
f 138//138 145//145 143//143
f 145//145 141//141 143//143
f 97//97 123//123 65//65
f 123//123 66//66 65//65
f 123//123 71//71 66//66
f 71//71 69//69 66//66
f 146//146 147//147 148//148
f 147//147 149//149 148//148
f 147//147 150//150 149//149
f 150//150 151//151 149//149
f 147//147 146//146 152//152
f 146//146 151//151 152//152
f 146//146 153//153 151//151
f 153//153 149//149 151//151
f 154//154 155//155 156//156
f 155//155 157//157 156//156
f 155//155 158//158 157//157
f 158//158 159//159 157//157
f 155//155 154//154 160//160
f 154//154 159//159 160//160
f 154//154 161//161 159//159
f 161//161 157//157 159//159
f 112//112 113//113 110//110
f 113//113 162//162 110//110
f 162//162 102//102 113//113
f 102//102 104//104 162//162
f 122//122 93//93 124//124
f 93//93 75//75 124//124
f 93//93 77//77 75//75
f 130//130 163//163 131//131
f 163//163 134//134 131//131
f 163//163 136//136 134//134
f 137//137 164//164 111//111
f 164//164 99//99 111//111
f 164//164 100//100 99//99
f 96//96 98//98 87//87
f 98//98 86//86 87//87
f 85//85 79//79 91//91
f 79//79 77//77 91//91
f 80//80 126//126 78//78
f 126//126 128//128 78//78
f 78//78 128//128 76//76
f 128//128 74//74 76//76
f 68//68 70//70 127//127
f 70//70 72//72 127//127
f 162//162 104//104 110//110
f 104//104 106//106 110//110
f 121//121 114//114 119//119
f 115//115 120//120 118//118
f 90//90 92//92 89//89
f 91//91 77//77 93//93
f 125//125 124//124 75//75
f 127//127 72//72 129//129
f 84//84 82//82 81//81
f 83//83 85//85 88//88
f 108//108 110//110 106//106
f 137//137 100//100 164//164
